<svg xmlns="http://www.w3.org/2000/svg" xmlns:xlink="http://www.w3.org/1999/xlink" width="189.864" height="191.441" viewBox="0 0 189.864 191.441"><defs><filter id="a" x="0" y="0" width="189.864" height="191.441" filterUnits="userSpaceOnUse"><feOffset dy="6" input="SourceAlpha"/><feGaussianBlur stdDeviation="7" result="b"/><feFlood flood-opacity="0.149"/><feComposite operator="in" in2="b"/><feComposite in="SourceGraphic"/></filter><filter id="c" x="21" y="25" width="88" height="62" filterUnits="userSpaceOnUse"><feOffset dy="3" input="SourceAlpha"/><feGaussianBlur stdDeviation="4" result="d"/><feFlood flood-opacity="0.051"/><feComposite operator="in" in2="d"/><feComposite in="SourceGraphic"/></filter></defs><g transform="translate(21 15)"><g transform="matrix(1, 0, 0, 1, -21, -15)" filter="url(#a)"><path d="M0,5A5,5,0,0,1,5,0H139.147a5,5,0,0,1,5,4.851l3.718,124.79a5,5,0,0,1-4.469,5.121L5.528,149.413A5,5,0,0,1,0,144.441Z" transform="translate(21 15)" fill="#fff"/></g><rect width="54" height="6" rx="3" transform="translate(83 51)" fill="#e8e8e8"/><rect width="125" height="6" rx="3" transform="translate(12 69)" fill="#e8e8e8"/><rect width="125" height="6" rx="3" transform="translate(12 88)" fill="#e8e8e8"/><rect width="125" height="6" rx="3" transform="translate(12 106)" fill="#e8e8e8"/><g transform="matrix(1, 0, 0, 1, -21, -15)" filter="url(#c)"><rect width="64" height="38" rx="4" transform="translate(33 34)" fill="#2f444f" opacity="0.8"/></g><text transform="translate(90 35)" fill="#efefef" font-size="16" font-family="Helvetica"><tspan x="0" y="0">FAQs</tspan></text><g transform="translate(32 26)" opacity="0.8"><path d="M11.207,17.557a.755.755,0,1,1,.754.755A.754.754,0,0,1,11.207,17.557Zm.009-2.119v-1.4A3.22,3.22,0,0,1,12.955,11.3c.766-.547,1.319-.942,1.319-2.021a1.908,1.908,0,0,0-3.666-.743.732.732,0,0,1-1.349-.57,3.373,3.373,0,0,1,6.48,1.312,3.689,3.689,0,0,1-1.934,3.213c-.739.526-1.124.835-1.124,1.552v1.4a.733.733,0,0,1-1.465,0Z" transform="translate(0)" fill="#fff"/></g></g></svg>