<svg xmlns="http://www.w3.org/2000/svg" xmlns:xlink="http://www.w3.org/1999/xlink" width="223.236" height="203.385" viewBox="0 0 223.236 203.385"><defs><filter id="a" x="0" y="0" width="223.236" height="203.385" filterUnits="userSpaceOnUse"><feOffset dy="6" input="SourceAlpha"/><feGaussianBlur stdDeviation="9" result="b"/><feFlood flood-opacity="0.149"/><feComposite operator="in" in2="b"/><feComposite in="SourceGraphic"/></filter><filter id="c" x="24.118" y="27.692" width="103.068" height="79.433" filterUnits="userSpaceOnUse"><feOffset dy="3" input="SourceAlpha"/><feGaussianBlur stdDeviation="6" result="d"/><feFlood flood-opacity="0.051"/><feComposite operator="in" in2="d"/><feComposite in="SourceGraphic"/></filter></defs><g transform="translate(26.438 20.692)"><g transform="matrix(1, 0, 0, 1, -26.44, -20.69)" filter="url(#a)"><path d="M.595,15.554A5,5,0,0,1,5.228,10L149.65.319a5,5,0,0,1,5.3,4.421l14.814,129.705A5,5,0,0,1,165.132,140L20.71,149.681a5,5,0,0,1-5.3-4.421Z" transform="translate(26.44 20.69)" fill="#fff"/></g><g transform="translate(15.214 21.717)"><g transform="matrix(1, 0, 0, 1, -41.65, -42.41)" filter="url(#c)"><rect width="64" height="38" rx="4" transform="matrix(1, -0.09, 0.09, 1, 42.12, 48.27)" fill="#4a90e2" opacity="0.8"/></g><g transform="translate(18.466 9.283)" opacity="0.8"><path d="M24.471,25.121l-3.5-4.035H10.047a.753.753,0,0,1,0-1.507H21.312a.744.744,0,0,1,.57.257l3.037,3.508V20.326a.752.752,0,0,1,.753-.753h1.536a1.269,1.269,0,0,0,1.267-1.267V7.3a1.269,1.269,0,0,0-1.267-1.267.75.75,0,1,1,0-1.5A2.772,2.772,0,0,1,29.975,7.3V18.306a2.772,2.772,0,0,1-2.767,2.767h-.789v3.318a1.1,1.1,0,0,1-.723,1.041,1.115,1.115,0,0,1-.391.073A1.1,1.1,0,0,1,24.471,25.121ZM14.186,8.535a.894.894,0,1,1,.894.894A.894.894,0,0,1,14.186,8.535Zm-2.994,0a.894.894,0,1,1,.895.894A.894.894,0,0,1,11.192,8.535Zm-2.993,0a.894.894,0,1,1,.894.894A.894.894,0,0,1,8.2,8.535Z" transform="matrix(0.996, -0.087, 0.087, 0.996, 0, 2.613)" fill="#fff"/></g></g><text transform="matrix(0.995, -0.105, 0.105, 0.995, 97.143, 35.941)" fill="#efefef" font-size="16" font-family="Helvetica"><tspan x="0" y="0">CHAT</tspan></text><path d="M.008,7.149a2.5,2.5,0,0,1,2.266-2.7l49-4.43A2.5,2.5,0,0,1,53.992,2.3h0A2.5,2.5,0,0,1,51.727,5l-49,4.431A2.5,2.5,0,0,1,.008,7.148Z" transform="translate(97.511 46.091)" fill="#e8e8e8"/><path d="M.739,16.905a4.405,4.405,0,0,1,3.746-5.369L132.315.141a4.723,4.723,0,0,1,4.979,3.474h0a1.083,1.083,0,0,1-.831,1.192L4.685,16.553A4.723,4.723,0,0,1-.294,13.08Z" transform="translate(15.511 67.695)" fill="#e8e8e8"/><path d="M.739,16.905a4.405,4.405,0,0,1,3.746-5.369L132.315.141a4.723,4.723,0,0,1,4.979,3.474h0a1.083,1.083,0,0,1-.831,1.192L4.685,16.553A4.723,4.723,0,0,1-.294,13.08Z" transform="translate(15.511 82.695)" fill="#e8e8e8"/><path d="M.739,16.905a4.405,4.405,0,0,1,3.746-5.369L132.315.141a4.723,4.723,0,0,1,4.979,3.474h0a1.083,1.083,0,0,1-.831,1.192L4.685,16.553A4.723,4.723,0,0,1-.294,13.08Z" transform="translate(15.511 97.695)" fill="#e8e8e8"/></g></svg>