<svg xmlns="http://www.w3.org/2000/svg" xmlns:xlink="http://www.w3.org/1999/xlink" width="223.3" height="211.347" viewBox="0 0 223.3 211.347"><defs><filter id="a" x="0" y="0" width="223.3" height="211.347" filterUnits="userSpaceOnUse"><feOffset dy="6" input="SourceAlpha"/><feGaussianBlur stdDeviation="9" result="b"/><feFlood flood-color="#493e3e" flood-opacity="0.149"/><feComposite operator="in" in2="b"/><feComposite in="SourceGraphic"/></filter><filter id="c" x="30.9" y="30.838" width="103.068" height="79.433" filterUnits="userSpaceOnUse"><feOffset dy="3" input="SourceAlpha"/><feGaussianBlur stdDeviation="6" result="d"/><feFlood flood-opacity="0.051"/><feComposite operator="in" in2="d"/><feComposite in="SourceGraphic"/></filter></defs><g transform="translate(26.47 20.673)"><g transform="matrix(1, 0, 0, 1, -26.47, -20.67)" filter="url(#a)"><path d="M15.43,4.788A5,5,0,0,1,20.753.339l144.428,10.2a5,5,0,0,1,4.619,5.527L154.929,153.212a5,5,0,0,1-5.323,4.449L5.178,147.465A5,5,0,0,1,.56,141.939Z" transform="translate(26.47 20.67)" fill="#fff"/></g><rect width="51" height="6" rx="3" transform="translate(93.729 62.382) rotate(7)" fill="#d8d8d8"/><rect width="125" height="6" rx="3" transform="matrix(0.998, 0.07, -0.07, 0.998, 20.959, 77.993)" fill="#d8d8d8"/><rect width="125" height="6" rx="3" transform="matrix(0.998, 0.07, -0.07, 0.998, 22.863, 93.45)" fill="#d8d8d8"/><g transform="matrix(1, 0, 0, 1, -26.47, -20.67)" filter="url(#c)"><rect width="64" height="38" rx="4" transform="matrix(1, 0.09, -0.09, 1, 52.21, 45.84)" fill="#6091a7" opacity="0.8"/></g><text transform="matrix(0.995, 0.105, -0.105, 0.995, 96.741, 47.879)" fill="#efefef" font-size="16" font-family="Helvetica"><tspan x="0" y="0">FORUM</tspan></text><g transform="matrix(0.995, 0.105, -0.105, 0.995, 42.33, 30.514)"><path d="M10.015,29.829,7.609,27.422H4.1A4.106,4.106,0,0,1,0,23.32V14.3a4.106,4.106,0,0,1,4.1-4.1H10.02a.586.586,0,0,1,0,1.172H4.1A2.933,2.933,0,0,0,1.172,14.3V23.32A2.933,2.933,0,0,0,4.1,26.25H7.909a.586.586,0,0,1,.537.352l1.4,1.4V26.835a.585.585,0,0,1,.586-.585h6.326a2.933,2.933,0,0,0,2.929-2.93V19.277a.586.586,0,0,1,1.172,0V23.32a4.106,4.106,0,0,1-4.1,4.1H11.017v1.993a.587.587,0,0,1-1,.414ZM15.7,22.445a.586.586,0,1,1,.415.172A.59.59,0,0,1,15.7,22.445ZM3.75,22.617a.586.586,0,0,1,0-1.172H13.809a.586.586,0,0,1,0,1.172Zm0-3.281a.586.586,0,1,1,0-1.172H16.114a.586.586,0,1,1,0,1.172Zm0-3.281a.586.586,0,0,1,0-1.173H12.3a.586.586,0,0,1,0,1.173ZM20.492,13.09a.587.587,0,1,1,.414.171A.591.591,0,0,1,20.492,13.09Zm-.172-2.732V8.951a1.109,1.109,0,0,1,.874-1.087,1.309,1.309,0,1,0-1.6-1.277.586.586,0,1,1-1.172,0,2.487,2.487,0,0,1,.788-1.813,2.46,2.46,0,0,1,1.867-.661A2.481,2.481,0,0,1,21.492,9v1.361a.586.586,0,1,1-1.172,0Z" fill="#fff"/></g><rect width="125" height="6" rx="3" transform="matrix(0.998, 0.07, -0.07, 0.998, 23.84, 108.253)" fill="#d8d8d8"/></g></svg>