<svg xmlns="http://www.w3.org/2000/svg" xmlns:xlink="http://www.w3.org/1999/xlink" width="200.863" height="191.482" viewBox="0 0 200.863 191.482"><defs><filter id="a" x="0" y="0" width="200.863" height="191.482" filterUnits="userSpaceOnUse"><feOffset dy="6" input="SourceAlpha"/><feGaussianBlur stdDeviation="7" result="b"/><feFlood flood-opacity="0.149"/><feComposite operator="in" in2="b"/><feComposite in="SourceGraphic"/></filter><filter id="c" x="26.863" y="25" width="88" height="62" filterUnits="userSpaceOnUse"><feOffset dy="3" input="SourceAlpha"/><feGaussianBlur stdDeviation="4" result="d"/><feFlood flood-opacity="0.051"/><feComposite operator="in" in2="d"/><feComposite in="SourceGraphic"/></filter></defs><g transform="translate(20.863 15)"><g transform="matrix(1, 0, 0, 1, -20.86, -15)" filter="url(#a)"><path d="M3.719,4.851A5,5,0,0,1,8.717,0H153.863a5,5,0,0,1,5,5V144.481a5,5,0,0,1-5.492,4.976L4.508,134.732A5,5,0,0,1,0,129.608Z" transform="translate(21 15)" fill="#fff"/></g><g transform="matrix(1, 0, 0, 1, -20.86, -15)" filter="url(#c)"><rect width="64" height="38" rx="4" transform="translate(38.86 34)" fill="#e65759" opacity="0.8"/></g><rect width="54" height="6" rx="3" transform="translate(89 51)" fill="#e8e8e8"/><rect width="125" height="6" rx="3" transform="translate(18 69)" fill="#e8e8e8"/><rect width="125" height="6" rx="3" transform="translate(18 88)" fill="#e8e8e8"/><rect width="125" height="6" rx="3" transform="translate(18 106)" fill="#e8e8e8"/><text transform="translate(96 37)" fill="#efefef" font-size="16" font-family="Helvetica"><tspan x="0" y="0">CALL</tspan></text><path d="M25.635,25.04H.5A.5.5,0,0,1,0,24.546C-.053,22.4,1.261,20.6,3.907,19.2a20.719,20.719,0,0,1,5.422-1.839V16.9a4.41,4.41,0,0,1-.371-.337,6.694,6.694,0,0,1-1.716-3.774A3.32,3.32,0,0,1,5.1,11.5c-.719-1.017-.78-2.464-.183-4.3a.5.5,0,0,1,.2-.257l.273-.183a6.694,6.694,0,0,1,1.6-4.515C8.325.755,10.37,0,13.064,0s4.752.772,6.078,2.265a6.683,6.683,0,0,1,1.6,4.515l.272.183a.5.5,0,0,1,.2.257c.6,1.832.539,3.28-.184,4.3A3.318,3.318,0,0,1,18.884,12.8a6.723,6.723,0,0,1-1.711,3.768c-.111.111-.233.222-.371.337v.454A20.737,20.737,0,0,1,22.225,19.2c2.646,1.4,3.96,3.2,3.905,5.348A.5.5,0,0,1,25.635,25.04ZM16.8,18.368v.866c0,1.118-1.334,1.99-3.244,2.121v2.681H25.121C24.713,20.3,18.65,18.752,16.8,18.368Zm-7.478-.014h0A20.527,20.527,0,0,0,4.6,19.945c-2.22,1.116-3.43,2.488-3.6,4.076H12.569v-2.66c-1.91-.147-3.245-1.02-3.245-2.122v-.885Zm.989-.821v1.705c0,.468,1.071,1.148,2.75,1.148s2.749-.68,2.749-1.148V17.533a6.029,6.029,0,0,1-2.514.554h-.472A6.028,6.028,0,0,1,10.313,17.533Zm2.642-.421H13.2c.074,0,.15.005.224.005a4.386,4.386,0,0,0,3.055-1.231,5.448,5.448,0,0,0,1.326-2.612l-2.271,1.217a1.085,1.085,0,0,1,0,.133,1.425,1.425,0,1,1-.445-1.033l2.878-1.543v-.257a.5.5,0,0,1,.123-.332A2.8,2.8,0,0,0,19,9.392a1.3,1.3,0,0,0-.445-.811,6.482,6.482,0,0,1-1.019.055,11.178,11.178,0,0,1-5.489-1.484,7.434,7.434,0,0,1-4.451,1.4,1.307,1.307,0,0,0-.45.835,2.8,2.8,0,0,0,.9,2.067.5.5,0,0,1,.124.332l-.02-.005v.006a6.32,6.32,0,0,0,1.528,4.1,4.4,4.4,0,0,0,3.055,1.227C12.808,17.117,12.882,17.115,12.955,17.112Zm1.152-2.928a.44.44,0,1,0,.44.44A.441.441,0,0,0,14.107,14.184ZM13.99,2.339h.018c1.484,0,4.96.536,5.173,5.5a2.335,2.335,0,0,1,.8,1.385,3.307,3.307,0,0,1-.806,2.472,2.14,2.14,0,0,0,1.054-.767,3.747,3.747,0,0,0,.1-3.259l-.362-.242a.494.494,0,0,1-.217-.46A5.833,5.833,0,0,0,18.4,2.9C17.262,1.631,15.485.989,13.118.989h-.054C10.645,1,8.856,1.641,7.746,2.9A5.83,5.83,0,0,0,6.4,6.969a.494.494,0,0,1-.218.46l-.361.242a3.8,3.8,0,0,0,.1,3.259l-.025,0a2.142,2.142,0,0,0,1.049.767,3.306,3.306,0,0,1-.806-2.473,2.315,2.315,0,0,1,.806-1.38c.228-4.964,3.694-5.5,5.173-5.5h.018a6.4,6.4,0,0,1,.927.069A6.376,6.376,0,0,1,13.99,2.339ZM12,6.062a.512.512,0,0,1,.284.09,10.182,10.182,0,0,0,5.323,1.5c.209,0,.406-.006.587-.017l-.025-.005a4.69,4.69,0,0,0-1.5-3.476,4.071,4.071,0,0,0-2.639-.832H14a4.842,4.842,0,0,0-.814.069.6.6,0,0,1-.1.01.567.567,0,0,1-.1-.01,4.837,4.837,0,0,0-.814-.069h-.032c-1.752,0-3.9.739-4.164,4.258a5.828,5.828,0,0,0,3.665-1.365A.5.5,0,0,1,12,6.062Z" transform="translate(37 25)" fill="#fff" opacity="0.8"/></g></svg>