<svg xmlns="http://www.w3.org/2000/svg" width="1292" height="151.764" viewBox="0 0 1292 151.764"><g transform="translate(0 -715)"><g transform="translate(-0.281 718.382)" opacity="0.56"><rect width="108" height="131" transform="matrix(0.985, -0.174, 0.174, 0.985, 0.281, 19.372)" fill="#d4d4d4" opacity="0.302"/><g transform="translate(8 13.981)" opacity="0.32"><path d="M.212,17.985A3.5,3.5,0,0,1,3.051,13.93L80.851.212a3.5,3.5,0,0,1,4.055,2.839h0a1.657,1.657,0,0,1-1.217,1.738L3.919,18.854A3.5,3.5,0,0,1-.135,16.015Z" transform="translate(15.677 39.135)" fill="#bfbfbf"/><path d="M.212,17.985A3.5,3.5,0,0,1,3.051,13.93L80.851.212a3.5,3.5,0,0,1,4.055,2.839h0a1.657,1.657,0,0,1-1.217,1.738L3.919,18.854A3.5,3.5,0,0,1-.135,16.015Z" transform="translate(17.677 47.033)" fill="#bfbfbf"/><rect width="65" height="37" transform="matrix(0.985, -0.174, 0.174, 0.985, 0.281, 11.925)" fill="#bfbfbf"/><path d="M.212,8.087A3.5,3.5,0,0,1,3.051,4.032L24.717.212a3.5,3.5,0,0,1,4.055,2.839h0a1.657,1.657,0,0,1-1.217,1.738L3.919,8.956A3.5,3.5,0,0,1-.135,6.117Z" transform="translate(72.677 27.033)" fill="#bfbfbf"/></g><g transform="translate(94.867 1.513)"><rect width="109" height="131" transform="translate(18.646 0.105) rotate(8)" fill="#d4d4d4" opacity="0.302"/><g transform="translate(19.31 7)" opacity="0.2"><rect width="58" height="29" transform="translate(4.141 0.105) rotate(8)" fill="#bfbfbf"/><rect width="30" height="5" rx="2.5" transform="translate(65.8 33.105) rotate(8)" fill="#bfbfbf"/><rect width="93" height="5" rx="2.5" transform="translate(0.8 35.105) rotate(8)" fill="#bfbfbf"/><rect width="93" height="5" rx="2.5" transform="translate(0.8 46.105) rotate(8)" fill="#bfbfbf"/><rect width="93" height="5" rx="2.5" transform="translate(0.8 57.105) rotate(8)" fill="#bfbfbf"/></g></g><g transform="translate(210)"><rect width="108" height="131" transform="matrix(0.985, -0.174, 0.174, 0.985, 0.281, 19.372)" fill="#d4d4d4" opacity="0.302"/><g transform="translate(8 13.981)" opacity="0.2"><path d="M.212,17.985A3.5,3.5,0,0,1,3.051,13.93L80.851.212a3.5,3.5,0,0,1,4.055,2.839h0a1.657,1.657,0,0,1-1.217,1.738L3.919,18.854A3.5,3.5,0,0,1-.135,16.015Z" transform="translate(15.677 39.135)" fill="#bfbfbf"/><path d="M.212,17.985A3.5,3.5,0,0,1,3.051,13.93L80.851.212a3.5,3.5,0,0,1,4.055,2.839h0a1.657,1.657,0,0,1-1.217,1.738L3.919,18.854A3.5,3.5,0,0,1-.135,16.015Z" transform="translate(17.677 47.033)" fill="#bfbfbf"/><rect width="65" height="37" transform="matrix(0.985, -0.174, 0.174, 0.985, 0.281, 11.925)" fill="#bfbfbf"/><path d="M.212,8.087A3.5,3.5,0,0,1,3.051,4.032L24.717.212a3.5,3.5,0,0,1,4.055,2.839h0a1.657,1.657,0,0,1-1.217,1.738L3.919,8.956A3.5,3.5,0,0,1-.135,6.117Z" transform="translate(72.677 27.033)" fill="#bfbfbf"/></g></g><g transform="translate(304.867 1.513)"><rect width="109" height="131" transform="translate(18.646 0.105) rotate(8)" fill="#d4d4d4" opacity="0.302"/><g transform="translate(19.31 7)" opacity="0.2"><rect width="58" height="29" transform="translate(4.141 0.105) rotate(8)" fill="#bfbfbf"/><rect width="30" height="5" rx="2.5" transform="translate(65.8 33.105) rotate(8)" fill="#bfbfbf"/><rect width="93" height="5" rx="2.5" transform="translate(0.8 35.105) rotate(8)" fill="#bfbfbf"/><rect width="93" height="5" rx="2.5" transform="translate(0.8 46.105) rotate(8)" fill="#bfbfbf"/><rect width="93" height="5" rx="2.5" transform="translate(0.8 57.105) rotate(8)" fill="#bfbfbf"/></g></g></g><g transform="translate(430.548 716.382)" opacity="0.56"><rect width="108" height="131" transform="matrix(0.985, -0.174, 0.174, 0.985, 0.281, 19.372)" fill="#d4d4d4" opacity="0.302"/><g transform="translate(8 13.981)" opacity="0.32"><path d="M.212,17.985A3.5,3.5,0,0,1,3.051,13.93L80.851.212a3.5,3.5,0,0,1,4.055,2.839h0a1.657,1.657,0,0,1-1.217,1.738L3.919,18.854A3.5,3.5,0,0,1-.135,16.015Z" transform="translate(15.677 39.135)" fill="#bfbfbf"/><path d="M.212,17.985A3.5,3.5,0,0,1,3.051,13.93L80.851.212a3.5,3.5,0,0,1,4.055,2.839h0a1.657,1.657,0,0,1-1.217,1.738L3.919,18.854A3.5,3.5,0,0,1-.135,16.015Z" transform="translate(17.677 47.033)" fill="#bfbfbf"/><rect width="65" height="37" transform="matrix(0.985, -0.174, 0.174, 0.985, 0.281, 11.925)" fill="#bfbfbf"/><path d="M.212,8.087A3.5,3.5,0,0,1,3.051,4.032L24.717.212a3.5,3.5,0,0,1,4.055,2.839h0a1.657,1.657,0,0,1-1.217,1.738L3.919,8.956A3.5,3.5,0,0,1-.135,6.117Z" transform="translate(72.677 27.033)" fill="#bfbfbf"/></g><g transform="translate(94.867 1.513)"><rect width="109" height="131" transform="translate(18.646 0.105) rotate(8)" fill="#d4d4d4" opacity="0.302"/><g transform="translate(19.31 7)" opacity="0.2"><rect width="58" height="29" transform="translate(4.141 0.105) rotate(8)" fill="#bfbfbf"/><rect width="30" height="5" rx="2.5" transform="translate(65.8 33.105) rotate(8)" fill="#bfbfbf"/><rect width="93" height="5" rx="2.5" transform="translate(0.8 35.105) rotate(8)" fill="#bfbfbf"/><rect width="93" height="5" rx="2.5" transform="translate(0.8 46.105) rotate(8)" fill="#bfbfbf"/><rect width="93" height="5" rx="2.5" transform="translate(0.8 57.105) rotate(8)" fill="#bfbfbf"/></g></g><g transform="translate(210)"><rect width="108" height="131" transform="matrix(0.985, -0.174, 0.174, 0.985, 0.281, 19.372)" fill="#d4d4d4" opacity="0.302"/><g transform="translate(8 13.981)" opacity="0.2"><path d="M.212,17.985A3.5,3.5,0,0,1,3.051,13.93L80.851.212a3.5,3.5,0,0,1,4.055,2.839h0a1.657,1.657,0,0,1-1.217,1.738L3.919,18.854A3.5,3.5,0,0,1-.135,16.015Z" transform="translate(15.677 39.135)" fill="#bfbfbf"/><path d="M.212,17.985A3.5,3.5,0,0,1,3.051,13.93L80.851.212a3.5,3.5,0,0,1,4.055,2.839h0a1.657,1.657,0,0,1-1.217,1.738L3.919,18.854A3.5,3.5,0,0,1-.135,16.015Z" transform="translate(17.677 47.033)" fill="#bfbfbf"/><rect width="65" height="37" transform="matrix(0.985, -0.174, 0.174, 0.985, 0.281, 11.925)" fill="#bfbfbf"/><path d="M.212,8.087A3.5,3.5,0,0,1,3.051,4.032L24.717.212a3.5,3.5,0,0,1,4.055,2.839h0a1.657,1.657,0,0,1-1.217,1.738L3.919,8.956A3.5,3.5,0,0,1-.135,6.117Z" transform="translate(72.677 27.033)" fill="#bfbfbf"/></g></g><g transform="translate(304.867 1.513)"><rect width="109" height="131" transform="translate(18.646 0.105) rotate(8)" fill="#d4d4d4" opacity="0.302"/><g transform="translate(19.31 7)" opacity="0.2"><rect width="58" height="29" transform="translate(4.141 0.105) rotate(8)" fill="#bfbfbf"/><rect width="30" height="5" rx="2.5" transform="translate(65.8 33.105) rotate(8)" fill="#bfbfbf"/><rect width="93" height="5" rx="2.5" transform="translate(0.8 35.105) rotate(8)" fill="#bfbfbf"/><rect width="93" height="5" rx="2.5" transform="translate(0.8 46.105) rotate(8)" fill="#bfbfbf"/><rect width="93" height="5" rx="2.5" transform="translate(0.8 57.105) rotate(8)" fill="#bfbfbf"/></g></g></g><g transform="translate(860.548 714.382)" opacity="0.56"><rect width="108" height="131" transform="matrix(0.985, -0.174, 0.174, 0.985, 0.281, 19.372)" fill="#d4d4d4" opacity="0.302"/><g transform="translate(8 13.981)" opacity="0.32"><path d="M.212,17.985A3.5,3.5,0,0,1,3.051,13.93L80.851.212a3.5,3.5,0,0,1,4.055,2.839h0a1.657,1.657,0,0,1-1.217,1.738L3.919,18.854A3.5,3.5,0,0,1-.135,16.015Z" transform="translate(15.677 39.135)" fill="#bfbfbf"/><path d="M.212,17.985A3.5,3.5,0,0,1,3.051,13.93L80.851.212a3.5,3.5,0,0,1,4.055,2.839h0a1.657,1.657,0,0,1-1.217,1.738L3.919,18.854A3.5,3.5,0,0,1-.135,16.015Z" transform="translate(17.677 47.033)" fill="#bfbfbf"/><rect width="65" height="37" transform="matrix(0.985, -0.174, 0.174, 0.985, 0.281, 11.925)" fill="#bfbfbf"/><path d="M.212,8.087A3.5,3.5,0,0,1,3.051,4.032L24.717.212a3.5,3.5,0,0,1,4.055,2.839h0a1.657,1.657,0,0,1-1.217,1.738L3.919,8.956A3.5,3.5,0,0,1-.135,6.117Z" transform="translate(72.677 27.033)" fill="#bfbfbf"/></g><g transform="translate(94.867 1.513)"><rect width="109" height="131" transform="translate(18.646 0.105) rotate(8)" fill="#d4d4d4" opacity="0.302"/><g transform="translate(19.31 7)" opacity="0.2"><rect width="58" height="29" transform="translate(4.141 0.105) rotate(8)" fill="#bfbfbf"/><rect width="30" height="5" rx="2.5" transform="translate(65.8 33.105) rotate(8)" fill="#bfbfbf"/><rect width="93" height="5" rx="2.5" transform="translate(0.8 35.105) rotate(8)" fill="#bfbfbf"/><rect width="93" height="5" rx="2.5" transform="translate(0.8 46.105) rotate(8)" fill="#bfbfbf"/><rect width="93" height="5" rx="2.5" transform="translate(0.8 57.105) rotate(8)" fill="#bfbfbf"/></g></g><g transform="translate(210)"><rect width="108" height="131" transform="matrix(0.985, -0.174, 0.174, 0.985, 0.281, 19.372)" fill="#d4d4d4" opacity="0.302"/><g transform="translate(8 13.981)" opacity="0.2"><path d="M.212,17.985A3.5,3.5,0,0,1,3.051,13.93L80.851.212a3.5,3.5,0,0,1,4.055,2.839h0a1.657,1.657,0,0,1-1.217,1.738L3.919,18.854A3.5,3.5,0,0,1-.135,16.015Z" transform="translate(15.677 39.135)" fill="#bfbfbf"/><path d="M.212,17.985A3.5,3.5,0,0,1,3.051,13.93L80.851.212a3.5,3.5,0,0,1,4.055,2.839h0a1.657,1.657,0,0,1-1.217,1.738L3.919,18.854A3.5,3.5,0,0,1-.135,16.015Z" transform="translate(17.677 47.033)" fill="#bfbfbf"/><rect width="65" height="37" transform="matrix(0.985, -0.174, 0.174, 0.985, 0.281, 11.925)" fill="#bfbfbf"/><path d="M.212,8.087A3.5,3.5,0,0,1,3.051,4.032L24.717.212a3.5,3.5,0,0,1,4.055,2.839h0a1.657,1.657,0,0,1-1.217,1.738L3.919,8.956A3.5,3.5,0,0,1-.135,6.117Z" transform="translate(72.677 27.033)" fill="#bfbfbf"/></g></g><g transform="translate(304.867 1.513)"><rect width="109" height="131" transform="translate(18.646 0.105) rotate(8)" fill="#d4d4d4" opacity="0.302"/><g transform="translate(19.31 7)" opacity="0.2"><rect width="58" height="29" transform="translate(4.141 0.105) rotate(8)" fill="#bfbfbf"/><rect width="30" height="5" rx="2.5" transform="translate(65.8 33.105) rotate(8)" fill="#bfbfbf"/><rect width="93" height="5" rx="2.5" transform="translate(0.8 35.105) rotate(8)" fill="#bfbfbf"/><rect width="93" height="5" rx="2.5" transform="translate(0.8 46.105) rotate(8)" fill="#bfbfbf"/><rect width="93" height="5" rx="2.5" transform="translate(0.8 57.105) rotate(8)" fill="#bfbfbf"/></g></g></g></g></svg>