<svg xmlns="http://www.w3.org/2000/svg" width="35.519" height="35.767" viewBox="0 0 35.519 35.767">
  <g id="customer_support_logo" data-name="customer support logo" transform="translate(1 0.98)" opacity="0.7">
    <g id="Group-19">
      <path id="Path-2" d="M14.323,24.021H2.288A2.288,2.288,0,0,1,0,21.733V8.262A3.269,3.269,0,0,1,3.269,4.993H15.381a.163.163,0,0,0,.147-.235L13.331.235A.163.163,0,0,1,13.55.016L22.4,4.322a2.452,2.452,0,0,1,1.379,2.2V22.06h0a1.962,1.962,0,0,1-1.962,1.962H17.446" transform="translate(9.744 0.027)" fill="none" stroke="#192f48" stroke-linecap="round" stroke-miterlimit="10" stroke-width="2"/>
      <path id="Path-3" d="M10.129,0H21.644A2.615,2.615,0,0,1,24.26,2.615V16.261a2.779,2.779,0,0,1-2.779,2.779H8.627a.163.163,0,0,0-.138.251L11.2,23.555a.327.327,0,0,1-.413.472L2.276,20.092A3.923,3.923,0,0,1,0,16.532V2.779A2.779,2.779,0,0,1,2.779,0H6.068" transform="translate(0 9.719)" fill="none" stroke="#192f48" stroke-linecap="round" stroke-miterlimit="10" stroke-width="2"/>
    </g>
    <g id="headphones-_1_" data-name="headphones-(1)" transform="translate(13 12)">
      <path id="Shape" d="M4.453,8.827H3.926a.783.783,0,0,1,0-1.563h.526a.742.742,0,0,1,.7.539,1.451,1.451,0,0,0,1.192-1.49H6.052a.217.217,0,0,1-.211-.223V3.576a.217.217,0,0,1,.211-.223h.3V3.017A2.392,2.392,0,0,0,4.055.445H3.791a2.392,2.392,0,0,0-2.3,2.571v.336h.3a.217.217,0,0,1,.211.223V6.092a.217.217,0,0,1-.211.222H1.148A1.184,1.184,0,0,1,0,5.1v-.53A1.194,1.194,0,0,1,1.073,3.356V3.017A3.211,3.211,0,0,1,1.837.89,2.57,2.57,0,0,1,3.793,0h.265A2.57,2.57,0,0,1,6.013.89a3.211,3.211,0,0,1,.764,2.127v.339A1.187,1.187,0,0,1,7.846,4.568V5.1A1.191,1.191,0,0,1,6.768,6.311a1.986,1.986,0,0,1-.89,1.684,1.927,1.927,0,0,1-.713.257A.75.75,0,0,1,4.453,8.827ZM3.926,7.71a.336.336,0,0,0,0,.671h.527a.336.336,0,0,0,0-.671ZM6.264,3.8V5.867H6.7A.751.751,0,0,0,7.428,5.1v-.53A.751.751,0,0,0,6.7,3.8Zm-5.113,0a.75.75,0,0,0-.727.77V5.1a.75.75,0,0,0,.727.769h.436V3.8Z" transform="translate(0.031)" fill="#192f48" stroke="#192f48" stroke-miterlimit="10" stroke-width="0.5"/>
    </g>
  </g>
</svg>
