<svg xmlns="http://www.w3.org/2000/svg" width="201.968" height="35.767" viewBox="0 0 201.968 35.767"><g transform="translate(1 0.98)"><path d="M14.323,24.021H2.288A2.288,2.288,0,0,1,0,21.733V8.262A3.269,3.269,0,0,1,3.269,4.993H15.381a.163.163,0,0,0,.147-.235L13.331.235A.163.163,0,0,1,13.55.016L22.4,4.322a2.452,2.452,0,0,1,1.379,2.2V22.06h0a1.962,1.962,0,0,1-1.962,1.962H17.446" transform="translate(9.744 0.027)" fill="none" stroke="#192f48" stroke-linecap="round" stroke-miterlimit="10" stroke-width="2"/><path d="M10.129,0H21.644A2.615,2.615,0,0,1,24.26,2.615V16.261a2.779,2.779,0,0,1-2.779,2.779H8.627a.163.163,0,0,0-.138.251L11.2,23.555a.327.327,0,0,1-.413.472L2.276,20.092A3.923,3.923,0,0,1,0,16.532V2.779A2.779,2.779,0,0,1,2.779,0H6.068" transform="translate(0 9.719)" fill="none" stroke="#192f48" stroke-linecap="round" stroke-miterlimit="10" stroke-width="2"/><g transform="translate(13 12)"><path d="M4.453,8.827H3.926a.783.783,0,0,1,0-1.563h.526a.742.742,0,0,1,.7.539,1.451,1.451,0,0,0,1.192-1.49H6.052a.217.217,0,0,1-.211-.223V3.576a.217.217,0,0,1,.211-.223h.3V3.017A2.392,2.392,0,0,0,4.055.445H3.791a2.392,2.392,0,0,0-2.3,2.571v.336h.3a.217.217,0,0,1,.211.223V6.092a.217.217,0,0,1-.211.222H1.148A1.184,1.184,0,0,1,0,5.1v-.53A1.194,1.194,0,0,1,1.073,3.356V3.017A3.211,3.211,0,0,1,1.837.89,2.57,2.57,0,0,1,3.793,0h.265A2.57,2.57,0,0,1,6.013.89a3.211,3.211,0,0,1,.764,2.127v.339A1.187,1.187,0,0,1,7.846,4.568V5.1A1.191,1.191,0,0,1,6.768,6.311a1.986,1.986,0,0,1-.89,1.684,1.927,1.927,0,0,1-.713.257A.75.75,0,0,1,4.453,8.827ZM3.926,7.71a.336.336,0,0,0,0,.671h.527a.336.336,0,0,0,0-.671ZM6.264,3.8V5.867H6.7A.751.751,0,0,0,7.428,5.1v-.53A.751.751,0,0,0,6.7,3.8Zm-5.113,0a.75.75,0,0,0-.727.77V5.1a.75.75,0,0,0,.727.769h.436V3.8Z" transform="translate(0.031)" fill="#192f48" stroke="#192f48" stroke-miterlimit="10" stroke-width="0.5"/></g><path d="M68.336,11.568a8.514,8.514,0,0,1-2.528-.383,7.882,7.882,0,0,1-2.24-1.088l.977-1.9a2.814,2.814,0,0,0,.519.376,8.158,8.158,0,0,0,.888.464,6.925,6.925,0,0,0,1.136.392,5.145,5.145,0,0,0,1.28.16c1.211,0,1.824-.393,1.824-1.168a.989.989,0,0,0-.208-.64,1.725,1.725,0,0,0-.592-.448,5.594,5.594,0,0,0-.928-.352c-.38-.111-.789-.224-1.216-.336a10.307,10.307,0,0,1-1.416-.488,3.964,3.964,0,0,1-1-.616,2.252,2.252,0,0,1-.6-.832,3.024,3.024,0,0,1-.2-1.137,3.493,3.493,0,0,1,.319-1.535A3.113,3.113,0,0,1,65.24.912,4.068,4.068,0,0,1,66.56.232,5.554,5.554,0,0,1,68.176,0a6.36,6.36,0,0,1,2.208.376,8.373,8.373,0,0,1,1.76.887l-.976,1.793a2.5,2.5,0,0,0-.409-.3,4.953,4.953,0,0,0-.72-.376,6.38,6.38,0,0,0-.92-.312,4.175,4.175,0,0,0-1.008-.128,2.312,2.312,0,0,0-1.36.336,1.118,1.118,0,0,0-.448.944.974.974,0,0,0,.168.584,1.466,1.466,0,0,0,.488.409,3.973,3.973,0,0,0,.808.319c.293.088.652.185,1.128.3.571.156,1.08.318,1.512.48a4.2,4.2,0,0,1,1.152.64,2.673,2.673,0,0,1,.728.921,3.116,3.116,0,0,1,.256,1.319A3.352,3.352,0,0,1,72.2,9.752a2.93,2.93,0,0,1-.92,1.048,3.964,3.964,0,0,1-1.344.584A7.116,7.116,0,0,1,68.336,11.568Zm55.648-.048a4.905,4.905,0,0,1-2.192-.488,5.5,5.5,0,0,1-1.7-1.3,5.868,5.868,0,0,1-1.1-1.849,6.1,6.1,0,0,1-.383-2.128,5.981,5.981,0,0,1,1.544-4.016,5.507,5.507,0,0,1,1.72-1.273A4.971,4.971,0,0,1,124.032,0a4.775,4.775,0,0,1,2.192.5,5.518,5.518,0,0,1,1.7,1.32,5.993,5.993,0,0,1,1.088,1.856,6.1,6.1,0,0,1,.384,2.112,5.838,5.838,0,0,1-.408,2.167,5.964,5.964,0,0,1-1.129,1.824,5.5,5.5,0,0,1-1.712,1.265A4.971,4.971,0,0,1,123.984,11.52ZM124,1.968a2.707,2.707,0,0,0-1.352.328,3.226,3.226,0,0,0-.993.864,3.871,3.871,0,0,0-.616,1.216,4.756,4.756,0,0,0,.008,2.808,3.829,3.829,0,0,0,.624,1.216,3.146,3.146,0,0,0,1,.849,2.782,2.782,0,0,0,1.345.319,2.712,2.712,0,0,0,1.352-.328,3.084,3.084,0,0,0,.984-.872,4.094,4.094,0,0,0,.608-1.224,4.763,4.763,0,0,0,.208-1.384,4.61,4.61,0,0,0-.224-1.424,4.012,4.012,0,0,0-.632-1.216,3.092,3.092,0,0,0-.993-.841A2.751,2.751,0,0,0,124,1.968ZM82.324,11.52a5.146,5.146,0,0,1-2.312-.472A4.264,4.264,0,0,1,78.468,9.8,4.984,4.984,0,0,1,77.612,8a8.517,8.517,0,0,1-.265-2.129V.08h2.209V5.872a7.021,7.021,0,0,0,.136,1.384,3.367,3.367,0,0,0,.464,1.176,2.548,2.548,0,0,0,.856.823,2.866,2.866,0,0,0,2.616-.007,2.61,2.61,0,0,0,.864-.832,3.47,3.47,0,0,0,.464-1.176,6.989,6.989,0,0,0,.136-1.368V.08h2.192V5.872A8.4,8.4,0,0,1,87,8.064a5.048,5.048,0,0,1-.88,1.792,4.227,4.227,0,0,1-1.544,1.216A5.3,5.3,0,0,1,82.324,11.52Zm-56.688,0a4.849,4.849,0,0,1-2.191-.488,5.488,5.488,0,0,1-1.7-1.3,5.827,5.827,0,0,1-1.1-1.849A6.222,6.222,0,0,1,20.26,5.76a5.842,5.842,0,0,1,.408-2.176A5.958,5.958,0,0,1,21.8,1.744,5.612,5.612,0,0,1,23.524.472,4.915,4.915,0,0,1,25.684,0a4.714,4.714,0,0,1,2.191.5,5.491,5.491,0,0,1,1.7,1.32,6.158,6.158,0,0,1,1.472,3.968,5.77,5.77,0,0,1-.408,2.167,5.931,5.931,0,0,1-1.128,1.824A5.49,5.49,0,0,1,27.8,11.048,4.909,4.909,0,0,1,25.636,11.52Zm.016-9.552A2.665,2.665,0,0,0,24.3,2.3a3.235,3.235,0,0,0-.992.864,3.868,3.868,0,0,0-.616,1.216A4.757,4.757,0,0,0,22.7,7.184,3.846,3.846,0,0,0,23.324,8.4a3.164,3.164,0,0,0,1,.849,2.726,2.726,0,0,0,1.344.319A2.66,2.66,0,0,0,27.02,9.24,3.1,3.1,0,0,0,28,8.368a3.916,3.916,0,0,0,.607-1.224A4.856,4.856,0,0,0,28.82,5.76,4.7,4.7,0,0,0,28.6,4.336a4.013,4.013,0,0,0-.632-1.216,3.106,3.106,0,0,0-.992-.841A2.708,2.708,0,0,0,25.652,1.968Zm110.96,9.473H134.4V.08h5.024a3.229,3.229,0,0,1,1.448.328,3.759,3.759,0,0,1,1.144.864,4.109,4.109,0,0,1,.752,1.216,3.7,3.7,0,0,1,.272,1.368,3.8,3.8,0,0,1-.553,2.009,3.175,3.175,0,0,1-1.5,1.3l2.671,4.27-2.494,0-2.385-3.808h-2.176V11.44Zm0-9.425V5.7h2.768a1.171,1.171,0,0,0,.568-.144,1.469,1.469,0,0,0,.455-.392,1.926,1.926,0,0,0,.3-.584,2.265,2.265,0,0,0,.112-.72,2.056,2.056,0,0,0-.129-.735,1.89,1.89,0,0,0-.344-.584,1.557,1.557,0,0,0-.5-.384,1.288,1.288,0,0,0-.568-.136h-2.672ZM6.464,11.441H4.608L0,.08H2.384L5.616,8.912,7.024,5.28,5.12.112H7.152l1.28,3.76L9.712.112H11.76L9.824,5.28l1.44,3.632L14.48.08h2.4L12.256,11.439H10.4L8.432,6.672,6.464,11.44Zm101.772,0h-2.208V.08h4.816a3.207,3.207,0,0,1,1.448.328,3.717,3.717,0,0,1,1.144.864,4.167,4.167,0,0,1,.752,1.216,3.724,3.724,0,0,1,.272,1.368,3.961,3.961,0,0,1-.257,1.4,3.89,3.89,0,0,1-.72,1.208,3.509,3.509,0,0,1-1.12.848,3.256,3.256,0,0,1-1.44.32h-2.688v3.807Zm0-9.424V5.7H110.8a1.272,1.272,0,0,0,1.016-.5,2.053,2.053,0,0,0,.408-1.345,2.277,2.277,0,0,0-.128-.776,1.9,1.9,0,0,0-.337-.584,1.35,1.35,0,0,0-.488-.36,1.46,1.46,0,0,0-.568-.12ZM95,11.44H92.792V.08h4.816a3.2,3.2,0,0,1,1.448.328,3.688,3.688,0,0,1,1.144.864,4.2,4.2,0,0,1,.752,1.216,3.738,3.738,0,0,1,.272,1.368,4.04,4.04,0,0,1-.256,1.4,3.924,3.924,0,0,1-.72,1.208,3.555,3.555,0,0,1-1.12.848,3.256,3.256,0,0,1-1.44.32H95v3.807Zm0-9.424V5.7h2.56a1.27,1.27,0,0,0,1.016-.5,2.053,2.053,0,0,0,.408-1.345,2.27,2.27,0,0,0-.128-.776A1.939,1.939,0,0,0,98.52,2.5a1.348,1.348,0,0,0-.489-.36,1.474,1.474,0,0,0-.568-.12Zm58.368,9.424H151.16V2.016h-3.632V.08h9.456V2.016h-3.616v9.423Zm-93.916,0H51.564V.08h7.744V2.016H53.772V4.752h4.784V6.544H53.772V9.5h5.68v1.935Zm-15.348,0-5.84-7.28v7.28H36.056V.08h1.712l5.92,7.456V.1H45.9V11.439Z" transform="translate(43.984 16.56)" fill="#314458"/></g></svg>