<?xml version="1.0" encoding="UTF-8"?>
<svg width="20px" height="20px" viewBox="0 0 20 20" version="1.1" xmlns="http://www.w3.org/2000/svg" xmlns:xlink="http://www.w3.org/1999/xlink">
    <!-- Generator: Sketch 57.1 (83088) - https://sketch.com -->
    <title>admin-user-icon</title>
    <desc>Created with Sketch.</desc>
    <g id="Page-1" stroke="none" stroke-width="1" fill="none" fill-rule="evenodd">
        <g id="Desktop-HD-Copy-40" transform="translate(-440.000000, -1497.000000)">
            <g id="Group-53" transform="translate(409.000000, 1370.000000)">
                <g id="Group" transform="translate(31.000000, 127.000000)">
                    <g id="admin-user-icon">
                        <path d="M10,0 C15.5228475,0 20,4.47715252 20,10 C20,15.5228475 15.5228475,20 10,20 C4.47715252,20 0,15.5228475 0,10 C0,4.47715252 4.47715252,0 10,0 Z M10,0.8 C4.91898032,0.8 0.8,4.91898032 0.8,10 C0.8,15.0810197 4.91898032,19.2 10,19.2 C15.0810197,19.2 19.2,15.0810197 19.2,10 C19.2,4.91898032 15.0810197,0.8 10,0.8 Z" id="Combined-Shape" fill="#000000" fill-rule="nonzero"></path>
                        <path d="M16.6106962,17.2 C15.8911729,14.2165078 13.204433,12 10,12 C6.795567,12 4.10882712,14.2165078 3.38930381,17.2 L4.21569308,17.2 C4.9158892,14.6630504 7.24037524,12.8 10,12.8 C12.7596248,12.8 15.0841108,14.6630504 15.7843069,17.2 L16.6106962,17.2 Z" id="Path" fill="#000000"></path>
                        <path d="M10,10.8 C11.7673112,10.8 13.2,9.3673112 13.2,7.6 C13.2,5.8326888 11.7673112,4.4 10,4.4 C8.2326888,4.4 6.8,5.8326888 6.8,7.6 C6.8,9.3673112 8.2326888,10.8 10,10.8 Z" id="Shape" stroke="#000000" fill-rule="nonzero"></path>
                    </g>
                </g>
            </g>
        </g>
    </g>
</svg>