<svg xmlns="http://www.w3.org/2000/svg" width="68.519" height="76.078" viewBox="0 0 68.519 76.078"><g transform="translate(0.766 1.14)"><path d="M0,40.674A33.205,33.205,0,0,1,30.8,7.5L23.83,2.849A1.556,1.556,0,0,1,25.55.257L34.9,6.488a1.552,1.552,0,0,1,.43,2.16L29.1,17.93a1.56,1.56,0,0,1-1.293.695,1.532,1.532,0,0,1-.866-.265,1.558,1.558,0,0,1-.427-2.16l3.711-5.527a30.165,30.165,0,1,0,22.919,7.348A1.559,1.559,0,1,1,55.2,15.679,33.26,33.26,0,1,1,0,40.674Z" transform="translate(0.234)" fill="#464646" stroke="#464646" stroke-miterlimit="10" stroke-width="2"/><path d="M1.554,20.247a1.553,1.553,0,0,1-1.1-2.655L17.594.456a1.558,1.558,0,0,1,2.2,2.2L2.654,19.8A1.562,1.562,0,0,1,1.554,20.247Z" transform="translate(14.804 39.52)" fill="#ff8b8b" stroke="#ff8b8b" stroke-miterlimit="10" stroke-width="3"/><path d="M12.009,13.564a1.57,1.57,0,0,1-1.1-.455L.456,2.659a1.558,1.558,0,0,1,2.2-2.2l10.45,10.45a1.556,1.556,0,0,1-1.1,2.658Z" transform="translate(31.936 39.52)" fill="#ff8b8b" stroke="#ff8b8b" stroke-miterlimit="10" stroke-width="3"/></g></svg>