<svg xmlns="http://www.w3.org/2000/svg" width="74.586" height="74.562" viewBox="0 0 74.586 74.562"><g transform="translate(-0.699 -0.362)"><path d="M73.412,56.888l0-.024L57.394,45.417l-.022.013a2.724,2.724,0,0,0-3.552.265,2.9,2.9,0,0,0-.252.313v0a1.318,1.318,0,0,0-.14.2c-1.074,1.536-1.064,1.732-1.934,3.07a58.182,58.182,0,0,0-4.064,8.31c-4.5-.694-11.2-4.6-18.523-11.928S17.67,31.64,16.986,27.145A59.7,59.7,0,0,0,25.3,23.082c1.327-.873,1.522-.864,3.069-1.932.064-.049.127-.091.2-.137,0,0,.006,0,.006-.009a2.145,2.145,0,0,0,.308-.252,2.737,2.737,0,0,0,.268-3.552v-.018L17.707,1.167H17.68a3.5,3.5,0,0,0-.3-.375,2.746,2.746,0,0,0-3.6-.228C6.11,5.823-.829,11.6.081,18.432,1.057,25.766,9.8,41.921,21.225,53.345S48.82,73.516,56.147,74.48c6.838.918,12.613-6.018,17.874-13.69a2.675,2.675,0,0,0-.609-3.9Z" transform="translate(0.699 0.362)" fill="#cbd3d9"/><g transform="translate(42 19)"><path d="M.266.266,15.672,16.734" fill="none" stroke="#cbd3d9" stroke-linecap="round" stroke-miterlimit="10" stroke-width="3"/><path d="M-.266.266-15.672,16.734" transform="translate(15.938)" fill="none" stroke="#cbd3d9" stroke-linecap="round" stroke-miterlimit="10" stroke-width="3"/></g></g></svg>