<svg xmlns="http://www.w3.org/2000/svg" width="72.546" height="66.818" viewBox="0 0 72.546 66.818"><g transform="translate(-0.909 -0.591)"><path d="M41.364,66.818a43,43,0,0,1-10.851-1.45,5.241,5.241,0,0,0-.6-.14v-.319C22.318,60.051,17.318,53.78,13.046,47.727l-2.864-4.136C6.216,37.462,1.831,30.156,0,21v-.318a8.6,8.6,0,0,0,.271-1.174C.807,16.825,2.23,9.7,6.364,3.5V3.182C9.194.981,11.451,0,13.682,0A6.719,6.719,0,0,1,17.5,1.273l.319.319,7.954,11.454a4.5,4.5,0,0,1,.395,3.757,3.815,3.815,0,0,1-2.3,2.289L18.137,22.91a1.117,1.117,0,0,0-.319.636c-.832,3.321,3.032,9.8,5.409,13.363a49.775,49.775,0,0,0,7.2,8.392c1.513,1.28,2.319,1.472,2.665,1.472l.318-.319h.636l5.409-3.5a4.106,4.106,0,0,1,2.29-.662,5.45,5.45,0,0,1,4.074,1.935l8.273,12.091a3.36,3.36,0,0,1,.247,2.077A7.515,7.515,0,0,1,52.955,61.8a15.068,15.068,0,0,1-4.591,4.06l-.636.318A39.051,39.051,0,0,1,41.364,66.818ZM14.1,3.012c-1.486,0-3.339.806-5.507,2.4a33.675,33.675,0,0,0-4.256,9.148,25,25,0,0,0-1.153,5.807C4.931,29.4,9.319,36.782,12.523,42.173c.295.5.573.963.84,1.418l.955,1.273q.458.6.927,1.217c1.926,2.533,4.108,5.4,6.68,8.2a52.883,52.883,0,0,0,9.257,8.081,37.341,37.341,0,0,0,10.5,1.591,28.106,28.106,0,0,0,5.409-.636,12.238,12.238,0,0,0,3.133-2.727,4.368,4.368,0,0,0,.973-2.144,1.468,1.468,0,0,0-.287-1.175L42.954,45.818c-.446-.669-.852-.967-1.318-.967a1.661,1.661,0,0,0-.909.331l-5.091,3.5a2.3,2.3,0,0,1-2.227,1.273c-3.184,0-7.026-3.539-12.091-11.137a52.168,52.168,0,0,1-5.25-9.9c-.956-2.668-1.112-4.737-.477-6.324A7.626,7.626,0,0,1,17.133,21c.152-.126.283-.234.367-.318l5.41-3.5c1.043-.7,1.227-1.341.636-2.228L15.909,3.5l-.092-.047A3.427,3.427,0,0,0,14.1,3.012Z" transform="translate(0.909 0.591)" fill="#464646"/><path d="M44.148,30.545H6.6a1.506,1.506,0,0,1-1.591-1.59V10.5L.238,2.545a1.425,1.425,0,0,1,0-1.59C.239.3.9,0,1.511,0H44.148c.838,0,1.19.746,1.473,1.346.04.085.079.167.118.245V28.955A1.506,1.506,0,0,1,44.148,30.545ZM3.739,2.864,7.556,8.591a1.174,1.174,0,0,1,.319.955V27.682H42.556V2.864H3.739Z" transform="translate(27.716 1.864)" fill="#ff8b8b"/><path d="M1.591,3.182h14a1.5,1.5,0,0,0,1.591-1.591A1.5,1.5,0,0,0,15.591,0h-14A1.5,1.5,0,0,0,0,1.591,1.7,1.7,0,0,0,1.591,3.182Z" transform="translate(44.818 12.045)" fill="#ff8b8b"/><path d="M1.591,3.182h14a1.5,1.5,0,0,0,1.591-1.591A1.5,1.5,0,0,0,15.591,0h-14A1.5,1.5,0,0,0,0,1.591,1.7,1.7,0,0,0,1.591,3.182Z" transform="translate(44.818 19.045)" fill="#ff8b8b"/></g></svg>