<?xml version="1.0" encoding="UTF-8"?>
<svg width="40px" height="48px" viewBox="0 0 40 48" version="1.1" xmlns="http://www.w3.org/2000/svg" xmlns:xlink="http://www.w3.org/1999/xlink">
    <!-- Generator: Sketch 57.1 (83088) - https://sketch.com -->
    <title>call-dial-icon</title>
    <desc>Created with Sketch.</desc>
    <g id="Page-1" stroke="none" stroke-width="1" fill="none" fill-rule="evenodd">
        <g id="Desktop-HD-Copy-49" transform="translate(-1094.000000, -245.000000)" fill-rule="nonzero">
            <g id="Group-28" transform="translate(1071.000000, 146.000000)">
                <g id="Group-27" transform="translate(24.000000, 89.000000)">
                    <g id="call-dial-icon" transform="translate(0.000000, 10.000000)">
                        <path d="M38.1580138,38.5191666 C38.0498522,38.1932549 37.3616897,37.7131393 36.0940018,37.0799613 C35.7505864,36.8803808 35.2612433,36.6091683 34.6280653,36.265087 C33.9943165,35.9210057 33.4190719,35.6039411 32.9033781,35.3141784 C32.3866379,35.0245109 31.9025268,34.7438806 31.4501889,34.472668 C31.3778909,34.4183494 31.1515792,34.2601501 30.771349,33.9970235 C30.3907382,33.734658 30.0697732,33.5399291 29.8067418,33.412932 C29.5442811,33.2866959 29.2861013,33.2231498 29.0325827,33.2231498 C28.6705221,33.2231498 28.2182792,33.4813297 27.6752834,33.9970235 C27.1322876,34.5133832 26.6341926,35.0742633 26.1817595,35.681376 C25.7292313,36.2882033 25.2493059,36.8490834 24.7428396,37.3651577 C24.2356122,37.8814223 23.8188525,38.1393168 23.4933213,38.1393168 C23.3298899,38.1393168 23.1261237,38.0937501 22.8819278,38.0038532 C22.637827,37.9133856 22.4521354,37.8358556 22.3246627,37.7733559 C22.1983315,37.7095244 21.9815327,37.5831932 21.6735053,37.3924597 C21.3649071,37.202297 21.1932945,37.0981309 21.1571455,37.0799613 C18.6766592,35.703541 16.5492913,34.1282063 14.7746615,32.3543375 C13.0006024,30.5794222 11.4250774,28.4522446 10.0490377,25.9714729 C10.0309632,25.9352288 9.92660677,25.7631406 9.73663433,25.4554937 C9.54637651,25.1475614 9.41956967,24.9305723 9.35621382,24.8034801 C9.29285796,24.6768635 9.21589867,24.4911719 9.12552621,24.2467857 C9.03515374,24.0023996 8.98977725,23.7988237 8.98977725,23.6356776 C8.98977725,23.3099562 9.24786199,22.8932916 9.76393633,22.3862545 C10.2799155,21.8795028 10.8413664,21.3994823 11.4477181,20.9471443 C12.0545454,20.4948063 12.6154254,19.9967114 13.1315949,19.4537155 C13.6475741,18.9104343 13.9055637,18.4580012 13.9055637,18.0959406 C13.9055637,17.8426123 13.8422079,17.5843373 13.7155913,17.3218766 C13.5888796,17.0588452 13.3942458,16.7378802 13.1315949,16.3574597 C12.8688489,15.9772295 12.7104592,15.751108 12.6560455,15.6783344 C12.3847378,15.2259964 12.1043929,14.7416952 11.8143449,14.2256208 C11.5242968,13.7096416 11.2077078,13.1344922 10.8635314,12.5008385 C10.5196404,11.8674702 10.2482376,11.3784125 10.0488474,11.0344264 C9.41547913,9.76721413 8.93574403,9.07886132 8.60973725,8.97060462 C8.48293041,8.91628602 8.29267259,8.88888889 8.03943943,8.88888889 C7.55028656,8.88888889 6.91216183,8.97926135 6.12458957,9.16057706 C5.33673193,9.34160738 4.71677681,9.53148469 4.26405832,9.73097001 C3.35871647,10.11101 2.39915114,11.2154567 1.38507695,13.0439295 C0.461660607,14.7455954 -4.45865567e-13,16.4298528 -4.45865567e-13,18.0954649 C-4.45865567e-13,18.5839519 0.0316779275,19.0592159 0.0950337824,19.5213522 C0.158389637,19.9830128 0.271593042,20.5036533 0.434739125,21.0831786 C0.597599821,21.6625137 0.728972848,22.0928769 0.828287431,22.3731267 C0.927697143,22.6535667 1.11329365,23.1559425 1.38498182,23.8804443 C1.65628948,24.6047558 1.81943556,25.0481517 1.87375417,25.2111075 C2.50740785,26.9856422 3.25883112,28.569824 4.12783372,29.9641284 C5.55762126,32.281659 7.50881036,34.6767196 9.98025948,37.1483589 C12.4518037,39.6198081 14.8463887,41.570902 17.1641095,43.0012603 C18.5582237,43.8701678 20.1429762,44.621496 21.9172255,45.2556253 C22.0802765,45.3096585 22.5236723,45.4724241 23.2476985,45.744683 C23.97201,46.0161809 24.4745761,46.2017774 24.7550161,46.3013774 C25.0355512,46.4010725 25.4660096,46.5325407 26.044869,46.6956867 C26.6249651,46.8588328 27.14513,46.9720362 27.6067906,47.0358677 C28.0687366,47.0983674 28.5440958,47.1306161 29.0326778,47.1306161 C30.6981948,47.1306161 32.3825473,46.6686701 34.0844987,45.7453489 C35.9127812,44.7316552 37.0169425,43.7718996 37.3971728,42.8658919 C37.5971337,42.4136491 37.7865354,41.7935037 37.9675657,41.005646 C38.1491668,40.2181689 38.2393578,39.5801393 38.2393578,39.0910816 C38.2399198,38.836802 38.2126178,38.6470198 38.1580138,38.5191666 Z" id="Path-Copy" stroke="#595959"></path>
                        <path d="M24.2408027,2.48689958e-14 C23.1353896,2.48689958e-14 22.2222222,0.913167348 22.2222222,2.01858045 C22.2222222,3.12399356 23.1353896,4.03716091 24.2408027,4.03716091 C25.3462158,4.03716091 26.2593831,3.12399356 26.2593831,2.01858045 C26.2593831,0.913167348 25.3702465,2.48689958e-14 24.2408027,2.48689958e-14 Z M29.9120525,2.48689958e-14 C28.8066394,2.48689958e-14 27.8934721,0.913167348 27.8934721,2.01858045 C27.8934721,3.12399356 28.8066394,4.03716091 29.9120525,4.03716091 C31.0174656,4.03716091 31.930633,3.12399356 31.930633,2.01858045 C31.930633,0.913167348 31.0174656,2.48689958e-14 29.9120525,2.48689958e-14 Z M35.5592716,4.03716091 C36.6646848,4.03716091 37.5778521,3.12399356 37.5778521,2.01858045 C37.5778521,0.913167348 36.6646848,2.30926389e-14 35.5592716,2.30926389e-14 C34.4538585,2.30926389e-14 33.5406912,0.913167348 33.5406912,2.01858045 C33.5647219,3.12399356 34.4538585,4.03716091 35.5592716,4.03716091 Z M24.2408027,5.67124985 C23.1353896,5.67124985 22.2222222,6.58441719 22.2222222,7.6898303 C22.2222222,8.7952434 23.1353896,9.70841075 24.2408027,9.70841075 C25.3462158,9.70841075 26.2593831,8.7952434 26.2593831,7.66579958 C26.2593831,6.53635575 25.3702465,5.67124985 24.2408027,5.67124985 Z M29.9120525,5.67124985 C28.8066394,5.67124985 27.8934721,6.58441719 27.8934721,7.6898303 C27.8934721,8.7952434 28.8066394,9.70841075 29.9120525,9.70841075 C31.0174656,9.70841075 31.930633,8.7952434 31.930633,7.6898303 C31.930633,6.58441719 31.0174656,5.67124985 29.9120525,5.67124985 Z M35.5592716,5.67124985 C34.4538585,5.67124985 33.5406912,6.58441719 33.5406912,7.6898303 C33.5406912,8.7952434 34.4538585,9.70841075 35.5592716,9.70841075 C36.6646848,9.70841075 37.5778521,8.7952434 37.5778521,7.6898303 C37.5778521,6.58441719 36.6887155,5.67124985 35.5592716,5.67124985 Z M24.2408027,11.7510219 C23.1353896,11.7510219 22.2222222,12.6641893 22.2222222,13.7696024 C22.2222222,14.8750155 23.1353896,15.7881828 24.2408027,15.7881828 C25.3462158,15.7881828 26.2593831,14.8750155 26.2593831,13.7696024 C26.2593831,12.6641893 25.3702465,11.7510219 24.2408027,11.7510219 Z M29.9120525,11.7510219 C28.8066394,11.7510219 27.8934721,12.6641893 27.8934721,13.7696024 C27.8934721,14.8750155 28.8066394,15.7881828 29.9120525,15.7881828 C31.0174656,15.7881828 31.930633,14.8750155 31.930633,13.7696024 C31.930633,12.6641893 31.0174656,11.7510219 29.9120525,11.7510219 Z M29.9120525,17.5183946 C28.8066394,17.5183946 27.8934721,18.431562 27.8934721,19.5369751 C27.8934721,20.6423882 28.8066394,21.5555556 29.9120525,21.5555556 C31.0174656,21.5555556 31.930633,20.6423882 31.930633,19.5369751 C31.930633,18.431562 31.0174656,17.5183946 29.9120525,17.5183946 Z M35.5592716,11.7510219 C34.4538585,11.7510219 33.5406912,12.6641893 33.5406912,13.7696024 C33.5406912,14.8750155 34.4538585,15.7881828 35.5592716,15.7881828 C36.6646848,15.7881828 37.5778521,14.8750155 37.5778521,13.7696024 C37.5778521,12.6641893 36.6887155,11.7510219 35.5592716,11.7510219 Z" id="Shape" fill="#595959"></path>
                    </g>
                </g>
            </g>
        </g>
    </g>
</svg>