<?xml version="1.0" encoding="UTF-8"?>
<svg width="15px" height="15px" viewBox="0 0 15 15" version="1.1" xmlns="http://www.w3.org/2000/svg" xmlns:xlink="http://www.w3.org/1999/xlink">
    <!-- Generator: Sketch 57.1 (83088) - https://sketch.com -->
    <title>call-tab-icon</title>
    <desc>Created with Sketch.</desc>
    <g id="Page-1" stroke="none" stroke-width="1" fill="none" fill-rule="evenodd">
        <g id="Desktop-HD-Copy-44" transform="translate(-197.000000, -105.000000)" fill-rule="nonzero" stroke="#3A3E41">
            <path d="M211.179615,116.234171 C211.142257,116.121603 210.904568,115.955773 210.466714,115.737076 C210.3481,115.668142 210.179083,115.574466 209.960386,115.455622 C209.741492,115.336778 209.542805,115.227265 209.364686,115.127182 C209.186207,115.027132 209.018997,114.930204 208.862761,114.836528 C208.83779,114.817767 208.759623,114.763125 208.628293,114.672243 C208.496831,114.581623 208.385971,114.514364 208.295121,114.4705 C208.204469,114.426898 208.115294,114.40495 208.02773,114.40495 C207.902676,114.40495 207.746473,114.494124 207.558925,114.672243 C207.371376,114.850591 207.199336,115.044317 207.043068,115.254011 C206.886767,115.463606 206.721003,115.657332 206.546071,115.835582 C206.370877,116.013897 206.22693,116.102973 206.114493,116.102973 C206.058044,116.102973 205.987664,116.087234 205.90332,116.056184 C205.819009,116.024937 205.754872,115.998159 205.710843,115.976572 C205.667209,115.954525 205.592328,115.91089 205.485936,115.845012 C205.379348,115.77933 205.320073,115.743352 205.307588,115.737076 C204.450838,115.261666 203.716055,114.717553 203.103105,114.104866 C202.490353,113.491818 201.946173,112.7571 201.470895,111.900252 C201.464652,111.887733 201.428608,111.828295 201.362992,111.722035 C201.297278,111.615676 201.253479,111.540729 201.231596,111.496832 C201.209713,111.453099 201.183132,111.388962 201.151918,111.304552 C201.120704,111.220142 201.105031,111.149828 201.105031,111.093478 C201.105031,110.980975 201.194172,110.837061 201.372422,110.661932 C201.550639,110.486903 201.744562,110.321106 201.953993,110.16487 C202.163589,110.008634 202.357314,109.836594 202.535597,109.649046 C202.713814,109.461399 202.802922,109.305131 202.802922,109.180076 C202.802922,109.092578 202.78104,109.003371 202.737307,108.912718 C202.693541,108.821868 202.626315,108.711008 202.535597,108.579612 C202.444845,108.448283 202.390138,108.370181 202.371344,108.345046 C202.277636,108.18881 202.180806,108.021534 202.080624,107.843284 C201.980443,107.665067 201.871094,107.466413 201.752217,107.247552 C201.633439,107.028789 201.539698,106.859871 201.470829,106.741059 C201.252066,106.30337 201.086368,106.065616 200.973767,106.028224 C200.929968,106.009463 200.864254,106 200.776788,106 C200.607837,106 200.387431,106.031214 200.115407,106.09384 C199.843284,106.156367 199.629155,106.22195 199.472788,106.290851 C199.160086,106.422115 198.828657,106.803587 198.4784,107.435133 C198.159456,108.022881 198,108.604617 198,109.179912 C198,109.348633 198.010941,109.512788 198.032824,109.672407 C198.054707,109.831863 198.093807,110.01169 198.150157,110.211856 C198.206408,110.411956 198.251784,110.560601 198.286087,110.657398 C198.320423,110.754261 198.384527,110.927779 198.478367,111.178019 C198.572075,111.428193 198.628425,111.58134 198.647187,111.637625 C198.866048,112.250541 199.125586,112.797711 199.425736,113.279298 C199.919579,114.079763 200.593511,114.907007 201.447139,115.7607 C202.3008,116.614328 203.127879,117.288228 203.92841,117.782268 C204.409931,118.082384 204.957298,118.34189 205.570116,118.560916 C205.626433,118.579578 205.77958,118.635797 206.029656,118.729834 C206.27983,118.823608 206.453414,118.887712 206.550277,118.922114 C206.647173,118.956548 206.795851,119.001957 206.995787,119.058307 C207.196149,119.114657 207.375812,119.153757 207.535268,119.175804 C207.694822,119.197391 207.859009,119.208529 208.027763,119.208529 C208.603025,119.208529 209.184794,119.048975 209.77264,118.730064 C210.404121,118.379939 210.785494,118.048443 210.916824,117.735512 C210.98589,117.579309 211.051308,117.365114 211.113835,117.092991 C211.176559,116.821 211.207711,116.600627 211.207711,116.431708 C211.207905,116.343881 211.198475,116.278331 211.179615,116.234171 Z" id="call-tab-icon"></path>
        </g>
    </g>
</svg>