<?xml version="1.0" encoding="UTF-8"?>
<svg width="26px" height="25px" viewBox="0 0 26 25" version="1.1" xmlns="http://www.w3.org/2000/svg" xmlns:xlink="http://www.w3.org/1999/xlink">
    <!-- Generator: Sketch 57.1 (83088) - https://sketch.com -->
    <title>cancel-video-icon</title>
    <desc>Created with Sketch.</desc>
    <g id="Page-1" stroke="none" stroke-width="1" fill="none" fill-rule="evenodd">
        <g id="Desktop-HD-Copy-47" transform="translate(-597.000000, -914.000000)" fill="#FFFFFF" fill-rule="nonzero">
            <g id="Group-23" transform="translate(470.000000, 896.000000)">
                <g id="Group-20" transform="translate(110.000000, 0.000000)">
                    <path d="M17.3907508,18.3628401 C17.8745376,17.8790533 18.6932536,17.8790533 19.2142547,18.3628401 L19.2142547,18.3628401 L19.6608271,18.7721981 L23.0473343,22.1587053 L37.4865079,36.5978789 L40.8358008,39.9471717 C40.9846582,40.0960292 41.0963013,40.282101 41.2079444,40.5426016 C41.3940162,40.989174 41.2823731,41.4729607 40.9102295,41.8451044 C40.6497289,42.1056049 40.3147996,42.217248 39.9798704,42.217248 C39.6449411,42.217248 39.3100118,42.1056049 39.0495112,41.8451044 L39.0495112,41.8451044 L35.8118615,38.6074546 C35.3652891,39.5005994 34.43493,40.0960292 33.3557134,40.0960292 L33.3557134,40.0960292 L20.7028293,40.0960292 C19.1770404,40.0960292 17.9489663,38.8679552 17.9489663,37.3421662 L17.9489663,37.3421662 L17.9489663,24.9497827 C17.9489663,23.7961373 18.6188249,22.8285639 19.6236127,22.4192058 L19.6236127,22.4192058 L17.3907508,20.1863439 C16.8697497,19.7025572 16.8697497,18.8838412 17.3907508,18.3628401 Z M22.0053321,24.7637108 L20.7028293,24.7637108 C20.6284006,24.7637108 20.5539719,24.8381396 20.5539719,24.9125683 L20.5539719,24.9125683 L20.5539719,37.3049518 C20.5539719,37.3793806 20.6284006,37.4538093 20.7028293,37.4538093 L20.7028293,37.4538093 L33.318499,37.4538093 C33.3929278,37.4538093 33.4673565,37.3793806 33.4673565,37.3049518 L33.4673565,37.3049518 L33.5045709,37.3049518 L33.5045709,36.2629496 L22.0053321,24.7637108 Z M33.318499,22.1959196 C34.844288,22.1959196 36.072362,23.4239937 36.072362,24.9497827 L36.072362,24.9497827 L36.072362,26.4755716 L39.1983687,24.6520677 C39.4588693,24.4659959 39.7937985,24.3915672 40.1287278,24.3915672 C41.17073,24.3915672 42.0266604,25.2102832 42.0266604,26.2894998 L42.0266604,26.2894998 L42.0266604,35.9652347 C42.0266604,36.4490214 41.8405886,36.8955938 41.5428737,37.2305231 L41.5428737,37.2305231 L39.4216549,34.774375 L39.4216549,27.5175738 L37.1143643,28.857291 C36.1840051,29.3782921 34.9931455,29.2294346 34.2116438,28.4851473 C33.7278571,28.0385749 33.4673565,27.4059307 33.4673565,26.7360722 L33.4673565,26.7360722 L33.4673565,24.9497827 C33.4673565,24.8753539 33.3929278,24.8009252 33.318499,24.8009252 L33.318499,24.8009252 L29.1132758,24.8009252 L26.5082702,22.1959196 Z" id="cancel-video-icon"></path>
                </g>
            </g>
        </g>
    </g>
</svg>