<?xml version="1.0" encoding="UTF-8"?>
<svg width="29px" height="24px" viewBox="0 0 29 24" version="1.1" xmlns="http://www.w3.org/2000/svg" xmlns:xlink="http://www.w3.org/1999/xlink">
    <!-- Generator: Sketch 57.1 (83088) - https://sketch.com -->
    <title>chat-info-icon</title>
    <desc>Created with Sketch.</desc>
    <g id="Page-1" stroke="none" stroke-width="1" fill="none" fill-rule="evenodd">
        <g id="Pricing-Copy-4" transform="translate(-606.000000, -1133.000000)" fill="#000000" fill-rule="nonzero">
            <g id="Group-38" transform="translate(0.000000, 836.000000)">
                <g id="Group-18" transform="translate(250.000000, 70.000000)">
                    <g id="Group-13" transform="translate(332.000000, 211.000000)">
                        <g id="chat-info-icon" transform="translate(24.000000, 16.000000)">
                            <g id="Group" transform="translate(0.000000, 0.212607)">
                                <path d="M10.5454545,0.120726667 C9.46144344,0.120726667 8.56818182,1.02425333 8.56818182,2.12072667 L8.56818182,3.45406 L1.97727273,3.45406 C0.893261131,3.45406 0,4.35759 0,5.45406 L0,17.45406 C0,18.5505267 0.893261131,19.45406 1.97727273,19.45406 L3.95454545,19.45406 L3.95454545,22.7873933 C3.95651497,23.0380174 4.09727295,23.2663522 4.31889756,23.3784382 C4.54052217,23.4905242 4.80556907,23.467424 5.00497159,23.3186433 L10.2776989,19.3186433 C10.4965306,19.1896496 10.6229368,18.9452364 10.6029006,18.6898481 C10.5828645,18.4344599 10.4199301,18.2132713 10.1837239,18.1208023 C9.94751761,18.0283334 9.6798211,18.0809405 9.49502841,18.2561433 L5.27272727,21.45406 L5.27272727,18.7873933 C5.27269088,18.4192187 4.97762715,18.1207635 4.61363636,18.1207267 L1.97727273,18.1207267 C1.60080659,18.1207267 1.31818182,17.83486 1.31818182,17.45406 L1.31818182,5.45406 C1.31818182,5.07326667 1.60080659,4.78739333 1.97727273,4.78739333 L18.4545455,4.78739333 C18.8310116,4.78739333 19.1136364,5.07326667 19.1136364,5.45406 L19.1136364,17.45406 C19.1136364,17.83486 18.8310116,18.1207267 18.4545455,18.1207267 L14.5,18.1207267 C14.2623081,18.1173265 14.0412191,18.2436435 13.9213922,18.4513086 C13.8015653,18.6589736 13.8015653,18.9158131 13.9213922,19.1234781 C14.0412191,19.3311431 14.2623081,19.4574602 14.5,19.45406 L18.4545455,19.45406 C19.5385569,19.45406 20.4318182,18.5505267 20.4318182,17.45406 L20.4318182,17.2873933 L23.9950284,19.98531 C24.1944309,20.1340907 24.4594778,20.1571909 24.6811024,20.0451049 C24.9027271,19.9330189 25.043485,19.704684 25.0454545,19.45406 L25.0454545,16.1207267 L27.0227273,16.1207267 C28.1067384,16.1207267 29,15.2171933 29,14.1207267 L29,2.12072667 C29,1.02425333 28.1067384,0.120726667 27.0227273,0.120726667 L10.5454545,0.120726667 Z M10.5454545,1.45406 L27.0227273,1.45406 C27.3991937,1.45406 27.6818182,1.73993333 27.6818182,2.12072667 L27.6818182,14.1207267 C27.6818182,14.5015267 27.3991937,14.7873933 27.0227273,14.7873933 L24.3863636,14.7873933 C24.0223729,14.7874301 23.7273091,15.0858854 23.7272727,15.45406 L23.7272727,18.1207267 L20.4318182,15.6207267 L20.4318182,5.45406 C20.4318182,4.35759 19.5385569,3.45406 18.4545455,3.45406 L9.88636364,3.45406 L9.88636364,2.12072667 C9.88636364,1.73993333 10.1689881,1.45406 10.5454545,1.45406 Z M5.60227273,9.45406 C4.51807807,9.45406 3.625,10.3573933 3.625,11.45406 C3.625,12.5506933 4.51807807,13.45406 5.60227273,13.45406 C6.68646739,13.45406 7.57954545,12.5506933 7.57954545,11.45406 C7.57954545,10.3573933 6.68646739,9.45406 5.60227273,9.45406 Z M10.2159091,9.45406 C9.13171443,9.45406 8.23863636,10.3573933 8.23863636,11.45406 C8.23863636,12.5506933 9.13171443,13.45406 10.2159091,13.45406 C11.3001037,13.45406 12.1931818,12.5506933 12.1931818,11.45406 C12.1931818,10.3573933 11.3001037,9.45406 10.2159091,9.45406 Z M14.8295455,9.45406 C13.7453508,9.45406 12.8522727,10.3573933 12.8522727,11.45406 C12.8522727,12.5506933 13.7453508,13.45406 14.8295455,13.45406 C15.9137401,13.45406 16.8068182,12.5506933 16.8068182,11.45406 C16.8068182,10.3573933 15.9137401,9.45406 14.8295455,9.45406 Z M5.60227273,10.7873933 C5.97406887,10.7873933 6.26136364,11.0779933 6.26136364,11.45406 C6.26136364,11.8301267 5.97406887,12.1207267 5.60227273,12.1207267 C5.23047658,12.1207267 4.94318182,11.8301267 4.94318182,11.45406 C4.94318182,11.0779933 5.23047658,10.7873933 5.60227273,10.7873933 Z M10.2159091,10.7873933 C10.5877052,10.7873933 10.875,11.0779933 10.875,11.45406 C10.875,11.8301267 10.5877052,12.1207267 10.2159091,12.1207267 C9.84411294,12.1207267 9.55681818,11.8301267 9.55681818,11.45406 C9.55681818,11.0779933 9.84411294,10.7873933 10.2159091,10.7873933 Z M14.8295455,10.7873933 C15.2013416,10.7873933 15.4886364,11.0779933 15.4886364,11.45406 C15.4886364,11.8301267 15.2013416,12.1207267 14.8295455,12.1207267 C14.4577493,12.1207267 14.1704545,11.8301267 14.1704545,11.45406 C14.1704545,11.0779933 14.4577493,10.7873933 14.8295455,10.7873933 Z M12.1931818,18.1207267 C11.8291761,18.1207267 11.5340909,18.4192037 11.5340909,18.7873933 C11.5340909,19.155583 11.8291761,19.45406 12.1931818,19.45406 C12.5571875,19.45406 12.8522727,19.155583 12.8522727,18.7873933 C12.8522727,18.4192037 12.5571875,18.1207267 12.1931818,18.1207267 Z" id="Shape"></path>
                            </g>
                        </g>
                    </g>
                </g>
            </g>
        </g>
    </g>
</svg>