<?xml version="1.0" encoding="UTF-8"?>
<svg width="14px" height="13px" viewBox="0 0 14 13" version="1.1" xmlns="http://www.w3.org/2000/svg" xmlns:xlink="http://www.w3.org/1999/xlink">
    <!-- Generator: Sketch 57.1 (83088) - https://sketch.com -->
    <title>chat-tab-icon</title>
    <desc>Created with Sketch.</desc>
    <g id="Page-1" stroke="none" stroke-width="1" fill="none" fill-rule="evenodd">
        <g id="Desktop-HD-Copy-44" transform="translate(-102.000000, -106.000000)" fill="#3A3E41" fill-rule="nonzero">
            <path d="M109.851001,115.452647 L109.851001,114.071125 L110.532393,114.071125 L110.532393,115.452647 C110.532393,116.086683 110.018623,116.600793 109.384588,116.600793 L105.95957,116.600793 C105.942195,116.602837 105.92516,116.606585 105.911191,116.616806 L103.935835,118.096449 C103.917097,118.110418 103.896655,118.11655 103.876554,118.11655 C103.825109,118.11655 103.777071,118.076007 103.777071,118.017408 L103.777071,116.696188 C103.777071,116.645084 103.736528,116.605904 103.686446,116.600793 L103.148146,116.600793 C102.51377,116.600793 102,116.086683 102,115.452647 L102,111.542137 C102,110.908443 102.51377,110.394332 103.148146,110.394332 L104.769178,110.394332 L104.769178,111.075725 L103.148146,111.075725 C102.89058,111.075725 102.681392,111.285253 102.681392,111.542137 L102.681392,115.452647 C102.681392,115.709873 102.89058,115.919401 103.148146,115.919401 L103.686446,115.919401 L103.720515,115.919401 L103.754585,115.922808 C104.155925,115.963351 104.458463,116.29587 104.458463,116.696188 L104.458463,116.85359 L105.502356,116.071692 C105.611038,115.990266 105.737777,115.940865 105.879847,115.924171 L105.919368,115.919401 L105.95957,115.919401 L109.384588,115.919401 C109.641813,115.919401 109.851001,115.709873 109.851001,115.452647 Z M114.236066,106 C114.981169,106 115.587267,106.606098 115.587267,107.35086 L115.587267,112.033728 C115.587267,112.77849 114.981169,113.384588 114.236066,113.384588 L113.458938,113.384588 L113.458938,115.29419 L110.90985,113.384588 L106.767326,113.384588 C106.022905,113.384588 105.416807,112.77849 105.416807,112.033728 L105.416807,107.35086 C105.416807,106.606098 106.022905,106 106.767326,106 L114.236066,106 Z M114.905875,112.033728 L114.905875,107.35086 C114.905875,106.981545 114.605381,106.681392 114.236066,106.681392 L106.767326,106.681392 C106.398353,106.681392 106.098199,106.981545 106.098199,107.35086 L106.098199,112.033728 C106.098199,112.402702 106.398353,112.703196 106.767326,112.703196 L111.136754,112.703196 L112.777546,113.932427 L112.777546,112.703196 L114.236066,112.703196 C114.605381,112.703196 114.905875,112.402702 114.905875,112.033728 Z M108.968973,109.180228 C109.251069,109.180228 109.480017,109.408835 109.480017,109.691272 C109.480017,109.973709 109.251069,110.202316 108.968973,110.202316 C108.686876,110.202316 108.457929,109.973709 108.457929,109.691272 C108.457929,109.408835 108.686876,109.180228 108.968973,109.180228 Z M112.035238,109.180228 C112.317334,109.180228 112.546282,109.408835 112.546282,109.691272 C112.546282,109.973709 112.317334,110.202316 112.035238,110.202316 C111.753141,110.202316 111.524193,109.973709 111.524193,109.691272 C111.524193,109.408835 111.753141,109.180228 112.035238,109.180228 Z M110.502105,109.180228 C110.784202,109.180228 111.013149,109.408835 111.013149,109.691272 C111.013149,109.973709 110.784202,110.202316 110.502105,110.202316 C110.220009,110.202316 109.991061,109.973709 109.991061,109.691272 C109.991061,109.408835 110.220009,109.180228 110.502105,109.180228 Z" id="chat-tab-icon"></path>
        </g>
    </g>
</svg>