<?xml version="1.0" encoding="UTF-8"?>
<svg width="33px" height="27px" viewBox="0 0 33 27" version="1.1" xmlns="http://www.w3.org/2000/svg" xmlns:xlink="http://www.w3.org/1999/xlink">
    <!-- Generator: Sketch 57.1 (83088) - https://sketch.com -->
    <title>connect-info-icon</title>
    <desc>Created with Sketch.</desc>
    <g id="Page-1" stroke="none" stroke-width="1" fill="none" fill-rule="evenodd">
        <g id="Pricing-Copy-4" transform="translate(-271.000000, -1465.000000)" fill-rule="nonzero">
            <g id="Group-38" transform="translate(0.000000, 836.000000)">
                <g id="Group-18" transform="translate(250.000000, 70.000000)">
                    <g id="Group-17" transform="translate(0.000000, 542.000000)">
                        <g id="connect-info-icon" transform="translate(21.000000, 17.000000)">
                            <path d="M6.92674418,4.16112434 C6.68904026,4.41543693 6.68904026,4.82624958 6.93925491,5.07404134 C7.18321419,5.32183309 7.57730227,5.32183309 7.81500619,5.06099966 C10.0544273,2.66785297 13.0570032,1.33108166 16.2597507,1.29195665 C19.3874339,1.25283164 22.3524775,2.46570707 24.6231755,4.69583287 L23.4846988,4.70887454 C23.1406536,4.71539537 22.8716729,5.00231214 22.8716729,5.3609581 C22.8779283,5.71308323 23.1531644,6 23.4909542,6 L23.4972095,6 L26.1369741,5.96739582 C26.4810192,5.96087499 26.75,5.67395822 26.75,5.31531226 L26.7249785,2.57004044 C26.7187232,2.21791531 26.4434871,1.93099854 26.1056973,1.93099854 L26.0994419,1.93099854 C25.7553968,1.93751938 25.486416,2.22443615 25.486416,2.58308211 L25.4989267,3.78291587 C22.9905248,1.30499832 19.7064575,-0.0382938267 16.24724,0.000831187298 C12.7067026,0.0529978726 9.39761387,1.52670673 6.92674418,4.16112434 Z" id="Path" fill="#3C92CA"></path>
                            <path d="M24.6790734,21.9381107 C22.4403525,24.3289902 19.4387154,25.6644951 16.2369693,25.7035831 C13.1102641,25.742671 10.1461475,24.5309446 7.87615955,22.3029316 L9.01428025,22.2899023 C9.35821782,22.2833876 9.62711447,21.9967427 9.62711447,21.6384365 C9.62086106,21.286645 9.345711,21 9.00802684,21 L9.00177343,21 L6.36283422,21.0325733 C6.01889665,21.0390879 5.75,21.3257329 5.75,21.6840391 L5.78126705,24.4332248 C5.78752046,24.7850163 6.06267052,25.0716612 6.40035469,25.0716612 L6.4066081,25.0716612 C6.75054567,25.0651466 7.01944232,24.7785016 7.01944232,24.4201954 L7.0069355,23.2214984 C9.47703262,25.6579805 12.6912856,27 16.0993943,27 C16.1494216,27 16.2057023,27 16.2557295,27 C19.7889064,26.9543974 23.103214,25.4820847 25.5733111,22.8501629 C25.8109407,22.5960912 25.8109407,22.1856678 25.5608043,21.9381107 C25.3106678,21.6775244 24.9229564,21.6840391 24.6790734,21.9381107 Z" id="Path" fill="#3C92CA"></path>
                            <path d="M5.55737705,14.1538462 C5.55737705,13.9331104 5.45286885,13.7257525 5.28688525,13.6053512 C5.17622951,13.5250836 5.1147541,13.3913043 5.1147541,13.2508361 L5.1147541,10.8361204 C5.1147541,10 5.73565574,9.32441472 6.50409836,9.32441472 L6.98360656,9.32441472 C7.75204918,9.32441472 8.37295082,10 8.37295082,10.8361204 L8.37295082,13.2508361 C8.37295082,13.3913043 8.30532787,13.5250836 8.20081967,13.6053512 C8.02868852,13.7257525 7.93032787,13.9331104 7.93032787,14.1538462 L7.93032787,16.4816054 C7.93032787,16.7759197 8.08401639,17.0434783 8.32991803,17.1705686 C8.60655738,17.3177258 10.0389344,18.1070234 11.3668033,19.2909699 C11.4713115,19.3846154 11.5327869,19.5317726 11.5327869,19.6856187 L11.5327869,21.3377926 C11.5327869,21.7056856 11.8032787,22 12.1413934,22 C12.4795082,22 12.75,21.7056856 12.75,21.3377926 L12.75,19.6856187 C12.75,19.1371237 12.5286885,18.6220736 12.1352459,18.2675585 C10.9733607,17.2240803 9.72540984,16.4682274 9.14754098,16.1404682 L9.14754098,14.4615385 C9.43032787,14.1404682 9.59631148,13.7056856 9.59631148,13.2508361 L9.59631148,10.8361204 C9.59631148,9.27090301 8.42827869,8 6.9897541,8 L6.5102459,8 C5.07172131,8 3.90368852,9.27090301 3.90368852,10.8361204 L3.90368852,13.2508361 C3.90368852,13.7056856 4.06352459,14.1404682 4.35245902,14.4615385 L4.35245902,16.1404682 C3.76844262,16.4682274 2.52663934,17.2307692 1.3647541,18.2675585 C0.977459016,18.6153846 0.75,19.1304348 0.75,19.6856187 L0.75,21.3377926 C0.75,21.7056856 1.0204918,22 1.35860656,22 C1.69672131,22 1.96721311,21.7056856 1.96721311,21.3377926 L1.96721311,19.6856187 C1.96721311,19.5317726 2.02868852,19.3913043 2.13319672,19.2909699 C3.45491803,18.1070234 4.89344262,17.3177258 5.17008197,17.1705686 C5.40983607,17.0434783 5.56967213,16.7692308 5.56967213,16.4816054 L5.56967213,14.1538462 L5.55737705,14.1538462 Z" id="Path" fill="#2C2F33"></path>
                            <path d="M32.1352459,18.2724665 C30.9733607,17.2284895 29.7254098,16.4722753 29.147541,16.1443595 L29.147541,14.4646272 C29.4303279,14.1434034 29.5963115,13.708413 29.5963115,13.2533461 L29.5963115,10.8374761 C29.5963115,9.27151052 28.4282787,8 26.9897541,8 L26.5102459,8 C25.0717213,8 23.9036885,9.27151052 23.9036885,10.8374761 L23.9036885,13.2533461 C23.9036885,13.708413 24.0635246,14.1434034 24.352459,14.4646272 L24.352459,16.1376673 C23.7684426,16.4655832 22.5266393,17.2284895 21.3647541,18.2657744 C20.977459,18.6137667 20.75,19.1290631 20.75,19.6845124 L20.75,21.3374761 C20.75,21.7055449 21.0204918,22 21.3586066,22 C21.6967213,22 21.9672131,21.7055449 21.9672131,21.3374761 L21.9672131,19.6845124 C21.9672131,19.5305927 22.0286885,19.3900574 22.1331967,19.289675 C23.454918,18.1051625 24.8934426,17.3154876 25.170082,17.16826 C25.4098361,17.041109 25.5635246,16.7667304 25.5635246,16.4789675 L25.5635246,14.1500956 C25.5635246,13.9292543 25.4590164,13.7217973 25.2930328,13.6013384 C25.182377,13.5210325 25.1209016,13.3871893 25.1209016,13.2466539 L25.1209016,10.8307839 C25.1209016,9.99426386 25.7418033,9.31835564 26.5102459,9.31835564 L26.9897541,9.31835564 C27.7581967,9.31835564 28.3790984,9.99426386 28.3790984,10.8307839 L28.3790984,13.2466539 C28.3790984,13.3871893 28.3114754,13.5210325 28.2069672,13.6013384 C28.0348361,13.7217973 27.9364754,13.9292543 27.9364754,14.1500956 L27.9364754,16.4789675 C27.9364754,16.7734226 28.0901639,17.041109 28.329918,17.16826 C28.6065574,17.3154876 30.045082,18.1051625 31.3668033,19.289675 C31.4713115,19.3833652 31.5327869,19.5305927 31.5327869,19.6845124 L31.5327869,21.3374761 C31.5327869,21.7055449 31.8032787,22 32.1413934,22 C32.4795082,22 32.75,21.7055449 32.75,21.3374761 L32.75,19.6845124 C32.7438525,19.1357553 32.522541,18.6204589 32.1352459,18.2724665 Z" id="Path" fill="#2C2F33"></path>
                        </g>
                    </g>
                </g>
            </g>
        </g>
    </g>
</svg>