<svg xmlns="http://www.w3.org/2000/svg" width="62.422" height="62.422" viewBox="0 0 62.422 62.422"><g transform="translate(-0.51)"><g transform="translate(0.51)"><path d="M31.211,62.422H1.46V59.049l6.947-6.544a31.2,31.2,0,1,1,22.8,9.917Zm0-58.395a27.16,27.16,0,0,0-19.18,46.413L14.2,52.605,8,58.395H31.211A27.191,27.191,0,0,0,41.787,6.165,26.981,26.981,0,0,0,31.211,4.028Z" fill="#464646"/><path d="M15.4,20.589a24.646,24.646,0,0,1-7.9-8.205l3.373-3.373V0H0A28.466,28.466,0,0,0,28.493,28.493V17.669H18.324Z" transform="translate(15.454 18.978)" fill="none" stroke="#ff8b8b" stroke-miterlimit="10" stroke-width="2"/></g></g></svg>