<svg xmlns="http://www.w3.org/2000/svg" width="52.73" height="34.72" viewBox="0 0 52.73 34.72"><g transform="translate(0.484 0.495)"><path d="M44.107,0H1.416A1.416,1.416,0,0,0,0,1.416v27.7A1.416,1.416,0,0,0,1.416,30.53H44.107a1.416,1.416,0,0,0,1.416-1.416V1.416A1.416,1.416,0,0,0,44.107,0Z" transform="translate(3.12 0.005)" fill="none" stroke="#3e3e3e" stroke-miterlimit="10" stroke-width="1"/><path d="M0,0H25.926V41.481H0Z" transform="translate(46.646 2.406) rotate(90)" fill="#ebf0f3"/><path d="M0,0V1.427A1.828,1.828,0,0,0,1.828,3.255H49.9A1.828,1.828,0,0,0,51.73,1.427V0Z" transform="translate(0.016 30.47)" fill="none" stroke="#3e3e3e" stroke-miterlimit="10" stroke-width="1"/><path d="M2.809,0,6.182,3.365a6.311,6.311,0,0,0-1.437,4.03H0A11.091,11.091,0,0,1,2.809,0Z" transform="translate(14.739 12.133)" fill="#44c7f2"/><path d="M7.395,0V4.752a6.317,6.317,0,0,0-4.03,1.776L0,3.17A11.088,11.088,0,0,1,7.395,0Z" transform="translate(18.089 8.392)" fill="#44c4a1"/><path d="M7.395,3.17,4.044,6.521A6.363,6.363,0,0,0,0,4.752V0A11.118,11.118,0,0,1,7.395,3.17Z" transform="translate(26.271 8.392)" fill="#27a2db"/><path d="M6.174,7.395H1.43A6.351,6.351,0,0,0,0,3.358L3.358,0A11.061,11.061,0,0,1,6.174,7.395Z" transform="translate(30.85 12.133)" fill="#e56353"/><path d="M1.132.087a.1.1,0,0,0-.2,0L0,6.614A.337.337,0,0,0,.337,7H1.725a.337.337,0,0,0,.334-.385Z" transform="translate(24.85 14.913)" fill="#2f4859"/><path d="M1.393,0A1.393,1.393,0,1,0,2.785,1.393,1.393,1.393,0,0,0,1.393,0Z" transform="translate(24.489 18.103)" fill="#3a556a"/></g></svg>