<?xml version="1.0" encoding="UTF-8"?>
<svg width="24px" height="16px" viewBox="0 0 24 16" version="1.1" xmlns="http://www.w3.org/2000/svg" xmlns:xlink="http://www.w3.org/1999/xlink">
    <!-- Generator: Sketch 57.1 (83088) - https://sketch.com -->
    <title>delete-entry-icon</title>
    <desc>Created with Sketch.</desc>
    <g id="Page-1" stroke="none" stroke-width="1" fill="none" fill-rule="evenodd">
        <g id="Desktop-HD-Copy-50" transform="translate(-842.000000, -233.000000)" fill="#BBC0C9" fill-rule="nonzero">
            <g id="Group-55" transform="translate(533.000000, 187.000000)">
                <g id="Group-54">
                    <g id="Group-53" transform="translate(44.000000, 40.000000)">
                        <g id="Group-48">
                            <g id="delete-entry-icon" transform="translate(265.000000, 6.000000)">
                                <g id="Group" transform="translate(0.000000, 0.164599)">
                                    <path d="M7.14516129,0.0934658065 C6.95202964,0.113741644 6.77356839,0.205850678 6.64516129,0.351530323 L0.451612903,7.31927226 C0.188789834,7.61317027 0.188789834,8.05763231 0.451612903,8.35153032 L6.64516129,15.3192723 C6.79287224,15.484408 7.00424993,15.5783536 7.22580645,15.5773449 L21.6774194,15.5773449 C22.6648021,15.5773449 23.4839487,14.7582658 23.4839487,13.7708852 C23.4878196,13.4916832 23.3411288,13.2319835 23.0999694,13.0912302 C22.85881,12.9504768 22.5605448,12.9504768 22.3193854,13.0912302 C22.078226,13.2319835 21.9315353,13.4916832 21.9354839,13.7708852 C21.9354839,13.9272465 21.8337786,14.0289497 21.6774194,14.0289497 L7.58064516,14.0289497 L2.07258065,7.83540129 L7.58064516,1.6418529 L21.6774194,1.6418529 C21.8337786,1.6418529 21.9354839,1.74355871 21.9354839,1.89991742 L21.9354839,11.19024 C21.9315353,11.469442 22.078226,11.7291417 22.3193854,11.869895 C22.5605448,12.0106483 22.85881,12.0106483 23.0999694,11.869895 C23.3411288,11.7291417 23.4878196,11.469442 23.4839487,11.19024 L23.4839487,1.89991742 C23.4839487,0.912534194 22.6648021,0.0934658065 21.6774194,0.0934658065 L7.22580645,0.0934658065 C7.19894298,0.0920649063 7.17202476,0.0920649063 7.14516129,0.0934658065 Z M12.5564516,3.95636903 C12.258643,3.98829661 12.0059604,4.18912305 11.9076304,4.47203739 C11.8093004,4.75495173 11.8829622,5.06920278 12.0967742,5.27894968 L14.6451613,7.83540129 L12.0967742,10.3837884 C11.8809124,10.5751024 11.7892898,10.8705472 11.8590253,11.1504299 C11.9287608,11.4303126 12.1482926,11.6482302 12.4286824,11.7158983 C12.7090721,11.7835664 13.0038327,11.6897659 13.1935484,11.4724981 L15.7419355,8.92411097 L18.2903226,11.4724981 C18.4800383,11.6897659 18.7747989,11.7835664 19.0551886,11.7158983 C19.3355783,11.6482302 19.5551102,11.4303126 19.6248457,11.1504299 C19.6945812,10.8705472 19.6029586,10.5751024 19.3870968,10.3837884 L16.8387097,7.83540129 L19.3870968,5.27894968 C19.625273,5.04670663 19.68848,4.6882811 19.5441106,4.38857756 C19.3997412,4.08887401 19.0800664,3.91488544 18.75,3.95636903 C18.5745498,3.97950288 18.4123188,4.06204144 18.2903226,4.19024 L15.7419355,6.7386271 L13.1935484,4.19024 C13.0284812,4.01840619 12.79349,3.93214359 12.5564516,3.95636903 Z" id="Shape"></path>
                                </g>
                            </g>
                        </g>
                    </g>
                </g>
            </g>
        </g>
    </g>
</svg>