<?xml version="1.0" encoding="UTF-8"?>
<svg width="20px" height="20px" viewBox="0 0 20 20" version="1.1" xmlns="http://www.w3.org/2000/svg" xmlns:xlink="http://www.w3.org/1999/xlink">
    <!-- Generator: Sketch 57.1 (83088) - https://sketch.com -->
    <title>dial-calls-icon</title>
    <desc>Created with Sketch.</desc>
    <g id="Page-1" stroke="none" stroke-width="1" fill="none" fill-rule="evenodd">
        <g id="Desktop-HD-Copy-50" transform="translate(-585.000000, -646.000000)" fill="#B1B1B1" fill-rule="nonzero">
            <g id="Group-55" transform="translate(533.000000, 187.000000)">
                <g id="Group-54">
                    <g id="Group-53" transform="translate(44.000000, 40.000000)">
                        <g id="Group-52" transform="translate(0.000000, 419.000000)">
                            <g id="Group-45">
                                <g id="dial-calls-icon" transform="translate(8.000000, 0.000000)">
                                    <g id="Group">
                                        <path d="M10,0.252727273 C4.62515152,0.252727273 0.252424242,4.62545455 0.252424242,10.000303 C0.252424242,15.3748485 4.62515152,19.7475758 10,19.7475758 C15.3745455,19.7475758 19.7472727,15.3748485 19.7472727,10.000303 C19.7472727,4.62545455 15.3745455,0.252727273 10,0.252727273 Z M10,18.5351515 C5.29363636,18.5351515 1.46454545,14.7063636 1.46454545,10 C1.46454545,5.29363636 5.29333333,1.46454545 10,1.46454545 C14.7063636,1.46454545 18.5351515,5.29333333 18.5351515,10 C18.5351515,14.7063636 14.7063636,18.5351515 10,18.5351515 Z" id="Shape"></path>
                                        <path d="M12.8639394,12.1272727 L12.8278788,12.0915152 L12.3284848,11.5918182 L10.5936364,9.8569697 L10.5936364,4.79787879 L10.5936364,4.09090909 L10.5936364,4.04030303 L10.5881818,4.04030303 C10.5621212,3.72969697 10.3045455,3.48484848 9.98727273,3.48484848 C9.67,3.48484848 9.41242424,3.72969697 9.38636364,4.04030303 L9.38121212,4.04030303 L9.38121212,4.09090909 L9.38121212,4.79787879 L9.38121212,9.75272727 L9.38121212,10.1515152 L9.38121212,10.3590909 L12.0066667,12.9845455 L12.0106061,12.9809091 C12.2484848,13.1818182 12.6036364,13.1730303 12.8278788,12.9487879 C13.0524242,12.7242424 13.0615152,12.3690909 12.860303,12.1309091 L12.8639394,12.1272727 Z" id="Path"></path>
                                    </g>
                                </g>
                            </g>
                        </g>
                    </g>
                </g>
            </g>
        </g>
    </g>
</svg>