<?xml version="1.0" encoding="UTF-8"?>
<svg width="26px" height="19px" viewBox="0 0 26 19" version="1.1" xmlns="http://www.w3.org/2000/svg" xmlns:xlink="http://www.w3.org/1999/xlink">
    <!-- Generator: Sketch 57.1 (83088) - https://sketch.com -->
    <title>dial-text-icon</title>
    <desc>Created with Sketch.</desc>
    <g id="Page-1" stroke="none" stroke-width="1" fill="none" fill-rule="evenodd">
        <g id="Desktop-HD-Copy-50" transform="translate(-838.000000, -646.000000)" fill="#B1B1B1" fill-rule="nonzero">
            <g id="Group-55" transform="translate(533.000000, 187.000000)">
                <g id="Group-54">
                    <g id="Group-53" transform="translate(44.000000, 40.000000)">
                        <g id="Group-52" transform="translate(0.000000, 419.000000)">
                            <g id="Group-49" transform="translate(259.000000, 0.000000)">
                                <g id="dial-text-icon" transform="translate(2.000000, 0.000000)">
                                    <g id="Group">
                                        <path d="M7.39202118,1.77635684e-15 C9.52952118,1.77635684e-15 11.4295212,0.923611111 12.7489656,2.40138889 C13.857299,1.84722222 15.1239656,1.53055556 16.4434101,1.53055556 C21.0878545,1.53055556 24.8614656,5.30416667 24.8614656,9.94861111 C24.8614656,11.3127137 24.5241875,12.654331 23.8911425,13.8489297 L23.7267434,14.1444444 L24.9670212,16.8361111 L25.0167655,16.9674211 C25.1565414,17.4103421 25.0365919,17.8988636 24.6767434,18.2347222 C24.4392434,18.4722222 24.1225767,18.6041667 23.8059101,18.6041667 C23.6871601,18.6041667 23.5535663,18.5893229 23.4273944,18.5485026 L23.3045212,18.4986111 L20.6128545,17.2583333 C19.3461878,17.9972222 17.894799,18.3930556 16.4170212,18.3930556 C13.3031323,18.3930556 10.5850767,16.6777778 9.13368785,14.1708333 C8.55313229,14.3027778 7.97257674,14.3819444 7.36563229,14.3819444 C6.23810704,14.3819444 5.13239078,14.1202365 4.12778898,13.6166468 L3.82952118,13.4583333 L1.61285451,14.4611111 C1.45452118,14.5402778 1.29618785,14.5666667 1.13785451,14.5666667 C0.847576735,14.5666667 0.557298957,14.4347222 0.346187846,14.2236111 C0.0343191595,13.9117424 -0.0812685356,13.4690197 0.0589038494,13.054054 L0.108687846,12.9305556 L1.11146562,10.7138889 C0.50452118,9.63194444 0.187854513,8.41805556 0.187854513,7.17777778 C0.187854513,3.21944444 3.40729896,1.77635684e-15 7.39202118,1.77635684e-15 Z M16.4170212,3.00833333 C12.5642434,3.00833333 9.45035451,6.12222222 9.45035451,9.975 C9.45035451,13.8277778 12.5642434,16.9416667 16.4170212,16.9416667 C17.7628545,16.9416667 19.0559101,16.5458333 20.1906323,15.8333333 C20.3715847,15.7202381 20.5719248,15.6846939 20.7750346,15.7433188 L20.8767434,15.7805556 L23.3836878,16.9152778 L22.2489656,14.4083333 C22.1434101,14.1708333 22.169799,13.9069444 22.2753545,13.7486111 C23.0142434,12.6138889 23.3836878,11.3208333 23.3836878,9.975 C23.3836878,6.12222222 20.269799,3.00833333 16.4170212,3.00833333 Z M18.844799,12.3763889 C19.2670212,12.3763889 19.5836878,12.7194444 19.6100767,13.1152778 C19.6100767,13.5375 19.2670212,13.8541667 18.8711878,13.8541667 L18.8711878,13.8541667 L14.0156323,13.8541667 C13.5934101,13.8541667 13.2767434,13.5111111 13.2767434,13.1152778 C13.2767434,12.6930556 13.619799,12.3763889 14.0156323,12.3763889 L14.0156323,12.3763889 Z M7.36563229,1.45138889 C4.22535451,1.45138889 1.6392434,4.01111111 1.6392434,7.17777778 C1.6392434,8.28611111 1.95591007,9.34166667 2.53646562,10.2652778 C2.64956086,10.4462302 2.68510508,10.665958 2.6264802,10.8579891 L2.5892434,10.9513889 L1.77118785,12.7722222 L3.59202118,11.9541667 C3.67118785,11.9277778 3.7767434,11.9013889 3.88229896,11.9013889 C4.0142434,11.9013889 4.14618785,11.9277778 4.27813229,12.0069444 C5.2017434,12.5875 6.25729896,12.9041667 7.36563229,12.9041667 C7.76146562,12.9041667 8.13091007,12.8777778 8.50035451,12.7986111 C8.18368785,11.9013889 7.99896562,10.9513889 7.99896562,9.94861111 C7.99896562,7.15138889 9.37118785,4.69722222 11.4559101,3.16666667 C10.4003545,2.11111111 8.94896562,1.45138889 7.36563229,1.45138889 Z M12.194799,9.20972222 L20.6656323,9.20972222 C21.0614656,9.20972222 21.4045212,9.55277778 21.4045212,9.94861111 C21.4045212,10.3356481 21.1162592,10.6339892 20.7633231,10.6810249 L20.6656323,10.6875 L12.194799,10.6875 C11.7725767,10.6875 11.4559101,10.3444444 11.4559101,9.94861111 C11.4559101,9.56157407 11.744172,9.26323302 12.0971081,9.21619727 L12.194799,9.20972222 L20.6656323,9.20972222 Z M18.8711878,6.01666667 C19.2934101,6.01666667 19.6100767,6.33333333 19.6100767,6.75555556 C19.6100767,7.14259259 19.3218148,7.44093364 18.9688787,7.48796939 L18.8711878,7.49444444 L14.0156323,7.49444444 C13.5934101,7.49444444 13.2767434,7.17777778 13.2767434,6.75555556 C13.2767434,6.36851852 13.5650054,6.07017747 13.9179415,6.02314172 L14.0156323,6.01666667 L18.8711878,6.01666667 Z" id="Combined-Shape"></path>
                                    </g>
                                </g>
                            </g>
                        </g>
                    </g>
                </g>
            </g>
        </g>
    </g>
</svg>