<?xml version="1.0" encoding="UTF-8"?>
<svg width="14px" height="20px" viewBox="0 0 14 20" version="1.1" xmlns="http://www.w3.org/2000/svg" xmlns:xlink="http://www.w3.org/1999/xlink">
    <!-- Generator: Sketch 57.1 (83088) - https://sketch.com -->
    <title>dial-keypad-icon</title>
    <desc>Created with Sketch.</desc>
    <g id="Page-1" stroke="none" stroke-width="1" fill="none" fill-rule="evenodd">
        <g id="Desktop-HD-Copy-50" transform="translate(-759.000000, -646.000000)" fill="#B1B1B1" fill-rule="nonzero">
            <g id="Group-55" transform="translate(533.000000, 187.000000)">
                <g id="Group-54">
                    <g id="Group-53" transform="translate(44.000000, 40.000000)">
                        <g id="Group-52" transform="translate(0.000000, 419.000000)">
                            <g id="Group-50" transform="translate(167.000000, 0.000000)">
                                <path d="M16.8430575,2.66453526e-14 C15.8337641,2.66453526e-14 15,0.8337641 15,1.84305748 C15,2.85235087 15.8337641,3.68611497 16.8430575,3.68611497 C17.8523509,3.68611497 18.686115,2.85235087 18.686115,1.84305748 C18.686115,0.8337641 17.874292,2.66453526e-14 16.8430575,2.66453526e-14 Z M22.0211714,2.66453526e-14 C21.011878,2.66453526e-14 20.1781139,0.8337641 20.1781139,1.84305748 C20.1781139,2.85235087 21.011878,3.68611497 22.0211714,3.68611497 C23.0304648,3.68611497 23.8642289,2.85235087 23.8642289,1.84305748 C23.8642289,0.8337641 23.0304648,2.66453526e-14 22.0211714,2.66453526e-14 Z M27.1773441,3.68611497 C28.1866375,3.68611497 29.0204016,2.85235087 29.0204016,1.84305748 C29.0204016,0.8337641 28.1866375,2.48689958e-14 27.1773441,2.48689958e-14 C26.1680507,2.48689958e-14 25.3342866,0.8337641 25.3342866,1.84305748 C25.3562278,2.85235087 26.1680507,3.68611497 27.1773441,3.68611497 Z M16.8430575,5.17811389 C15.8337641,5.17811389 15,6.01187799 15,7.02117137 C15,8.03046476 15.8337641,8.86422886 16.8430575,8.86422886 C17.8523509,8.86422886 18.686115,8.03046476 18.686115,6.99923021 C18.686115,5.96799567 17.874292,5.17811389 16.8430575,5.17811389 Z M22.0211714,5.17811389 C21.011878,5.17811389 20.1781139,6.01187799 20.1781139,7.02117137 C20.1781139,8.03046476 21.011878,8.86422886 22.0211714,8.86422886 C23.0304648,8.86422886 23.8642289,8.03046476 23.8642289,7.02117137 C23.8642289,6.01187799 23.0304648,5.17811389 22.0211714,5.17811389 Z M27.1773441,5.17811389 C26.1680507,5.17811389 25.3342866,6.01187799 25.3342866,7.02117137 C25.3342866,8.03046476 26.1680507,8.86422886 27.1773441,8.86422886 C28.1866375,8.86422886 29.0204016,8.03046476 29.0204016,7.02117137 C29.0204016,6.01187799 28.2085786,5.17811389 27.1773441,5.17811389 Z M16.8430575,10.7292275 C15.8337641,10.7292275 15,11.5629916 15,12.572285 C15,13.5815784 15.8337641,14.4153425 16.8430575,14.4153425 C17.8523509,14.4153425 18.686115,13.5815784 18.686115,12.572285 C18.686115,11.5629916 17.874292,10.7292275 16.8430575,10.7292275 Z M22.0211714,10.7292275 C21.011878,10.7292275 20.1781139,11.5629916 20.1781139,12.572285 C20.1781139,13.5815784 21.011878,14.4153425 22.0211714,14.4153425 C23.0304648,14.4153425 23.8642289,13.5815784 23.8642289,12.572285 C23.8642289,11.5629916 23.0304648,10.7292275 22.0211714,10.7292275 Z M22.0211714,15.995106 C21.011878,15.995106 20.1781139,16.8288701 20.1781139,17.8381635 C20.1781139,18.8474569 21.011878,19.681221 22.0211714,19.681221 C23.0304648,19.681221 23.8642289,18.8474569 23.8642289,17.8381635 C23.8642289,16.8288701 23.0304648,15.995106 22.0211714,15.995106 Z M27.1773441,10.7292275 C26.1680507,10.7292275 25.3342866,11.5629916 25.3342866,12.572285 C25.3342866,13.5815784 26.1680507,14.4153425 27.1773441,14.4153425 C28.1866375,14.4153425 29.0204016,13.5815784 29.0204016,12.572285 C29.0204016,11.5629916 28.2085786,10.7292275 27.1773441,10.7292275 Z" id="dial-keypad-icon"></path>
                            </g>
                        </g>
                    </g>
                </g>
            </g>
        </g>
    </g>
</svg>