<svg xmlns="http://www.w3.org/2000/svg" width="22" height="22" viewBox="0 0 22 22"><defs><style>.a{fill:#c2c8cc;}</style></defs><path class="a" d="M17,22a1,1,0,0,1-1-1V17a1,1,0,0,1,1-1h4a1,1,0,0,1,1,1v4a1,1,0,0,1-1,1ZM9,22a1,1,0,0,1-1-1V17a1,1,0,0,1,1-1h4a1,1,0,0,1,1,1v4a1,1,0,0,1-1,1ZM1,22a1,1,0,0,1-1-1V17a1,1,0,0,1,1-1H5a1,1,0,0,1,1,1v4a1,1,0,0,1-1,1Zm16-8a1,1,0,0,1-1-1V9a1,1,0,0,1,1-1h4a1,1,0,0,1,1,1v4a1,1,0,0,1-1,1ZM9,14a1,1,0,0,1-1-1V9A1,1,0,0,1,9,8h4a1,1,0,0,1,1,1v4a1,1,0,0,1-1,1ZM1,14a1,1,0,0,1-1-1V9A1,1,0,0,1,1,8H5A1,1,0,0,1,6,9v4a1,1,0,0,1-1,1ZM17,6a1,1,0,0,1-1-1V1a1,1,0,0,1,1-1h4a1,1,0,0,1,1,1V5a1,1,0,0,1-1,1ZM9,6A1,1,0,0,1,8,5V1A1,1,0,0,1,9,0h4a1,1,0,0,1,1,1V5a1,1,0,0,1-1,1ZM1,6A1,1,0,0,1,0,5V1A1,1,0,0,1,1,0H5A1,1,0,0,1,6,1V5A1,1,0,0,1,5,6Z"/></svg>