<svg xmlns="http://www.w3.org/2000/svg" xmlns:xlink="http://www.w3.org/1999/xlink" width="30" height="27" viewBox="0 0 30 27"><defs><style>.a{fill:#38444a;}.b{clip-path:url(#a);}.c,.f{fill:none;}.c{stroke:#fff;stroke-miterlimit:10;stroke-width:2px;opacity:0.1;}.d{fill:#fff;}.e{stroke:none;}</style><clipPath id="a"><rect class="a" width="30" height="27" rx="2"/></clipPath></defs><rect class="a" width="30" height="27" rx="2"/><g class="b"><circle class="c" cx="6.5" cy="6.5" r="6.5" transform="translate(24 -8)"/><g class="c" transform="translate(-17 20)"><path class="e" d="M0,0H18a5,5,0,0,1,5,5V17a0,0,0,0,1,0,0H0a0,0,0,0,1,0,0V0A0,0,0,0,1,0,0Z"/><path class="f" d="M2,1H18a4,4,0,0,1,4,4V15a1,1,0,0,1-1,1H2a1,1,0,0,1-1-1V2A1,1,0,0,1,2,1Z"/></g><g transform="translate(8 7)"><path class="d" d="M12.826,12.948a.265.265,0,0,1-.132-.035l-2.256-1.262H4.6a.275.275,0,0,1-.274-.275V9.854a4.842,4.842,0,0,1-1.878-.633l-1.183.319a.417.417,0,0,1-.106.014.408.408,0,0,1-.289-.12.416.416,0,0,1-.106-.4l.267-1L.978,7.907A4.952,4.952,0,0,1,4.908,0,4.841,4.841,0,0,1,7.835.978a5,5,0,0,1,1.753,2.48h4.134a.274.274,0,0,1,.273.275v7.642a.274.274,0,0,1-.273.275H13l.1.993a.274.274,0,0,1-.272.3ZM4.869,9.889V11.1h5.639a.276.276,0,0,1,.133.034l1.859,1.04-.078-.771a.277.277,0,0,1,.068-.212.273.273,0,0,1,.2-.091h.755V4.01H9.727l.005.032c0,.019.007.038.01.056s.007.04.01.06,0,.021.005.032l0,.029v.006c0,.017,0,.033.006.049s.006.043.009.065,0,.036.006.054,0,.022,0,.033,0,.022,0,.033l0,.027,0,.027.005.066c0,.01,0,.019,0,.029s0,.021,0,.031,0,.019,0,.028,0,.021,0,.031v.074c0,.008,0,.016,0,.024s0,.016,0,.024c0,.043,0,.083,0,.122A4.932,4.932,0,0,1,4.908,9.889ZM2.484,8.65a.282.282,0,0,1,.143.04,4.34,4.34,0,0,0,1.985.638c.1.007.2.01.3.01a4.382,4.382,0,0,0,4.36-4.394c0-.044,0-.088,0-.131a.133.133,0,0,1,0-.019s0-.007,0-.011,0-.006,0-.009c0-.027,0-.054,0-.081v-.01l0-.024v-.02c0-.036-.005-.072-.009-.108a.175.175,0,0,0,0-.022c0-.049-.009-.091-.014-.134a.18.18,0,0,1,0-.023L9.22,4.3c0-.018,0-.035-.007-.051l0-.011,0-.011s0-.009,0-.013l0-.01,0-.022,0-.022,0-.016c0-.009,0-.017,0-.025l-.008-.041V4.071c-.006-.032-.014-.065-.021-.1s-.014-.057-.021-.085-.008-.034-.012-.051A4.365,4.365,0,1,0,1.436,7.6a.284.284,0,0,1,.037.067l.1.244a.28.28,0,0,1,.01.172l-.229.86L2.414,8.66A.275.275,0,0,1,2.484,8.65Z" transform="translate(0 0.026)"/><path class="d" d="M.541.222A.262.262,0,0,0,.526.17.273.273,0,0,0,.5.122.267.267,0,0,0,.425.046.269.269,0,0,0,.378.021.256.256,0,0,0,.327.005a.267.267,0,0,0-.107,0A.263.263,0,0,0,.169.021.276.276,0,0,0,.122.046.26.26,0,0,0,.08.081.263.263,0,0,0,.046.122.255.255,0,0,0,.021.17.258.258,0,0,0,.005.222.271.271,0,0,0,0,.275.276.276,0,0,0,.005.329.27.27,0,0,0,.021.381.262.262,0,0,0,.046.428.263.263,0,0,0,.08.47.28.28,0,0,0,.122.5.276.276,0,0,0,.169.53.284.284,0,0,0,.22.545a.274.274,0,0,0,.107,0A.274.274,0,0,0,.378.53.269.269,0,0,0,.425.5.276.276,0,0,0,.547.275.273.273,0,0,0,.541.222Z" transform="translate(5.686 10.099)"/><path class="d" d="M5.969,0H4.711a.275.275,0,0,0,0,.551H5.7V5.587H.273a.275.275,0,0,0,0,.551h5.7a.274.274,0,0,0,.273-.275V.275A.274.274,0,0,0,5.969,0Z" transform="translate(6.733 4.512)"/><path class="d" d="M3.781,7.619A3.81,3.81,0,1,1,7.562,3.81,3.8,3.8,0,0,1,3.781,7.619Zm0-7.069A3.259,3.259,0,1,0,7.015,3.81,3.251,3.251,0,0,0,3.781.551Z" transform="translate(1.127 1.161)"/><path class="d" d="M1.356,4.782A.894.894,0,0,1,.81,3.19a.635.635,0,0,1-.066-.068.894.894,0,0,1-.181-.589,1.507,1.507,0,0,1,.113-.594A.8.8,0,0,1,0,1.145,1.072,1.072,0,0,1,.409.333a1.529,1.529,0,0,1,1-.333A1.608,1.608,0,0,1,2.432.329a1.2,1.2,0,0,1,.465.954,1.575,1.575,0,0,1-.7,1.245l-.018.015-.012.01,0,0c0,.027,0,.066,0,.09a.718.718,0,0,1-.247.548.893.893,0,0,1-.554,1.587Zm0-1.234a.342.342,0,0,0,0,.683.342.342,0,0,0,0-.683ZM1.4,1.056c.244,0,.4.116.4.3s-.162.322-.305.433c-.031.024-.06.046-.086.069a.818.818,0,0,0-.294.673c0,.225.059.3.242.3s.259-.061.259-.182a.556.556,0,0,1,.247-.554,1.071,1.071,0,0,0,.492-.811c0-.431-.385-.732-.937-.732-.591,0-.867.354-.867.594A.254.254,0,0,0,.811,1.4c.1,0,.141-.061.188-.131A.4.4,0,0,1,1.4,1.056Z" transform="translate(3.459 2.583)"/></g></g></svg>