<svg xmlns="http://www.w3.org/2000/svg" width="30" height="27.347" viewBox="0 0 30 27.347"><defs><style>.a{fill:#fff;}</style></defs><path class="a" d="M3.829,27.347A3.821,3.821,0,0,1,0,23.549v-1.78a1.344,1.344,0,1,1,2.688,0v1.78a1.148,1.148,0,0,0,1.141,1.11H26.171a1.105,1.105,0,0,0,1.141-1.11v-1.78a1.344,1.344,0,1,1,2.688,0v1.78a3.821,3.821,0,0,1-3.829,3.8ZM14.547,20.9a.5.5,0,0,1-.234-.033c-.035-.033-.035-.033-.069-.033h-.1l-.069-.069H14.01l-.168-.168L7.727,15.354a1.3,1.3,0,0,1-.135-1.881A1.263,1.263,0,0,1,8.5,13a1.279,1.279,0,0,1,.973.336l3.864,3.292V1.344A1.348,1.348,0,0,1,14.682,0a1.558,1.558,0,0,1,1.444,1.176l.033.066v15.42l3.864-3.325a1.334,1.334,0,1,1,1.746,2.016l-6.148,5.273-.135.135H15.42c-.033,0-.033.033-.066.033a.254.254,0,0,1-.135.069c-.069,0-.135.033-.237.033Z"/></svg>