<?xml version="1.0" encoding="UTF-8"?>
<svg width="315px" height="199px" viewBox="0 0 315 199" version="1.1" xmlns="http://www.w3.org/2000/svg" xmlns:xlink="http://www.w3.org/1999/xlink">
    <!-- Generator: Sketch 57.1 (83088) - https://sketch.com -->
    <title>email-confirmation-icon</title>
    <desc>Created with Sketch.</desc>
    <defs>
        <linearGradient x1="16.6653486%" y1="27.7436436%" x2="88.1832869%" y2="43.3305691%" id="linearGradient-1">
            <stop stop-color="#7BDAFF" offset="0%"></stop>
            <stop stop-color="#59BDEF" offset="100%"></stop>
        </linearGradient>
        <linearGradient x1="29.0772742%" y1="147.172851%" x2="61.3604811%" y2="47.6389212%" id="linearGradient-2">
            <stop stop-color="#EFA412" offset="76.77%"></stop>
            <stop stop-color="#EA9A00" offset="84.52%"></stop>
            <stop stop-color="#F2AA1C" offset="93.18%"></stop>
            <stop stop-color="#F4A203" offset="100%"></stop>
            <stop stop-color="#EFA412" offset="100%"></stop>
        </linearGradient>
        <linearGradient x1="27.6892677%" y1="147.173029%" x2="60.4191016%" y2="46.2603666%" id="linearGradient-3">
            <stop stop-color="#EFA412" offset="76.77%"></stop>
            <stop stop-color="#EA9A00" offset="84.52%"></stop>
            <stop stop-color="#F2AA1C" offset="93.18%"></stop>
            <stop stop-color="#F4A203" offset="100%"></stop>
            <stop stop-color="#EFA412" offset="100%"></stop>
        </linearGradient>
        <linearGradient x1="-6%" y1="106.612376%" x2="16.7113043%" y2="36.5884948%" id="linearGradient-4">
            <stop stop-color="#EFA412" offset="76.77%"></stop>
            <stop stop-color="#EA9A00" offset="84.52%"></stop>
            <stop stop-color="#F2AA1C" offset="93.18%"></stop>
            <stop stop-color="#F4A203" offset="100%"></stop>
            <stop stop-color="#EFA412" offset="100%"></stop>
        </linearGradient>
        <linearGradient x1="80.8330435%" y1="14.1271957%" x2="-22.2%" y2="73.9352278%" id="linearGradient-5">
            <stop stop-color="#EFA412" offset="0%"></stop>
            <stop stop-color="#FFC75A" offset="100%"></stop>
        </linearGradient>
        <linearGradient x1="83.4163091%" y1="27.7336255%" x2="11.9027949%" y2="43.3191319%" id="linearGradient-6">
            <stop stop-color="#7BDAFF" offset="0%"></stop>
            <stop stop-color="#59BDEF" offset="100%"></stop>
        </linearGradient>
        <linearGradient x1="28.9911978%" y1="147.172997%" x2="61.3027894%" y2="47.5494823%" id="linearGradient-7">
            <stop stop-color="#EFA412" offset="76.77%"></stop>
            <stop stop-color="#EA9A00" offset="84.52%"></stop>
            <stop stop-color="#F2AA1C" offset="93.18%"></stop>
            <stop stop-color="#F4A203" offset="100%"></stop>
            <stop stop-color="#EFA412" offset="100%"></stop>
        </linearGradient>
        <linearGradient x1="27.6427442%" y1="147.173139%" x2="60.3871126%" y2="46.2159274%" id="linearGradient-8">
            <stop stop-color="#F9B12B" offset="76.77%"></stop>
            <stop stop-color="#F39F25" offset="84.52%"></stop>
            <stop stop-color="#EC8D1E" offset="93.18%"></stop>
            <stop stop-color="#F4A203" offset="100%"></stop>
            <stop stop-color="#E57918" offset="100%"></stop>
        </linearGradient>
        <linearGradient x1="-6.00068871%" y1="106.779106%" x2="16.7741047%" y2="36.5616994%" id="linearGradient-9">
            <stop stop-color="#EFA412" offset="76.77%"></stop>
            <stop stop-color="#EA9A00" offset="84.52%"></stop>
            <stop stop-color="#F2AA1C" offset="93.18%"></stop>
            <stop stop-color="#F4A203" offset="100%"></stop>
            <stop stop-color="#EFA412" offset="100%"></stop>
        </linearGradient>
        <linearGradient x1="100.068823%" y1="-11.675468%" x2="-30.6015141%" y2="66.7630046%" id="linearGradient-10">
            <stop stop-color="#E57918" offset="0%"></stop>
            <stop stop-color="#F7B543" offset="100%"></stop>
        </linearGradient>
    </defs>
    <g id="Page-1" stroke="none" stroke-width="1" fill="none" fill-rule="evenodd">
        <g id="Desktop-HD-Copy-49" transform="translate(-563.000000, -155.000000)" fill-rule="nonzero">
            <g id="email-confirmation-icon" transform="translate(563.000000, 155.000000)">
                <path d="M110.2,97.2669594 L90.5,97.2669594 L97.6,90.1669594 L117.3,90.1669594 L110.2,97.2669594 Z M94.1,95.7669594 L109.5,95.7669594 L113.6,91.6669594 L98.2,91.6669594 L94.1,95.7669594 Z" id="Shape" fill="#EFA412"></path>
                <path d="M114,57.6669594 L94.4,57.6669594 L87,50.3669594 L106.7,50.3669594 L114,57.6669594 Z M95,56.1669594 L110.4,56.1669594 L106.1,51.8669594 L90.7,51.8669594 L95,56.1669594 Z" id="Shape" fill="#F4A326"></path>
                <path d="M41.4,97.2669594 L21.7,97.2669594 L14.6,90.1669594 L34.3,90.1669594 L41.4,97.2669594 Z M22.4,95.7669594 L37.8,95.7669594 L33.7,91.6669594 L18.3,91.6669594 L22.4,95.7669594 Z" id="Shape" fill="#F4A326"></path>
                <path d="M122.9,84.4669594 L103.2,84.4669594 L112.2,75.4669594 L100,63.3669594 L119.7,63.3669594 L131.9,75.5669594 L122.9,84.4669594 Z M106.9,82.9669594 L122.3,82.9669594 L129.8,75.4669594 L119.1,64.8669594 L103.7,64.8669594 L114.4,75.5669594 L106.9,82.9669594 Z" id="Shape" fill="#EFA412"></path>
                <path d="M28.7,84.4669594 L9,84.4669594 L7.38964445e-13,75.4669594 L38.2,37.2669594 L57.9,37.2669594 L19.7,75.5669594 L28.7,84.4669594 Z M9.6,82.9669594 L25,82.9669594 L17.5,75.4669594 L54.2,38.8669594 L38.8,38.8669594 L2.1,75.5669594 L9.6,82.9669594 Z" id="Shape" fill="#F4A326"></path>
                <path d="M66,141.466959 L31.2,106.666959 L50.9,106.666959 L66,121.766959 L81.1,106.666959 L100.8,106.666959 L66,141.466959 Z M34.8,108.166959 L66,139.366959 L97.2,108.166959 L81.7,108.166959 L66,123.966959 L50.2,108.166959 L34.8,108.166959 Z" id="Shape" fill="#F4A326"></path>
                <path d="M88.1,31.6669594 L43.8,31.6669594 L66,9.56695942 L88.1,31.6669594 Z M47.5,30.1669594 L84.5,30.1669594 L66,11.6669594 L47.5,30.1669594 Z" id="Shape" fill="#F4A326"></path>
                <path d="M101.1,44.6669594 L81.4,44.6669594 L74.1,37.3669594 L93.8,37.3669594 L101.1,44.6669594 Z M82,43.1669594 L97.4,43.1669594 L93.1,38.8669594 L77.7,38.8669594 L82,43.1669594 Z" id="Shape" fill="#F4A326"></path>
                <g id="Group" opacity="0.8" transform="translate(244.000000, 17.999959)">
                    <path d="M69.7,34.567 L69.7,34.467 L69.7,34.367 L69.7,34.267 C69.3,33.367 68.7,32.467 67.9,32.067 L67.7,31.967 L41.3,16.667 L14.9,1.367 L14.7,1.267 C13.9,0.867 13.2,0.867 12.5,1.167 C12.5,1.167 12.5,1.167 12.4,1.167 C12.4,1.167 12.4,1.167 12.3,1.167 L8.8,3.167 L10.8,4.067 L3.8,41.067 C3.6,42.067 3.8,43.067 4.2,44.067 L4.2,44.167 C4.2,44.167 4.2,44.167 4.2,44.267 C4.6,45.167 5.2,46.067 6,46.467 L58.7,76.867 L58.2,79.167 L61.5,77.267 C61.5,77.267 61.5,77.267 61.6,77.267 C62.2,76.967 62.7,76.267 62.9,75.267 L70,37.367 C70.2,36.467 70.1,35.467 69.7,34.567 Z" id="Path" fill="#FFFFFF" opacity="0.5"></path>
                    <g opacity="0.5" transform="translate(0.000000, 2.000000)" id="Path">
                        <path d="M55.9,77.167 L2.6,46.367 C1,45.467 -5.55111512e-17,42.967 0.4,40.767 L7.4,3.467 C7.8,1.367 9.4,0.367 11,1.267 L64.3,32.067 C65.9,32.967 66.9,35.467 66.5,37.667 L59.5,74.967 C59.1,77.167 57.5,78.067 55.9,77.167 Z" fill="url(#linearGradient-1)"></path>
                        <path d="M64.2,31.967 L37.8,16.667 L29.5,60.567 L55.7,77.067 C57.4,78.067 59.1,77.267 59.5,75.267 L66.6,37.367 C67,35.367 65.9,32.967 64.2,31.967 Z" fill="url(#linearGradient-2)"></path>
                        <path d="M11.3,1.467 L37.7,16.767 L29.5,60.367 L2.8,46.567 C1.1,45.567 0,43.167 0.3,41.167 L7.4,3.267 C7.9,1.267 9.6,0.467 11.3,1.467 Z" fill="url(#linearGradient-3)"></path>
                        <g transform="translate(0.000000, 33.000000)" fill="url(#linearGradient-4)">
                            <path d="M0.7,10.967 C1.1,12.067 1.9,12.967 2.8,13.567 L55.6,44.067 C56.5,44.567 57.5,44.567 58.2,44.167 L34.5,0.567 L0.7,10.967 Z"></path>
                        </g>
                        <g transform="translate(8.000000, 1.000000)" fill="url(#linearGradient-5)">
                            <path d="M58.3,33.567 C57.9,32.467 57.1,31.567 56.2,30.967 L3.4,0.467 C2.5,-0.033 1.5,-0.033 0.8,0.367 L24.4,43.867 L58.3,33.567 Z"></path>
                        </g>
                    </g>
                </g>
                <g id="Group-64" transform="translate(65.944948, 0.000000)">
                    <path d="M1.05505184,84.6669594 C1.05505184,84.5669594 1.15505184,84.4669594 1.15505184,84.3669594 C1.15505184,84.2669594 1.25505184,84.2669594 1.25505184,84.1669594 C1.25505184,84.0669594 1.35505184,84.0669594 1.35505184,83.9669594 C2.35505184,81.5669594 3.95505184,79.5669594 5.85505184,78.4669594 L6.35505184,78.1669594 L73.0550518,39.6669594 L139.755052,1.16695942 L140.255052,0.866959416 C142.155052,-0.233040584 144.155052,-0.233040584 145.755052,0.566959416 C145.755052,0.566959416 145.855052,0.566959416 145.855052,0.666959416 C145.855052,0.666959416 145.955052,0.666959416 145.955052,0.766959416 L154.755052,5.86695942 L149.855052,7.86695942 L167.455052,101.266959 C167.955052,103.666959 167.555052,106.366959 166.455052,108.766959 C166.455052,108.866959 166.355052,108.866959 166.355052,108.966959 C166.355052,109.066959 166.255052,109.066959 166.255052,109.166959 C165.255052,111.566959 163.655052,113.566959 161.755052,114.666959 L28.7550518,191.566959 L29.9550518,197.466959 L21.6550518,192.666959 C21.6550518,192.666959 21.5550518,192.666959 21.5550518,192.566959 C19.9550518,191.666959 18.6550518,189.966959 18.2550518,187.566959 L0.155051837,91.8669594 C-0.244948163,89.5669594 0.155051837,86.9669594 1.05505184,84.6669594 Z" id="Path" fill="#FFF0D2"></path>
                    <path d="M35.9550518,197.366959 L170.455052,119.666959 C174.555052,117.366959 176.955052,110.966959 175.955052,105.566959 L158.155052,11.2669594 C157.155052,5.86695942 152.955052,3.36695942 148.955052,5.66695942 L14.4550518,83.4669594 C10.3550518,85.7669594 7.95505184,92.1669594 8.95505184,97.5669594 L26.7550518,191.866959 C27.7550518,197.266959 31.9550518,199.766959 35.9550518,197.366959 Z" id="Path" fill="url(#linearGradient-6)"></path>
                    <path d="M15.0550518,83.1669594 L81.7550518,44.6669594 L102.655052,155.466959 L36.5550518,197.066959 C32.1550518,199.566959 27.8550518,197.566959 26.9550518,192.466959 L8.85505184,96.8669594 C7.85505184,91.7669594 10.6550518,85.6669594 15.0550518,83.1669594 Z" id="Path" fill="url(#linearGradient-7)"></path>
                    <path d="M148.455052,6.06695942 L81.7550518,44.5669594 L102.555052,154.666959 L169.955052,119.966959 C174.355052,117.466959 177.055052,111.266959 176.155052,106.266959 L158.155052,10.5669594 C157.155052,5.56695942 152.855052,3.56695942 148.455052,6.06695942 Z" id="Path" fill="url(#linearGradient-8)"></path>
                    <path d="M175.355052,113.466959 C174.255052,116.166959 172.355052,118.666959 170.055052,119.966959 L36.6550518,197.066959 C34.2550518,198.466959 31.9550518,198.466959 30.1550518,197.366959 L89.9550518,87.1669594 L175.355052,113.466959 Z" id="Path" fill="url(#linearGradient-9)"></path>
                    <path d="M9.65505184,89.6669594 C10.7550518,86.9669594 12.6550518,84.4669594 14.9550518,83.1669594 L148.455052,6.06695942 C150.855052,4.66695942 153.155052,4.66695942 154.955052,5.76695942 L95.2550518,115.866959 L9.65505184,89.6669594 Z" id="Path" fill="url(#linearGradient-10)"></path>
                </g>
                <polygon id="Path" fill="#FFFFFF" points="304.547 113.139959 303.274 111.866959 302.001 113.139959 303.274 114.412959"></polygon>
                <polygon id="Path" fill="#FFFFFF" points="309.197 113.085959 307.925 111.813959 306.652 113.085959 307.925 114.358959"></polygon>
                <polygon id="Path" fill="#FFFFFF" points="306.85 110.846959 305.577 109.574959 304.305 110.846959 305.577 112.119959"></polygon>
                <polygon id="Path" fill="#FFFFFF" points="306.894 115.378959 305.621 114.105959 304.349 115.378959 305.621 116.651959"></polygon>
                <polygon id="Path" fill="#F5A303" points="279.6 152.166959 260.6 152.166959 260.6 155.266959 279.6 155.266959"></polygon>
                <polygon id="Path" fill="#F5A303" points="302.9 152.166959 283.9 152.166959 283.9 155.266959 302.9 155.266959"></polygon>
                <path d="M277.2,162.966959 L260.5,162.966959 L260.5,158.966959 L277.2,158.966959 L277.2,162.966959 Z M261.5,161.966959 L276.3,161.966959 L276.3,159.866959 L261.5,159.866959 L261.5,161.966959 Z" id="Shape" fill="#F5A303"></path>
                <polygon id="Path" fill="#F5A303" points="265.7 166.466959 260.6 166.466959 260.6 169.566959 265.7 169.566959"></polygon>
            </g>
        </g>
    </g>
</svg>