<svg xmlns="http://www.w3.org/2000/svg" width="48.37" height="48.37" viewBox="0 0 48.37 48.37"><defs><style>.a{fill:#fff;}</style></defs><path class="a" d="M34.134,26.506q-.145-.437-1.846-1.287-.461-.268-1.311-.729t-1.543-.851q-.693-.389-1.3-.753-.1-.073-.607-.425a6.828,6.828,0,0,0-.863-.522,1.591,1.591,0,0,0-.693-.17,2.016,2.016,0,0,0-1.214.692,11.83,11.83,0,0,0-1.336,1.507,14.648,14.648,0,0,1-1.287,1.506,1.852,1.852,0,0,1-1.118.693,1.652,1.652,0,0,1-.547-.121c-.218-.081-.384-.15-.5-.206s-.307-.17-.582-.341-.43-.263-.462-.28a25.532,25.532,0,0,1-5.709-4.227,25.518,25.518,0,0,1-4.227-5.71q-.024-.049-.279-.462t-.34-.583a5.265,5.265,0,0,1-.206-.5,1.644,1.644,0,0,1-.121-.547,1.851,1.851,0,0,1,.693-1.118,14.633,14.633,0,0,1,1.506-1.287,11.824,11.824,0,0,0,1.506-1.336,2.017,2.017,0,0,0,.692-1.215,1.586,1.586,0,0,0-.17-.692,6.754,6.754,0,0,0-.522-.863q-.353-.51-.425-.608-.364-.607-.753-1.3T9.718,3.231q-.461-.85-.729-1.312Q8.139.219,7.7.073A1.361,1.361,0,0,0,7.192,0,8,8,0,0,0,5.479.243a9.621,9.621,0,0,0-1.664.51A6.513,6.513,0,0,0,1.239,3.717,9.419,9.419,0,0,0,0,8.236,9.383,9.383,0,0,0,.085,9.511a10.482,10.482,0,0,0,.3,1.4q.219.777.352,1.154t.5,1.348q.364.972.437,1.19a22.007,22.007,0,0,0,2.016,4.252A36.024,36.024,0,0,0,8.928,25.28a36.04,36.04,0,0,0,6.426,5.236,22.04,22.04,0,0,0,4.252,2.017q.219.073,1.19.437t1.348.5q.376.134,1.154.353a10.576,10.576,0,0,0,1.4.3A9.012,9.012,0,0,0,30.49,32.97a6.509,6.509,0,0,0,2.963-2.576,9.568,9.568,0,0,0,.51-1.664,7.987,7.987,0,0,0,.243-1.713A1.355,1.355,0,0,0,34.134,26.506Z" transform="matrix(-0.719, 0.695, -0.695, -0.719, 48.37, 24.608)"/></svg>