<?xml version="1.0" encoding="UTF-8"?>
<svg width="24px" height="24px" viewBox="0 0 24 24" version="1.1" xmlns="http://www.w3.org/2000/svg" xmlns:xlink="http://www.w3.org/1999/xlink">
    <!-- Generator: Sketch 57.1 (83088) - https://sketch.com -->
    <title>end-call-icon</title>
    <desc>Created with Sketch.</desc>
    <g id="Page-1" stroke="none" stroke-width="1" fill="none" fill-rule="evenodd">
        <g id="Desktop-HD-Copy-47" transform="translate(-928.000000, -914.000000)" fill="#FFFFFF" fill-rule="nonzero">
            <g id="Group-23" transform="translate(470.000000, 896.000000)">
                <g id="Group-21-Copy" transform="translate(440.000000, 0.000000)">
                    <g id="Group-19">
                        <path d="M37.3972987,22.9926563 C37.5493543,23.144323 37.5683612,23.3786771 37.4543196,23.5513134 L37.3972987,23.6211007 L19.1750765,41.843323 C19.0884099,41.9299896 18.9746321,41.9735452 18.8608543,41.9735452 C18.7470765,41.9735452 18.6332987,41.9299896 18.5466321,41.843323 C18.3945765,41.6912674 18.3755696,41.4572049 18.4896112,41.2846476 L18.5466321,41.2148785 L36.7688543,22.9926563 C36.9426321,22.8188785 37.223521,22.8188785 37.3972987,22.9926563 Z M37.5892987,32.5851007 C37.7257432,32.6651007 40.8248543,34.4944341 41.7172987,36.1815452 C42.1422987,36.9836285 42.0317519,37.9435243 41.4519423,38.6247092 L41.3297432,38.7571007 L40.2021876,39.8846563 C38.8124099,41.2744341 37.2781876,41.9739896 35.6261876,41.9739896 C35.1577432,41.9739896 34.6799654,41.9175452 34.1932987,41.8051007 C32.4539303,41.4025744 30.6080578,40.2700758 28.7032961,38.4363251 L28.3852987,38.1242118 L26.6110765,36.3499896 C26.4372987,36.1762118 26.4372987,35.895323 26.6110765,35.7215452 C26.7631321,35.5694896 26.9971946,35.5504827 27.1697519,35.6645243 L27.239521,35.7215452 L29.0137432,37.4957674 C30.911521,39.3939896 32.7217432,40.5526563 34.3937432,40.939323 C36.2226128,41.3606176 37.8522301,40.8767378 39.3673878,39.4553999 L39.5732987,39.2557674 L40.7008543,38.1282118 C41.1079654,37.7211007 41.2004099,37.1059896 40.931521,36.5971007 C40.2879654,35.3806563 37.979521,33.8442118 37.1444099,33.3544341 C36.799521,33.1579896 36.4337432,33.0811007 36.1728543,33.1544341 C36.0448543,33.1899896 35.9413165,33.2608163 35.8590552,33.3696447 L35.8012987,33.4584341 L35.7550765,33.5246563 C35.4390765,33.9042118 34.6737432,34.8064341 34.3946321,34.995323 C34.0439654,35.2331007 33.6981876,35.4028785 33.3577432,35.5051007 C34.051521,35.8246563 34.8839654,36.1002118 35.8239654,36.1975452 C36.0679654,36.223323 36.2457432,36.4415452 36.2204099,36.6859896 C36.1964099,36.9139896 36.003521,37.0842118 35.7786321,37.0842118 C35.763521,37.0842118 35.7479654,37.083323 35.7324099,37.0819896 C32.6679654,36.7637674 30.6612987,34.8171007 30.5772987,34.7339896 L30.5519099,34.7002674 L30.5519099,34.7002674 L30.5301876,34.6642118 L30.4706321,34.6082118 L29.411521,33.5495452 C29.2377432,33.3757674 29.2377432,33.0948785 29.411521,32.9211007 C29.5635765,32.7690452 29.797639,32.7500382 29.9701963,32.8640799 L30.0399654,32.9211007 L31.0990765,33.9797674 C32.0070765,34.8877674 32.8430765,34.9722118 33.8968543,34.259323 C34.0332987,34.1611007 34.5950765,33.527323 35.0484099,32.9851007 C35.2546321,32.639323 35.5599654,32.4019896 35.935521,32.2979896 C36.4337432,32.1606563 37.0217432,32.2615452 37.5892987,32.5851007 Z M21.2164099,18.6442118 C21.9012987,17.959323 22.935521,17.8042118 23.791521,18.2575452 C25.4786321,19.1495452 27.3079654,22.2486563 27.3848543,22.3802118 C27.7066321,22.9442118 27.811521,23.547323 27.6750765,24.0388785 C27.5710765,24.4144341 27.3337432,24.7197674 26.9879654,24.9255452 C26.4452987,25.379323 25.8119654,25.9415452 25.7119654,26.079323 C25.0008543,27.1295452 25.0844099,27.9664341 25.9928543,28.875323 L25.9928543,28.875323 L27.5248543,30.407323 C27.6986321,30.5811007 27.6986321,30.8619896 27.5248543,31.0357674 C27.3510765,31.2095452 27.0701876,31.2095452 26.8964099,31.0357674 L26.8964099,31.0357674 L25.7532987,29.8926563 L25.7532987,29.8926563 L25.7172987,29.8722118 C25.615521,29.7882118 23.2119654,27.7766563 22.8910765,24.6864341 C22.8661876,24.4419896 23.043521,24.2237674 23.287521,24.1979896 C23.5332987,24.1771007 23.7501876,24.3504341 23.7759654,24.5944341 C23.859521,25.403323 24.1150765,26.1335452 24.4310765,26.7637674 C24.5257432,26.3757674 24.7057432,25.9811007 24.9777432,25.579323 C25.1670765,25.2997674 26.0692987,24.5344341 26.4484099,24.2184341 L26.4484099,24.2184341 L26.515521,24.1722118 C26.675521,24.0824341 26.7746321,23.9611007 26.8190765,23.8011007 C26.891521,23.5397674 26.815521,23.1748785 26.6159654,22.8246563 C26.6012987,22.799323 24.8404099,19.8171007 23.3764099,19.0424341 C22.8679654,18.7726563 22.251521,18.8664341 21.8448543,19.2731007 L21.8448543,19.2731007 L20.7172987,20.4006563 C19.1430765,21.9748785 18.5928543,23.6691007 19.0346321,25.5802118 C19.4212987,27.2517674 20.5799654,29.0619896 22.4781876,30.9602118 L22.4781876,30.9602118 L24.7252987,33.2077674 C24.8990765,33.3815452 24.8990765,33.6624341 24.7252987,33.8362118 C24.6386321,33.9228785 24.5248543,33.9664341 24.4110765,33.9664341 C24.2972987,33.9664341 24.183521,33.9228785 24.0968543,33.8362118 L24.0968543,33.8362118 L21.8497432,31.5886563 C19.8319654,29.571323 18.5937432,27.6171007 18.1688543,25.7806563 C17.6590765,23.5771007 18.3048543,21.5557674 20.0888543,19.7717674 L20.0888543,19.7717674 Z" id="end-call-icon"></path>
                    </g>
                </g>
            </g>
        </g>
    </g>
</svg>