<?xml version="1.0" encoding="UTF-8"?>
<svg width="32px" height="31px" viewBox="0 0 32 31" version="1.1" xmlns="http://www.w3.org/2000/svg" xmlns:xlink="http://www.w3.org/1999/xlink">
    <!-- Generator: Sketch 57.1 (83088) - https://sketch.com -->
    <title>expand-icon</title>
    <desc>Created with Sketch.</desc>
    <g id="Page-1" stroke="none" stroke-width="1" fill="none" fill-rule="evenodd">
        <g id="Desktop-HD-Copy-47" transform="translate(-115.000000, -78.000000)" fill="#FFFFFF" fill-rule="nonzero">
            <g id="noun_enlarge_2149068" transform="translate(115.000000, 78.000000)">
                <g id="expand-icon" transform="translate(0.680000, 0.000000)">
                    <path d="M22.2478816,21.2630815 L22.3402431,21.3449016 L28.7872371,27.8778556 L28.7497546,24.816483 C28.7422581,24.3075203 29.1395728,23.8973115 29.6343421,23.8897151 C30.0937708,23.8826612 30.4820974,24.2293078 30.5352286,24.6802866 L30.5414192,24.7860971 L30.6088877,30.0884249 C30.6163842,30.339108 30.5189297,30.5670017 30.3465101,30.7417203 C30.2028271,30.8873191 30.0227027,30.969614 29.8278283,30.9930013 L29.7093072,30.9999998 L29.6943142,30.9999998 L24.4617539,30.9316317 C23.9669846,30.9240353 23.5696698,30.5138265 23.5771664,30.0124603 C23.5840862,29.5496607 23.9231589,29.1645338 24.3644324,29.1080219 L24.4767469,29.1008853 L24.4917399,29.1008853 L27.5128313,29.1540605 L21.0658373,22.6362995 C20.7135016,22.279266 20.7135016,21.7019352 21.0658373,21.3449016 C21.3888117,21.0176209 21.8944613,20.9903475 22.2478816,21.2630815 Z M8.56166748,21.3449016 C8.9140032,20.9878681 9.48373756,20.9878681 9.82857677,21.3297087 C10.1809125,21.6867422 10.1809125,22.2564766 9.82857677,22.6135101 L9.82857677,22.6135101 L3.38158275,29.1388676 L6.40267413,29.0856924 L6.40267413,29.0856924 L6.41766714,29.0856924 C6.91243645,29.0856924 7.3097512,29.4959012 7.3172477,29.9972674 C7.32474421,30.5062301 6.92742946,30.9240353 6.43266015,30.9316317 L6.43266015,30.9316317 L1.20009989,30.9924034 L1.20009989,30.9924034 L1.18510688,30.9924034 C0.945218728,30.9924034 0.720323587,30.9088424 0.54790398,30.7341238 C0.375484372,30.5594053 0.285526316,30.3315115 0.285526316,30.0884249 L0.285526316,30.0884249 L0.352994858,24.7860971 C0.360491363,24.2847309 0.77279912,23.8821186 1.26756843,23.8897151 C1.76233774,23.8973115 2.15965249,24.3151167 2.15215598,24.816483 L2.15215598,24.816483 L2.11467346,27.8778556 Z M29.7018107,0.295116311 C29.9416988,0.287519853 30.1740905,0.386273808 30.3615031,0.560992344 C30.5051861,0.706591124 30.5916041,0.899667767 30.616419,1.10065739 L30.6238808,1.2218842 L30.5564122,6.53180839 C30.5494924,6.99460799 30.2104197,7.38620765 29.7691461,7.44371529 L29.6568316,7.45097982 L29.6418386,7.45097982 C29.1851285,7.38085867 28.8114566,7.06477409 28.7625672,6.62222249 L28.7572511,6.50901902 L28.7947336,3.4324535 L22.3477396,9.96540744 C22.1678235,10.140126 21.9429283,10.2312835 21.7105367,10.2312835 C21.478145,10.2312835 21.2457534,10.140126 21.0733338,9.96540744 C20.7503594,9.63812671 20.7234448,9.13211819 20.9925902,8.77504949 L21.0733338,8.68160603 L27.5203278,2.15624854 L24.4992364,2.20942375 L24.4842434,2.20942375 C23.9894741,2.20942375 23.5921594,1.79921501 23.5846629,1.29784878 C23.5777018,0.832294418 23.9197872,0.432240131 24.3648321,0.371382647 L24.4692504,0.363484434 L29.7018107,0.295116311 Z M1.20759639,0.287519853 L6.44015666,0.355887976 C6.93492597,0.363484434 7.33224071,0.781289628 7.32474421,1.28265586 C7.31778317,1.74821022 6.96177569,2.12861449 6.51481299,2.17450053 L6.41017064,2.17903791 L3.38907925,2.14105562 L9.85106629,8.66641311 C10.203402,9.02344664 10.203402,9.60077745 9.85106629,9.95781098 C9.67115017,10.1325295 9.44625503,10.223687 9.21386339,10.223687 C9.02020368,10.223687 8.82654398,10.1603832 8.66759032,10.0381717 L8.57666049,9.95781098 L2.12966647,3.4324535 L2.16714899,6.50142256 C2.17406884,6.97123427 1.83606076,7.31159155 1.39486911,7.42092246 L1.28256144,7.44338336 L1.26756843,7.44338336 C0.810858298,7.44338336 0.437186372,7.08738367 0.376504606,6.63827636 L0.367987867,6.52421193 L0.300519325,1.20669128 C0.29302282,0.963604622 0.390477381,0.728114422 0.562896989,0.553395886 C0.727820092,0.37867735 0.967708242,0.279923395 1.20759639,0.287519853 Z" id="Combined-Shape"></path>
                </g>
            </g>
        </g>
    </g>
</svg>