<?xml version="1.0" encoding="UTF-8"?>
<svg width="27px" height="27px" viewBox="0 0 27 27" version="1.1" xmlns="http://www.w3.org/2000/svg" xmlns:xlink="http://www.w3.org/1999/xlink">
    <!-- Generator: Sketch 57.1 (83088) - https://sketch.com -->
    <title>explore-info-icon</title>
    <desc>Created with Sketch.</desc>
    <g id="Page-1" stroke="none" stroke-width="1" fill="none" fill-rule="evenodd">
        <g id="Pricing-Copy-4" transform="translate(-606.000000, -1465.000000)" fill-rule="nonzero">
            <g id="Group-38" transform="translate(0.000000, 836.000000)">
                <g id="Group-18" transform="translate(250.000000, 70.000000)">
                    <g id="Group-15" transform="translate(332.000000, 542.000000)">
                        <g id="explore-info-icon" transform="translate(24.000000, 17.000000)">
                            <g id="Group">
                                <path d="M17.8041467,16.8723212 C17.138557,17.6710288 16.2954767,18.3809911 15.3192785,18.8690903 C15.3192785,17.5822835 15.3192785,16.2954767 15.3192785,15.00867 L15.3192785,10.5270327 C15.3192785,10.48266 15.3192785,10.3939147 15.3192785,10.3495421 C15.3192785,10.1720515 15.4080238,10.0833062 15.5411418,10.0833062 C15.763005,10.0833062 15.9404956,10.0833062 16.1623588,10.0833062 C16.6060853,10.0833062 17.0498117,10.0833062 17.4935382,10.0833062 C17.7154014,10.0833062 17.8041467,10.1720515 17.8041467,10.3939147 C17.8041467,12.5681744 17.8041467,14.7424341 17.8041467,16.8723212 Z" id="Path" fill="#0074BD"></path>
                                <path d="M14.5205709,13.5887453 C14.5205709,15.1861606 14.5205709,16.7392032 14.5205709,18.3366185 C14.5205709,18.647227 14.5205709,18.9578356 14.5205709,19.2684441 C13.7662359,19.5790526 12.9675282,19.7565432 12.1244479,19.8452885 C12.0800753,19.8009158 12.0357027,19.7121706 12.0357027,19.5790526 L12.0357027,13.5887453 C12.0357027,13.3668821 12.1244479,13.2781368 12.3019385,13.2781368 C12.9231556,13.2781368 13.5443726,13.2781368 14.1655897,13.2781368 C14.4318256,13.2781368 14.5205709,13.3225094 14.5205709,13.5887453 Z" id="Path" fill="#0074BD"></path>
                                <path d="M11.1926224,15.763005 C11.1926224,17.0498117 11.1926224,18.3366185 11.1926224,19.6234253 C11.1926224,19.7565432 11.1482497,19.8452885 11.0595044,19.8896611 L8.75212679,19.4903073 C8.75212679,18.8690903 8.75212679,18.2478732 8.75212679,17.6710288 C8.75212679,17.0498117 8.75212679,16.384222 8.75212679,15.763005 C8.75212679,15.5411418 8.84087209,15.4523965 9.06273532,15.4523965 C9.68395238,15.4523965 10.3051694,15.4523965 10.9263865,15.4523965 C11.1482497,15.4523965 11.1926224,15.5411418 11.1926224,15.763005 Z" id="Path" fill="#0074BD"></path>
                                <path d="M17.0054391,6.17851328 C16.8723212,6.84410298 16.7835759,7.50969268 16.6504579,8.17528239 C16.6504579,8.21965503 16.6504579,8.21965503 16.6504579,8.26402768 C16.6060853,8.44151827 16.4729673,8.48589091 16.3398494,8.39714562 C16.1623588,8.21965503 15.9404956,8.04216444 15.763005,7.82030121 C15.4080238,8.21965503 15.0974153,8.6633815 14.7424341,9.01836267 C12.9675282,11.1038771 10.9707591,12.8787829 8.6633815,14.2099623 C7.55406533,14.8311794 6.44474916,15.3192785 5.2466877,15.5855144 C5.1579424,15.5855144 5.06919711,15.629887 4.98045182,15.629887 C4.84733388,15.629887 4.75858858,15.5855144 4.71421594,15.4523965 C4.71421594,15.3192785 4.75858858,15.2305332 4.89170652,15.2305332 C5.60166887,15.0974153 6.26725857,14.8755521 6.93284828,14.6093162 C8.17528239,14.0768444 9.3289712,13.3668821 10.4382874,12.5681744 C12.3019385,11.1926224 13.9437265,9.46208914 15.4080238,7.59843798 C15.4080238,7.59843798 15.4080238,7.55406533 15.4523965,7.55406533 C15.3192785,7.42094739 15.2305332,7.3322021 15.0974153,7.19908416 C15.0530426,7.15471151 14.9642973,7.06596622 14.9199247,7.02159357 C14.7424341,6.84410298 14.7868068,6.66661239 15.00867,6.62223975 C15.3636512,6.48912181 15.763005,6.35600387 16.1179862,6.17851328 C16.3398494,6.08976799 16.5617126,6.00102269 16.7835759,5.9122774 C16.9166938,5.82353211 17.0498117,5.95665005 17.0054391,6.17851328 Z" id="Path" fill="#0070BD"></path>
                                <path d="M24.4156711,26.5455582 C24.7262796,26.8561667 25.0812608,26.9892846 25.4806146,26.9892846 C25.8799685,26.9892846 26.2349496,26.8561667 26.5455582,26.5455582 C27.1224026,25.9687137 27.1224026,25.0368882 26.5455582,24.4600438 L21.1320952,19.0022082 L20.289015,18.1591279 C21.7533123,16.2511041 22.5963926,13.8993538 22.5963926,11.3257403 C22.5963926,5.11356976 17.5379109,0.0550880228 11.3257403,0.0550880228 C5.11356976,0.010715376 0.0550880228,5.06919711 0.0550880228,11.2813677 C0.0550880228,17.4935382 5.11356976,22.5520199 11.3257403,22.5520199 C13.8993538,22.5520199 16.2954767,21.664567 18.2035006,20.2002697 L19.0465808,21.04335 L24.4156711,26.5455582 Z M18.9134629,17.1829297 C18.5584817,17.6266562 18.2035006,18.02601 17.8041467,18.3809911 C17.6266562,18.5584817 17.4491656,18.6915997 17.2273023,18.8690903 C16.7835759,19.2240714 16.2954767,19.53468 15.8073776,19.8009158 C14.4761982,20.5108782 12.9231556,20.910232 11.3257403,20.910232 C9.68395238,20.910232 8.17528239,20.5108782 6.84410298,19.8009158 C6.35600387,19.53468 5.9122774,19.2684441 5.46855093,18.9134629 C3.1611733,17.1829297 1.69687595,14.3874529 1.69687595,11.2813677 C1.69687595,5.95665005 6.00102269,1.65250331 11.3257403,1.65250331 C16.6504579,1.65250331 20.9546047,5.95665005 20.9546047,11.2813677 C20.9546047,13.5 20.2002697,15.5855144 18.9134629,17.1829297 Z" id="Shape" fill="#2C3E51"></path>
                                <path d="M7.9090465,16.8279485 C7.9090465,17.3160476 7.9090465,17.7597741 7.9090465,18.2478732 L7.9090465,19.2240714 C6.97722092,18.8247176 6.17851328,18.2478732 5.42417828,17.5822835 L5.42417828,16.8723212 C5.42417828,16.6504579 5.51292358,16.5617126 5.69041417,16.5617126 C6.31163122,16.5617126 6.97722092,16.5617126 7.59843798,16.5617126 C7.82030121,16.51734 7.9090465,16.6504579 7.9090465,16.8279485 Z" id="Path" fill="#0074BD"></path>
                                <path d="M11.0595044,19.8896611 L8.75212679,19.4903073" id="Path" fill="#000000"></path>
                            </g>
                        </g>
                    </g>
                </g>
            </g>
        </g>
    </g>
</svg>