<?xml version="1.0" encoding="UTF-8"?>
<svg width="21px" height="16px" viewBox="0 0 21 16" version="1.1" xmlns="http://www.w3.org/2000/svg" xmlns:xlink="http://www.w3.org/1999/xlink">
    <!-- Generator: Sketch 57.1 (83088) - https://sketch.com -->
    <title>eye-close-icon</title>
    <desc>Created with Sketch.</desc>
    <g id="Page-1" stroke="none" stroke-width="1" fill="none" fill-rule="evenodd">
        <g id="Desktop-HD-Copy-20" transform="translate(-1152.000000, -271.000000)" fill="#FFFFFF">
            <g id="Group-7" transform="translate(1073.000000, 253.000000)">
                <g id="Group-6">
                    <g id="Group-5" transform="translate(79.000000, 16.000000)">
                        <path d="M15.7308903,2.07345435 C15.8426449,1.97551522 16.0096636,1.97551522 16.1214181,2.07345435 L16.1214181,2.07345435 L17.2526022,3.0430407 C17.3202732,3.09101562 17.3604871,3.16881959 17.3604871,3.2517711 C17.3604871,3.3347226 17.3202732,3.41252657 17.2526022,3.46050149 L17.2526022,3.46050149 L5.29437057,17.4656376 C5.18261599,17.5635768 5.01559732,17.5635768 4.90384274,17.4656376 L4.90384274,17.4656376 L3.78612514,16.5095178 C3.72291888,16.4557866 3.68649301,16.3770124 3.68649301,16.2940541 C3.68649301,16.2110959 3.72291888,16.1323216 3.78612514,16.0785905 L3.78612514,16.0785905 Z M14.4381085,8.87402527 L16.6870102,6.18072986 C18.195396,7.04365372 19.5889469,8.09334139 20.8346851,9.30495254 C20.9648753,9.42713837 21.0387274,9.59773273 21.0387274,9.77627924 C21.0387274,9.95482575 20.9648753,10.1254201 20.8346851,10.2476059 C19.4880374,11.5673207 15.3807619,15.1628701 10.5193637,15.1628701 C10.218817,15.1595164 9.91866068,15.1424006 9.61983616,15.1115979 L9.17271597,15.0551383 L10.1961682,13.8162224 L10.5193637,13.8162224 C12.7505627,13.8162224 14.5593068,12.0074782 14.5593068,9.77627924 C14.5523231,9.54819294 14.5277319,9.32110118 14.4858045,9.09702349 L14.4381085,8.87402527 L16.6870102,6.18072986 Z M10.5193637,4.38968841 C10.8738552,4.38439972 11.2282871,4.39826663 11.5811119,4.43120072 L11.9333438,4.47048727 L10.8425591,5.73633612 L10.5193637,5.73633612 C8.2881647,5.73633612 6.47942055,7.54508026 6.47942055,9.77627924 C6.48355425,10.0179034 6.50744758,10.2586487 6.55079628,10.4961149 L6.60061885,10.7323991 L4.35171718,13.3718286 C2.84333135,12.5089048 1.44978048,11.4592171 0.204042237,10.2476059 C0.0738520726,10.1254201 -1.22390986e-12,9.95482575 -1.22390986e-12,9.77627924 C-1.22390986e-12,9.59773273 0.0738520726,9.42713837 0.204042237,9.30495254 C1.55068994,7.98523779 5.65796545,4.38968841 10.5193637,4.38968841 Z" id="eye-close-icon"></path>
                    </g>
                </g>
            </g>
        </g>
    </g>
</svg>