<svg xmlns="http://www.w3.org/2000/svg" width="122" height="122" viewBox="0 0 122 122"><g transform="translate(3331 3)"><path d="M117.983,4.068V99.675a6.1,6.1,0,0,1-6.1,6.1H6.1a6.1,6.1,0,0,1-6.1-6.1V4.068L2.034,0H115.949Z" transform="translate(-3328.873 11.332)" fill="#ebebeb"/><path d="M117.983,4.068V99.675a6.276,6.276,0,0,1-6.435,6.1H6.435A6.276,6.276,0,0,1,0,99.675V4.068L2.145,0H115.838Z" transform="translate(-3328.873 11.332)" fill="#fff"/><path d="M118,6.1V16.274H0V6.1A6.1,6.1,0,0,1,6.1,0H111.9A6.1,6.1,0,0,1,118,6.1Z" transform="translate(-3328.873 -0.873)" fill="#faf6f6"/><g transform="translate(-3331 -3)"><path d="M2.033,20.334A2.034,2.034,0,0,1,0,18.3V8.133A8.133,8.133,0,0,1,8.133,0H113.867A8.133,8.133,0,0,1,122,8.133V18.3a2.033,2.033,0,0,1-2.034,2.033H105.734a2.033,2.033,0,1,1,0-4.066h12.2V8.133a4.067,4.067,0,0,0-4.066-4.067H8.133A4.067,4.067,0,0,0,4.067,8.133v8.133H93.533a2.034,2.034,0,0,1,0,4.067ZM30.5,12.2a2.034,2.034,0,0,1,0-4.067h2.033a2.034,2.034,0,0,1,0,4.067Zm-10.166,0a2.033,2.033,0,1,1,0-4.066h2.033a2.033,2.033,0,1,1,0,4.066Zm-10.167,0a2.033,2.033,0,1,1,0-4.066H12.2a2.033,2.033,0,0,1,0,4.066Z" fill="#3e3e3e"/><path d="M119.967,0a2.033,2.033,0,0,0-2.033,2.033V89.467a4.067,4.067,0,0,1-4.067,4.067H8.133a4.067,4.067,0,0,1-4.067-4.067V2.033A2.033,2.033,0,0,0,0,2.033V89.467A8.133,8.133,0,0,0,8.133,97.6H113.867A8.133,8.133,0,0,0,122,89.467V2.033A2.033,2.033,0,0,0,119.967,0Z" transform="translate(0 24.4)" fill="#3e3e3e"/></g><path d="M26.547,29.983a1.942,1.942,0,1,1,1.375-.569A1.933,1.933,0,0,1,26.547,29.983Zm37.31-1.03H51.172A23.092,23.092,0,0,0,45.7,16.075l7.789-7.789A31.978,31.978,0,0,1,63.858,28.952Zm-59,0H0A31.982,31.982,0,0,1,10.372,8.286l4.036,4.036A23.263,23.263,0,0,0,4.86,28.952ZM17.182,10.6h0L12.84,6.26A31.874,31.874,0,0,1,30.34,0V8.043c-.771-.077-1.553-.117-2.324-.117A23.309,23.309,0,0,0,17.182,10.6Z" transform="translate(-3301 47.148)" fill="#515151"/><path d="M28.226,8.465,6.8,32.557a3.853,3.853,0,0,1-.29.326,1.325,1.325,0,0,1-.167.156A3.813,3.813,0,0,1,.95,27.667a1.391,1.391,0,0,1,.165-.178,3.837,3.837,0,0,1,.326-.289L17.08,13.289a23.116,23.116,0,0,0-6.3-2.559V2.148a31.883,31.883,0,0,1,14.2,4.112l6.631-5.9a1.432,1.432,0,0,1,2.022,2.022L28.28,8.4l0,0Z" transform="translate(-3278.266 45)" fill="#ea9191"/></g></svg>