<svg xmlns="http://www.w3.org/2000/svg" width="50.983" height="46.813" viewBox="0 0 50.983 46.813"><g transform="translate(0 -0.094)"><path d="M46.723,46.813a1,1,0,0,1-.483-.125l-8.217-4.564H16.741a1,1,0,0,1-1-1v-5.5A17.716,17.716,0,0,1,8.9,33.34L4.592,34.494A1.489,1.489,0,0,1,2.767,32.67l.973-3.632-.176-.45A17.717,17.717,0,0,1,0,17.878,17.9,17.9,0,0,1,17.878,0,17.715,17.715,0,0,1,28.542,3.537a17.954,17.954,0,0,1,6.388,8.969H49.987a1,1,0,0,1,1,1V41.127a1,1,0,0,1-1,1H47.344l.371,3.591a1,1,0,0,1-.991,1.1ZM17.737,35.754v4.378H38.281a1,1,0,0,1,.484.125l6.772,3.762-.288-2.789a1,1,0,0,1,.991-1.1h2.751V14.5H35.434c.005.025.01.051.014.076l.007.041c.013.068.024.134.036.2s.024.144.036.216.023.149.034.223.02.133.029.2.021.158.031.237.015.129.022.193c.009.08.017.16.025.241s.013.133.018.2c0,.038.006.075.009.113s.007.082.01.123.006.1.009.146l0,.073,0,.054c0,.055.007.108.009.162s.005.117.007.175l0,.091,0,.057c0,.04,0,.078,0,.117,0,.179.006.315.006.443A17.9,17.9,0,0,1,17.878,35.755h-.14ZM9.05,31.273a1,1,0,0,1,.522.148A15.908,15.908,0,0,0,16.8,33.727h.005c.369.024.729.037,1.07.037A15.9,15.9,0,0,0,33.764,17.878c0-.162,0-.32-.008-.459V17.4c0-.031,0-.061,0-.092l0-.046c-.006-.143-.011-.255-.017-.35,0-.048-.005-.1-.009-.142-.008-.115-.018-.239-.031-.391l0-.042,0-.042c-.016-.166-.034-.327-.054-.477l-.007-.047-.006-.047c-.021-.156-.041-.28-.055-.371-.008-.052-.017-.105-.026-.157-.015-.091-.032-.186-.056-.31l-.016-.085-.016-.085c-.025-.124-.05-.239-.076-.352-.019-.085-.039-.168-.06-.253l-.013-.054-.046-.185A15.951,15.951,0,0,0,23.142,2.888,15.886,15.886,0,0,0,5.233,27.493a.974.974,0,0,1,.134.238l.347.882a.989.989,0,0,1,.035.623l-.833,3.109,3.876-1.038A.972.972,0,0,1,9.05,31.273Z" transform="translate(0 0.094)" fill="#fff"/><path d="M1.972.8A.942.942,0,0,0,1.915.615.983.983,0,0,0,1.823.443.942.942,0,0,0,1.7.291.953.953,0,0,0,1.548.168.983.983,0,0,0,1.376.076.936.936,0,0,0,1.19.019.981.981,0,0,0,.8.019.965.965,0,0,0,.614.076,1.007,1.007,0,0,0,.443.168.968.968,0,0,0,.168.443.921.921,0,0,0,.077.615.928.928,0,0,0,.02.8.974.974,0,0,0,0,1a.991.991,0,0,0,.02.2.969.969,0,0,0,.057.186.944.944,0,0,0,.092.171A.953.953,0,0,0,.292,1.7a1.017,1.017,0,0,0,.151.124,1.007,1.007,0,0,0,.171.092A1.039,1.039,0,0,0,.8,1.972a1.006,1.006,0,0,0,.388,0,1,1,0,0,0,.186-.057.983.983,0,0,0,.172-.092A1.017,1.017,0,0,0,1.7,1.7,1,1,0,0,0,1.991,1,.981.981,0,0,0,1.972.8Z" transform="translate(20.712 36.513)" fill="#fff"/><path d="M21.746,0H17.163a1,1,0,0,0,0,1.992H20.75V20.2H1a1,1,0,0,0,0,1.992h20.75a1,1,0,0,0,1-1V1A1,1,0,0,0,21.746,0Z" transform="translate(24.529 16.312)" fill="#fff"/><path d="M13.773,27.546A13.773,13.773,0,1,1,27.546,13.773,13.789,13.789,0,0,1,13.773,27.546Zm0-25.555A11.781,11.781,0,1,0,25.555,13.773,11.794,11.794,0,0,0,13.773,1.992Z" transform="translate(4.105 4.198)" fill="#fff"/><path d="M4.94,17.287a3.227,3.227,0,0,1-1.988-5.755,2.793,2.793,0,0,1-.239-.247,3.213,3.213,0,0,1-.662-2.132,5.422,5.422,0,0,1,.415-2.147A2.9,2.9,0,0,1,0,4.138,3.864,3.864,0,0,1,1.49,1.205,5.593,5.593,0,0,1,5.148,0,5.9,5.9,0,0,1,8.86,1.187a4.331,4.331,0,0,1,1.693,3.448,5.688,5.688,0,0,1-2.561,4.5c-.051.04-.092.074-.127.106,0,.1,0,.241,0,.326a2.58,2.58,0,0,1-.9,1.98,3.224,3.224,0,0,1-2.02,5.738Zm0-4.46a1.234,1.234,0,0,0,0,2.468,1.234,1.234,0,0,0,0-2.468Zm.16-9.01c.89,0,1.443.418,1.443,1.09,0,.708-.59,1.161-1.11,1.56-.113.087-.22.169-.316.25A2.942,2.942,0,0,0,4.042,9.153c0,.813.214,1.074.881,1.074.628,0,.946-.221.946-.657a2.008,2.008,0,0,1,.9-2A3.854,3.854,0,0,0,8.561,4.635a2.375,2.375,0,0,0-.938-1.886,3.938,3.938,0,0,0-2.475-.757c-2.153,0-3.156,1.281-3.156,2.146a.92.92,0,0,0,.961.914c.364,0,.513-.219.685-.472A1.481,1.481,0,0,1,5.1,3.818Z" transform="translate(12.601 9.34)" fill="#fff"/></g></svg>