<svg xmlns="http://www.w3.org/2000/svg" width="622" height="164.383" viewBox="0 0 622 164.383"><g transform="translate(-409.5 0.353)"><g transform="translate(672)"><path d="M0,14.7H12.659a1,1,0,0,0,.8-.4l1.86-2.5,1.942.326a3,3,0,0,0,2.588-.807l.892-.867,2.4-.537a1,1,0,0,0,.644-.47l2.79-4.76,5.384-1.1a1,1,0,0,0,.333-.133l5.47-3.44,6.864,4.17a1,1,0,0,0,.311.124l5.832,1.239,1.685,5.038a1,1,0,0,0,.755.664l2.8.551,1.684,2.464a1,1,0,0,0,.826.436H67.2" transform="translate(0 0.221)" fill="none" stroke="#e4e4e4" stroke-miterlimit="10" stroke-width="1"/><path d="M0,.35H19.6" transform="translate(9.1 19.821)" fill="none" stroke="#e4e4e4" stroke-miterlimit="10" stroke-width="1"/><path d="M0,.35H21" transform="translate(40.6 17.021)" fill="none" stroke="#e4e4e4" stroke-miterlimit="10" stroke-width="1"/><path d="M.342.525h3" transform="translate(43.4 19.821)" fill="none" stroke="#e4e4e4" stroke-miterlimit="10" stroke-width="1"/></g><g transform="translate(929 19.25)"><path d="M0,16.5H19.565a1,1,0,0,0,.7-.29l2.986-2.964,4.055.5a3,3,0,0,0,2.12-.541l2.054-1.476,3.9-.646a1,1,0,0,0,.62-.366L40.338,5.26l8.3-1.251a1,1,0,0,0,.273-.082L57.317.016,67.833,4.741a1,1,0,0,0,.255.076l8.972,1.41L79.672,12a1,1,0,0,0,.767.578l4.575.666,2.712,2.933a1,1,0,0,0,.734.321H102" transform="translate(0 0.424)" fill="none" stroke="#e4e4e4" stroke-miterlimit="10" stroke-width="1"/><path d="M0,.375H30" transform="translate(13 23.674)" fill="none" stroke="#e4e4e4" stroke-miterlimit="10" stroke-width="1"/><path d="M0,.375H32" transform="translate(62 19.924)" fill="none" stroke="#e4e4e4" stroke-miterlimit="10" stroke-width="1"/><path d="M.488.563H4.774" transform="translate(66 22.924)" fill="none" stroke="#e4e4e4" stroke-miterlimit="10" stroke-width="1"/></g><g transform="translate(460 17)"><path d="M0,16.5H19.565a1,1,0,0,0,.7-.29l2.986-2.964,4.055.5a3,3,0,0,0,2.12-.541l2.054-1.476,3.9-.646a1,1,0,0,0,.62-.366L40.338,5.26l8.3-1.251a1,1,0,0,0,.273-.082L57.317.016,67.833,4.741a1,1,0,0,0,.255.076l8.972,1.41L79.672,12a1,1,0,0,0,.767.578l4.575.666,2.712,2.933a1,1,0,0,0,.734.321H102" transform="translate(0 0.197)" fill="none" stroke="#e4e4e4" stroke-miterlimit="10" stroke-width="1"/><path d="M0,.375H30" transform="translate(13 22.697)" fill="none" stroke="#e4e4e4" stroke-miterlimit="10" stroke-width="1"/><path d="M0,.375H32" transform="translate(62 19.697)" fill="none" stroke="#e4e4e4" stroke-miterlimit="10" stroke-width="1"/><path d="M.488.563H4.774" transform="translate(66 22.697)" fill="none" stroke="#e4e4e4" stroke-miterlimit="10" stroke-width="1"/></g><g transform="translate(410 96)"><path d="M0,.5H272.115" transform="translate(0 50)" fill="none" stroke="#cbcbcb" stroke-linecap="round" stroke-miterlimit="10" stroke-width="1"/><path d="M50.362,51H.637a.638.638,0,0,1,0-1.275H11.714V27.766a10.368,10.368,0,0,1-5.463,3.812,16.339,16.339,0,0,1-4.816.731c-.54,0-.851-.029-.854-.029a.638.638,0,0,1,.052-1.273.641.641,0,0,1,.069,0c.032,0,.327.027.811.027a14.943,14.943,0,0,0,3.846-.5,8.811,8.811,0,0,0,6.354-5.458v-4.57c-2.571,3.367-6.978,3.73-8.753,3.73-.433,0-.713-.023-.741-.026a.636.636,0,0,1-.573-.694.639.639,0,0,1,.628-.578.623.623,0,0,1,.066,0c.1.008.369.028.764.028,2.007,0,6.863-.492,8.61-5.052V13.887a8.334,8.334,0,0,1-4.21,2.7,12.262,12.262,0,0,1-3.4.5c-.136,0-.261,0-.37-.009H3.731A.637.637,0,0,1,3.79,15.8h.02c.122.006.249.007.334.007,1.375,0,5.986-.32,7.569-4.435v-3.4A7.613,7.613,0,0,1,7.9,10.2a9.867,9.867,0,0,1-2.356.342H5.532a.638.638,0,0,1,0-1.275h.005c.193,0,4.745-.042,6.172-3.713V2.767a7.618,7.618,0,0,1-4.2,1.949l-.066,0a.637.637,0,0,1-.067-1.271c.034,0,3.4-.386,4.37-3.031l0-.006,0-.006c0-.008.005-.016.009-.024a.375.375,0,0,1,.047-.072l.019-.026c.008-.012.015-.024.022-.035A.271.271,0,0,1,11.894.2l.014-.014a.269.269,0,0,1,.05-.035c.012-.007.023-.014.034-.021s.023-.016.032-.023a.313.313,0,0,1,.069-.044l.012,0,.012-.005.005,0,.007,0a.2.2,0,0,1,.053-.01l.036,0,.035-.008A.376.376,0,0,1,12.337,0h.028a.373.373,0,0,1,.082.014l.036.008a.273.273,0,0,0,.035,0,.176.176,0,0,1,.053.01l.007,0,.005,0,.01,0,.015.006A.317.317,0,0,1,12.674.1l.03.022.006,0,.032.02a.278.278,0,0,1,.052.036L12.808.2a.263.263,0,0,1,.034.049c.007.012.014.023.022.034l.023.031a.377.377,0,0,1,.045.07l0,.011L12.942.4a.026.026,0,0,0,0,.007l0,.005c.971,2.635,4.335,3.028,4.369,3.031a.637.637,0,0,1-.066,1.271l-.067,0a7.628,7.628,0,0,1-4.2-1.949V5.552a5.688,5.688,0,0,0,3.588,3.234,8.857,8.857,0,0,0,2.585.479.638.638,0,1,1,.008,1.275h-.011A9.87,9.87,0,0,1,16.8,10.2a7.609,7.609,0,0,1-3.815-2.225v3.4c.4,1.04,2.128,4.437,7.558,4.437.209,0,.332-.008.345-.009h.02a.637.637,0,0,1,.059,1.273h-.008c-.11.006-.235.009-.37.009a12.258,12.258,0,0,1-3.395-.5,8.334,8.334,0,0,1-4.21-2.7v4.036c.582,1.519,2.585,5.052,8.609,5.052.394,0,.666-.02.764-.028a.637.637,0,0,1,.122,1.268s-.272.026-.741.026c-1.775,0-6.183-.363-8.753-3.73v4.569a8.813,8.813,0,0,0,6.354,5.458,14.942,14.942,0,0,0,3.846.5c.477,0,.778-.025.811-.027a.637.637,0,1,1,.121,1.269s-.313.029-.854.029c-2.117,0-7.357-.443-10.278-4.543V49.725H37.294V29.875a7.435,7.435,0,0,1-6.657-5.8A7.479,7.479,0,0,1,30.655,9.5a7.481,7.481,0,0,1,14.553,0,7.479,7.479,0,0,1,.018,14.572,7.435,7.435,0,0,1-6.657,5.8v19.85H50.362a.638.638,0,1,1,0,1.275ZM43.219,15.27a.638.638,0,0,1,.637.637,5.917,5.917,0,0,1-5.288,5.865v6.819a6.179,6.179,0,0,0,5.485-5.16.637.637,0,0,1,.52-.524,6.207,6.207,0,0,0-.011-12.235.638.638,0,0,1-.521-.517,6.206,6.206,0,0,0-12.221,0,.636.636,0,0,1-.52.517,6.207,6.207,0,0,0-.012,12.235.639.639,0,0,1,.521.524,6.179,6.179,0,0,0,5.485,5.16v-3.74a5.917,5.917,0,0,1-5.287-5.865.637.637,0,0,1,1.274,0,4.65,4.65,0,0,0,4.013,4.577V17.4a4,4,0,0,1-2.385-1.332,3.95,3.95,0,0,1-.964-2.583.638.638,0,0,1,1.275,0,2.689,2.689,0,0,0,2.074,2.613V11.543a.637.637,0,1,1,1.274,0v8.942a4.65,4.65,0,0,0,4.012-4.577A.638.638,0,0,1,43.219,15.27Z" transform="translate(46)" fill="#cecfcf"/><g transform="translate(621) rotate(180)"><path d="M0,.5H-273.01" transform="translate(0 -50) rotate(-180)" fill="none" stroke="#cbcbcb" stroke-linecap="round" stroke-miterlimit="10" stroke-width="1"/><path d="M-50.362,51H-.637A.638.638,0,0,0,0,50.362a.638.638,0,0,0-.637-.637H-11.714V27.766a10.368,10.368,0,0,0,5.463,3.812,16.339,16.339,0,0,0,4.816.731c.54,0,.851-.029.854-.029a.632.632,0,0,0,.43-.228.632.632,0,0,0,.143-.465.631.631,0,0,0-.626-.579.641.641,0,0,0-.069,0c-.032,0-.327.027-.811.027a14.943,14.943,0,0,1-3.846-.5,8.811,8.811,0,0,1-6.354-5.458v-4.57c2.571,3.367,6.978,3.73,8.753,3.73.433,0,.713-.023.741-.026a.632.632,0,0,0,.43-.228.632.632,0,0,0,.143-.466.639.639,0,0,0-.628-.578.623.623,0,0,0-.066,0c-.1.008-.369.028-.764.028-2.007,0-6.863-.492-8.61-5.052V13.887a8.334,8.334,0,0,0,4.21,2.7,12.262,12.262,0,0,0,3.4.5c.136,0,.261,0,.37-.009h.007a.639.639,0,0,0,.6-.676.64.64,0,0,0-.655-.6h-.02c-.122.006-.249.007-.334.007-1.375,0-5.986-.32-7.569-4.435v-3.4A7.613,7.613,0,0,0-7.9,10.2a9.867,9.867,0,0,0,2.356.342h.011a.633.633,0,0,0,.449-.189A.632.632,0,0,0-4.9,9.9a.638.638,0,0,0-.637-.635h-.005c-.193,0-4.745-.042-6.172-3.713V2.767a7.618,7.618,0,0,0,4.2,1.949l.066,0a.636.636,0,0,0,.634-.572.639.639,0,0,0-.567-.7c-.034,0-3.4-.386-4.37-3.031l0-.006,0-.006c0-.008-.005-.016-.009-.024a.375.375,0,0,0-.047-.072l-.019-.026c-.008-.012-.015-.024-.022-.035A.271.271,0,0,0-11.894.2l-.014-.014a.269.269,0,0,0-.05-.035c-.012-.007-.023-.014-.034-.021S-12.015.108-12.025.1a.313.313,0,0,0-.069-.044l-.012,0-.012-.005-.005,0-.007,0a.2.2,0,0,0-.053-.01l-.036,0-.035-.008A.376.376,0,0,0-12.337,0h-.028a.373.373,0,0,0-.082.014l-.036.008a.273.273,0,0,1-.035,0,.176.176,0,0,0-.053.01l-.007,0-.005,0-.01,0-.015.006A.317.317,0,0,0-12.674.1l-.03.022-.006,0-.032.02a.278.278,0,0,0-.052.036L-12.808.2a.263.263,0,0,0-.034.049c-.007.012-.014.023-.022.034l-.023.031a.377.377,0,0,0-.045.07l0,.011L-12.942.4a.026.026,0,0,1,0,.007l0,.005c-.971,2.635-4.335,3.028-4.369,3.031a.633.633,0,0,0-.429.233.632.632,0,0,0-.138.467.636.636,0,0,0,.633.571l.067,0a7.628,7.628,0,0,0,4.2-1.949V5.552a5.688,5.688,0,0,1-3.588,3.234,8.857,8.857,0,0,1-2.585.479A.641.641,0,0,0-19.8,9.9a.639.639,0,0,0,.635.642h.011A9.87,9.87,0,0,0-16.8,10.2a7.609,7.609,0,0,0,3.815-2.225v3.4c-.4,1.04-2.128,4.437-7.558,4.437-.209,0-.332-.008-.345-.009h-.02a.64.64,0,0,0-.655.6.639.639,0,0,0,.6.676h.008c.11.006.235.009.37.009a12.258,12.258,0,0,0,3.395-.5,8.334,8.334,0,0,0,4.21-2.7v4.036c-.582,1.519-2.585,5.052-8.609,5.052-.394,0-.666-.02-.764-.028a.634.634,0,0,0-.066,0,.632.632,0,0,0-.629.578.632.632,0,0,0,.143.466.632.632,0,0,0,.43.228s.272.026.741.026c1.775,0,6.183-.363,8.753-3.73v4.569a8.813,8.813,0,0,1-6.354,5.458,14.942,14.942,0,0,1-3.846.5c-.477,0-.778-.025-.811-.027a.635.635,0,0,0-.069,0,.639.639,0,0,0-.627.579.639.639,0,0,0,.574.694s.313.029.854.029c2.117,0,7.357-.443,10.278-4.543V49.725H-37.294V29.875a7.435,7.435,0,0,0,6.657-5.8,7.5,7.5,0,0,0,4.151-2.623,7.513,7.513,0,0,0,1.623-4.66,7.513,7.513,0,0,0-1.628-4.668A7.5,7.5,0,0,0-30.655,9.5a7.509,7.509,0,0,0-2.631-4.127,7.512,7.512,0,0,0-4.645-1.614,7.512,7.512,0,0,0-4.645,1.614A7.508,7.508,0,0,0-45.208,9.5a7.5,7.5,0,0,0-4.164,2.62A7.513,7.513,0,0,0-51,16.792a7.513,7.513,0,0,0,1.623,4.66,7.5,7.5,0,0,0,4.151,2.623,7.435,7.435,0,0,0,6.657,5.8v19.85H-50.362a.638.638,0,0,0-.638.637A.639.639,0,0,0-50.362,51Zm7.143-35.73a.638.638,0,0,0-.637.637,5.869,5.869,0,0,0,1.531,3.953,5.924,5.924,0,0,0,3.757,1.912v6.819a6.141,6.141,0,0,1-3.606-1.636,6.153,6.153,0,0,1-1.879-3.524.637.637,0,0,0-.52-.524,6.2,6.2,0,0,1-5.152-6.116,6.192,6.192,0,0,1,5.162-6.118.638.638,0,0,0,.521-.517,6.2,6.2,0,0,1,6.11-5.12,6.2,6.2,0,0,1,6.111,5.12.636.636,0,0,0,.52.517,6.192,6.192,0,0,1,5.162,6.118,6.2,6.2,0,0,1-5.151,6.116.639.639,0,0,0-.521.524,6.153,6.153,0,0,1-1.879,3.524,6.141,6.141,0,0,1-3.606,1.636v-3.74a5.925,5.925,0,0,0,3.757-1.912,5.869,5.869,0,0,0,1.531-3.953.638.638,0,0,0-.637-.637.638.638,0,0,0-.637.637,4.65,4.65,0,0,1-4.013,4.577V17.4a4,4,0,0,0,2.385-1.332,3.95,3.95,0,0,0,.964-2.583.638.638,0,0,0-.637-.637.638.638,0,0,0-.638.637,2.689,2.689,0,0,1-2.074,2.613V11.543a.638.638,0,0,0-.637-.638.638.638,0,0,0-.637.638v8.942a4.65,4.65,0,0,1-4.012-4.577A.638.638,0,0,0-43.219,15.27Z" transform="translate(46) rotate(-180)" fill="#cecfcf"/></g><g transform="translate(293 34)"><path d="M14.323,24.021H2.288A2.288,2.288,0,0,1,0,21.733V8.262A3.269,3.269,0,0,1,3.269,4.993H15.381a.163.163,0,0,0,.147-.235L13.331.235A.163.163,0,0,1,13.55.016L22.4,4.322a2.452,2.452,0,0,1,1.379,2.2V22.06h0a1.962,1.962,0,0,1-1.962,1.962H17.446" transform="translate(9.744 0.027)" fill="none" stroke="#989898" stroke-linecap="round" stroke-miterlimit="10" stroke-width="0.5"/><path d="M10.129,0H21.644A2.615,2.615,0,0,1,24.26,2.615V16.261a2.779,2.779,0,0,1-2.779,2.779H8.627a.163.163,0,0,0-.138.251L11.2,23.555a.327.327,0,0,1-.413.472L2.276,20.092A3.923,3.923,0,0,1,0,16.532V2.779A2.779,2.779,0,0,1,2.779,0H6.068" transform="translate(0 9.719)" fill="none" stroke="#989898" stroke-linecap="round" stroke-miterlimit="10" stroke-width="0.5"/><g transform="translate(13 12)"><path d="M4.453,8.827H3.926a.783.783,0,0,1,0-1.563h.526a.742.742,0,0,1,.7.539,1.451,1.451,0,0,0,1.192-1.49H6.052a.217.217,0,0,1-.211-.223V3.576a.217.217,0,0,1,.211-.223h.3V3.017A2.392,2.392,0,0,0,4.055.445H3.791a2.392,2.392,0,0,0-2.3,2.571v.336h.3a.217.217,0,0,1,.211.223V6.092a.217.217,0,0,1-.211.222H1.148A1.184,1.184,0,0,1,0,5.1v-.53A1.194,1.194,0,0,1,1.073,3.356V3.017A3.211,3.211,0,0,1,1.837.89,2.57,2.57,0,0,1,3.793,0h.265A2.57,2.57,0,0,1,6.013.89a3.211,3.211,0,0,1,.764,2.127v.339A1.187,1.187,0,0,1,7.846,4.568V5.1A1.191,1.191,0,0,1,6.768,6.311a1.986,1.986,0,0,1-.89,1.684,1.927,1.927,0,0,1-.713.257A.75.75,0,0,1,4.453,8.827ZM3.926,7.71a.336.336,0,0,0,0,.671h.527a.336.336,0,0,0,0-.671ZM6.264,3.8V5.867H6.7A.751.751,0,0,0,7.428,5.1v-.53A.751.751,0,0,0,6.7,3.8Zm-5.113,0a.75.75,0,0,0-.727.77V5.1a.75.75,0,0,0,.727.769h.436V3.8Z" transform="translate(0.031)" fill="none" stroke="#989898" stroke-miterlimit="10" stroke-width="0.2"/></g></g></g></g></svg>