<?xml version="1.0" encoding="UTF-8"?>
<svg width="24px" height="24px" viewBox="0 0 24 24" version="1.1" xmlns="http://www.w3.org/2000/svg" xmlns:xlink="http://www.w3.org/1999/xlink">
    <!-- Generator: Sketch 57.1 (83088) - https://sketch.com -->
    <title>guide-icon</title>
    <desc>Created with Sketch.</desc>
    <g id="Page-1" stroke="none" stroke-width="1" fill="none" fill-rule="evenodd">
        <g id="Pricing-Copy-4" transform="translate(-274.000000, -1133.000000)" fill-rule="nonzero">
            <g id="Group-38" transform="translate(0.000000, 836.000000)">
                <g id="Group-18" transform="translate(250.000000, 70.000000)">
                    <g id="Group-12" transform="translate(0.000000, 211.000000)">
                        <g id="guide-icon" transform="translate(24.000000, 16.000000)">
                            <g id="Group" transform="translate(0.500000, 0.000000)">
                                <path d="M4.21666667,18.75 L21.4628333,18.75 C21.4643667,18.75 21.4651333,18.75 21.4666667,18.75 C22.1014667,18.75 22.6166667,18.24675 22.6166667,17.625 L22.6166667,1.125 C22.6166667,0.50325 22.1014667,0 21.4666667,0 L4.21666667,0 C2.10296667,0 0.383333333,1.68225 0.383333333,3.75 L0.383333333,20.25 C0.383333333,22.31775 2.10296667,24 4.21666667,24 L21.4666667,24 C22.1014667,24 22.6166667,23.49675 22.6166667,22.875 C22.6166667,22.25325 22.1014667,21.75 21.4666667,21.75 L4.21666667,21.75 C3.37103333,21.75 2.68333333,21.07725 2.68333333,20.25 C2.68333333,19.42275 3.37103333,18.75 4.21666667,18.75 Z M2.68333333,3.75 C2.68333333,2.92275 3.37103333,2.25 4.21666667,2.25 L20.3166667,2.25 L20.3166667,16.5 L4.21666667,16.5 C3.6708,16.5 3.15406667,16.6155 2.68333333,16.818 L2.68333333,3.75 Z" id="Shape" fill="#4A535E"></path>
                                <path d="M10.6873333,13.455 C10.2388333,13.89375 10.2373,14.60475 10.6873333,15.045 C11.132,15.48075 11.8618667,15.48525 12.3126667,15.045 C12.7627,14.60325 12.7611667,13.8945 12.3126667,13.455 C11.891,13.035 11.1166667,13.035 10.6873333,13.455 Z" id="Path" fill="#E78585"></path>
                                <path d="M9.2,7.875 C9.8348,7.875 10.35,7.37175 10.35,6.75 C10.35,6.417 10.4995,6.10275 10.7609333,5.8875 C11.0269667,5.67 11.3635333,5.583 11.7177333,5.64375 C12.1677667,5.721 12.5518667,6.096 12.6300667,6.53625 C12.7374,7.13475 12.3862667,7.557 12.0535333,7.73625 C11.0032,8.3025 10.35,9.435 10.35,10.69275 L10.35,10.875 C10.35,11.49675 10.8652,12 11.5,12 C12.1348,12 12.65,11.49675 12.65,10.875 L12.65,10.69275 C12.65,10.26225 12.8516333,9.876 13.1644333,9.70725 C14.4562667,9.00975 15.1524,7.5795 14.8963333,6.14775 C14.651,4.78575 13.5079,3.6675 12.1164,3.4275 C11.0959667,3.2535 10.0648,3.52125 9.2828,4.164 C8.49926667,4.80825 8.05,5.75025 8.05,6.75 C8.05,7.37175 8.5652,7.875 9.2,7.875 Z" id="Path" fill="#E78585"></path>
                            </g>
                        </g>
                    </g>
                </g>
            </g>
        </g>
    </g>
</svg>