<svg xmlns="http://www.w3.org/2000/svg" width="30.6" height="30.6" viewBox="0 0 30.6 30.6"><defs><style>.a{fill:#fff;}</style></defs><path class="a" d="M25.055,30.6a2,2,0,0,1-2-2V25.055a2,2,0,0,1,2-2H28.6a2,2,0,0,1,2,2V28.6a2,2,0,0,1-2,2Zm-11.528,0a2,2,0,0,1-2-2V25.055a2,2,0,0,1,2-2h3.546a2,2,0,0,1,2,2V28.6a2,2,0,0,1-2,2ZM2,30.6a2,2,0,0,1-2-2V25.055a2,2,0,0,1,2-2H5.545a2,2,0,0,1,2,2V28.6a2,2,0,0,1-2,2ZM25.055,19.073a2,2,0,0,1-2-2V13.527a2,2,0,0,1,2-2H28.6a2,2,0,0,1,2,2v3.546a2,2,0,0,1-2,2Zm-11.528,0a2,2,0,0,1-2-2V13.527a2,2,0,0,1,2-2h3.546a2,2,0,0,1,2,2v3.546a2,2,0,0,1-2,2ZM2,19.073a2,2,0,0,1-2-2V13.527a2,2,0,0,1,2-2H5.545a2,2,0,0,1,2,2v3.546a2,2,0,0,1-2,2ZM25.055,7.546a2,2,0,0,1-2-2V2a2,2,0,0,1,2-2H28.6a2,2,0,0,1,2,2V5.545a2,2,0,0,1-2,2Zm-11.528,0a2,2,0,0,1-2-2V2a2,2,0,0,1,2-2h3.546a2,2,0,0,1,2,2V5.545a2,2,0,0,1-2,2ZM2,7.546a2,2,0,0,1-2-2V2A2,2,0,0,1,2,0H5.545a2,2,0,0,1,2,2V5.545a2,2,0,0,1-2,2Z"/></svg>