<svg xmlns="http://www.w3.org/2000/svg" xmlns:xlink="http://www.w3.org/1999/xlink" width="30" height="26.786" viewBox="0 0 30 26.786"><defs><style>.a{fill:#4097bb;}.b{clip-path:url(#a);}.c,.f{fill:none;}.c{stroke:#fff;stroke-miterlimit:10;stroke-width:2px;opacity:0.1;}.d{fill:#fff;}.e{stroke:none;}</style><clipPath id="a"><rect class="a" width="30" height="26.786" rx="2"/></clipPath></defs><rect class="a" width="30" height="26.786" rx="2"/><g class="b"><g class="c" transform="translate(22.5 -11.786)"><path class="e" d="M0,0H23.571a0,0,0,0,1,0,0V17.143a0,0,0,0,1,0,0H5a5,5,0,0,1-5-5V0A0,0,0,0,1,0,0Z"/><path class="f" d="M2,1H21.571a1,1,0,0,1,1,1V15.143a1,1,0,0,1-1,1H5a4,4,0,0,1-4-4V2A1,1,0,0,1,2,1Z"/></g><circle class="c" cx="6.964" cy="6.964" r="6.964" transform="translate(-6.429 21.429)"/><path class="d" d="M1.373,9.643H1.347a.257.257,0,0,1-.171-.067.277.277,0,0,1-.1-.175.157.157,0,0,1-.009-.055.334.334,0,0,1,0-.054.159.159,0,0,1,.017-.05L1.113,9.2l.03-.046c.019-.031.029-.043.032-.043h0s.012-.005.038-.041a.15.15,0,0,1,.033-.039c.036-.041.107-.117.193-.208s.172-.187.218-.247.107-.14.188-.243a2.078,2.078,0,0,0,.209-.322c.058-.109.114-.229.172-.368A4.905,4.905,0,0,1,.595,6.161,3.3,3.3,0,0,1,0,4.286,3.4,3.4,0,0,1,.787,2.135,5.341,5.341,0,0,1,2.934.573,7.568,7.568,0,0,1,5.893,0,7.574,7.574,0,0,1,8.852.573,5.344,5.344,0,0,1,11,2.135a3.4,3.4,0,0,1,.787,2.151A3.392,3.392,0,0,1,11,6.437,5.344,5.344,0,0,1,8.852,8a7.574,7.574,0,0,1-2.959.573A8.467,8.467,0,0,1,4.42,8.438,7.069,7.069,0,0,1,2.093,9.509a6.906,6.906,0,0,1-.72.134ZM5.893,1.071A6.549,6.549,0,0,0,3.5,1.507a4.5,4.5,0,0,0-1.77,1.181,2.385,2.385,0,0,0-.657,1.6,2.288,2.288,0,0,0,.444,1.323,3.86,3.86,0,0,0,1.247,1.1l.813.469-.293.7c.179-.106.355-.215.519-.327L4.169,7.3l.444.083A7.251,7.251,0,0,0,5.893,7.5a6.556,6.556,0,0,0,2.394-.436,4.5,4.5,0,0,0,1.77-1.18,2.389,2.389,0,0,0,.657-1.6,2.385,2.385,0,0,0-.657-1.6,4.517,4.517,0,0,0-1.77-1.181A6.556,6.556,0,0,0,5.893,1.071Z" transform="translate(6.429 7.5)"/><path class="d" d="M9.061,5.173a3.185,3.185,0,0,0-.033-3.717A4.857,4.857,0,0,0,7.355,0a4.2,4.2,0,0,1-.361,3.32A5.479,5.479,0,0,1,5.42,5.054,7.269,7.269,0,0,1,3.255,6.109a8.684,8.684,0,0,1-2.534.368q-.246,0-.722-.033A6.9,6.9,0,0,0,3.87,7.524a8.26,8.26,0,0,0,1.443-.131A6.9,6.9,0,0,0,7.593,8.44,6.861,6.861,0,0,0,8.3,8.57a.248.248,0,0,0,.18-.057.3.3,0,0,0,.107-.18c0-.033,0-.051.008-.053s.007-.02,0-.053l-.016-.049-.02-.041a.392.392,0,0,0-.029-.045.36.36,0,0,0-.033-.041l-.037-.041-.033-.037q-.041-.049-.189-.2T8.02,7.528q-.066-.086-.184-.237a2.068,2.068,0,0,1-.205-.315q-.086-.164-.168-.36A4.8,4.8,0,0,0,9.061,5.173Z" transform="translate(12.857 10.714)"/></g></svg>