<svg xmlns="http://www.w3.org/2000/svg" width="49.963" height="39.259" viewBox="0 0 49.963 39.259"><g transform="translate(0 -0.078)"><path d="M4.573,32.118H4.489a.88.88,0,0,1-.572-.223.932.932,0,0,1-.32-.585.564.564,0,0,1-.028-.181,1.03,1.03,0,0,1,.014-.181.567.567,0,0,1,.056-.167l.069-.139.1-.153c.059-.093.095-.14.108-.14l.006,0c.013,0,.054-.047.123-.14.095-.13.105-.13.109-.13l0,0c.092-.11.3-.338.642-.7a10.949,10.949,0,0,0,.724-.823c.19-.248.4-.52.627-.808a7.066,7.066,0,0,0,.7-1.074c.192-.366.384-.778.571-1.227A16.361,16.361,0,0,1,1.98,20.521,11,11,0,0,1,0,14.276,11.311,11.311,0,0,1,2.621,7.11a17.788,17.788,0,0,1,7.151-5.2A25.24,25.24,0,0,1,19.628,0a25.228,25.228,0,0,1,9.857,1.91,17.778,17.778,0,0,1,7.151,5.2,11.307,11.307,0,0,1,2.621,7.166,11.305,11.305,0,0,1-2.621,7.165,17.778,17.778,0,0,1-7.151,5.2,25.19,25.19,0,0,1-9.842,1.908h-.015a28.178,28.178,0,0,1-4.907-.445,23.566,23.566,0,0,1-7.751,3.568,23.677,23.677,0,0,1-2.4.446ZM19.629,3.569a21.8,21.8,0,0,0-7.974,1.45,15.008,15.008,0,0,0-5.9,3.931,7.963,7.963,0,0,0-2.189,5.326,7.631,7.631,0,0,0,1.478,4.406A12.888,12.888,0,0,0,9.2,22.361l2.7,1.562-.976,2.342c.619-.364,1.2-.73,1.729-1.088l1.227-.863,1.478.278a24.246,24.246,0,0,0,4.266.391,21.8,21.8,0,0,0,7.974-1.45A15.021,15.021,0,0,0,33.5,19.6a7.958,7.958,0,0,0,2.189-5.325A7.959,7.959,0,0,0,33.5,8.95a15.021,15.021,0,0,0-5.9-3.931A21.8,21.8,0,0,0,19.629,3.569Z" transform="translate(0 0.078)" fill="#fff"/><path d="M30.809,17.635A10.883,10.883,0,0,0,30.7,4.963,16.527,16.527,0,0,0,25.01,0a14.349,14.349,0,0,1-1.227,11.32,18.662,18.662,0,0,1-5.353,5.911,24.688,24.688,0,0,1-7.361,3.6,29.457,29.457,0,0,1-8.615,1.255q-.836,0-2.453-.111a23.429,23.429,0,0,0,13.16,3.68,28.014,28.014,0,0,0,4.907-.446,23.448,23.448,0,0,0,7.751,3.569,23.275,23.275,0,0,0,2.4.446.841.841,0,0,0,.614-.195,1.032,1.032,0,0,0,.362-.613c-.009-.112,0-.173.028-.182s.023-.07-.014-.181l-.055-.167-.07-.139a1.336,1.336,0,0,0-.1-.153,1.225,1.225,0,0,0-.112-.139c-.027-.028-.069-.075-.125-.139s-.093-.107-.112-.125q-.139-.167-.641-.7t-.725-.822q-.223-.293-.627-.809a7.052,7.052,0,0,1-.7-1.073q-.293-.558-.571-1.227A16.352,16.352,0,0,0,30.809,17.635Z" transform="translate(17.174 10.115)" fill="#fff"/></g></svg>