<svg xmlns="http://www.w3.org/2000/svg" width="130.487" height="122" viewBox="0 0 130.487 122"><g transform="translate(-577.016 -1810)"><path d="M9.644,8.68A7.724,7.724,0,0,1,1.929.964.964.964,0,1,0,0,.964a9.655,9.655,0,0,0,9.644,9.644.964.964,0,1,0,0-1.929Z" transform="translate(580.199 1902.296)" fill="#3e3e3e"/><path d="M115.877,98.661H14.107A7.04,7.04,0,0,1,7.053,91.65V16.026H5.679A5.669,5.669,0,0,1,0,10.381V5.646A5.669,5.669,0,0,1,5.679,0H124.807a5.669,5.669,0,0,1,5.68,5.646v4.735a5.669,5.669,0,0,1-5.68,5.646H122.93V91.65A7.04,7.04,0,0,1,115.877,98.661ZM9.068,16.026V91.65a5.029,5.029,0,0,0,5.038,5.008h101.77a5.028,5.028,0,0,0,5.037-5.008V16.026ZM5.679,2A3.657,3.657,0,0,0,2.015,5.646v4.735a3.657,3.657,0,0,0,3.664,3.642H124.807a3.657,3.657,0,0,0,3.664-3.642V5.646A3.657,3.657,0,0,0,124.807,2Z" transform="translate(577.016 1810)" fill="#3e3e3e"/><path d="M14.912,15.913H1a1,1,0,0,1-1-1V1A1,1,0,0,1,1,0,14.929,14.929,0,0,1,15.913,14.912,1,1,0,0,1,14.912,15.913ZM2,2.039V13.911H13.873a12.9,12.9,0,0,0-3.748-8.124A12.907,12.907,0,0,0,2,2.039Z" transform="translate(614.146 1834.4)" fill="#3e3e3e"/><path d="M14.852,29.7a14.852,14.852,0,0,1,0-29.7,1,1,0,0,1,1,1V13.856H28.707a1,1,0,0,1,1,1A14.87,14.87,0,0,1,14.852,29.7Zm-1-27.673h0A12.853,12.853,0,1,0,27.673,15.849H14.852a1,1,0,0,1-1-1V2.031Z" transform="translate(595.051 1839.704)" fill="#3e3e3e"/><path d="M1,2.122H13.856a1.03,1.03,0,0,0,1-1.061,1.03,1.03,0,0,0-1-1.061H1A1.03,1.03,0,0,0,0,1.061,1.03,1.03,0,0,0,1,2.122Z" transform="translate(632.181 1837.583)" fill="#3e3e3e"/><path d="M.982,2.122H20.236a1.024,1.024,0,0,0,.982-1.061A1.024,1.024,0,0,0,20.236,0H.982A1.024,1.024,0,0,0,0,1.061,1.024,1.024,0,0,0,.982,2.122Z" transform="translate(633.242 1840.765)" fill="#3e3e3e"/><path d="M1,2.122H13.856a1.03,1.03,0,0,0,1-1.061,1.03,1.03,0,0,0-1-1.061H1A1.03,1.03,0,0,0,0,1.061,1.03,1.03,0,0,0,1,2.122Z" transform="translate(632.181 1855.617)" fill="#3e3e3e"/><path d="M.982,2.122H20.236a1.024,1.024,0,0,0,.982-1.061A1.024,1.024,0,0,0,20.236,0H.982A1.024,1.024,0,0,0,0,1.061,1.024,1.024,0,0,0,.982,2.122Z" transform="translate(633.242 1858.8)" fill="#3e3e3e"/><path d="M2.122,8.543V1.005A1.034,1.034,0,0,0,1.061,0,1.034,1.034,0,0,0,0,1.005V8.543A1.034,1.034,0,0,0,1.061,9.548,1.034,1.034,0,0,0,2.122,8.543Z" transform="translate(641.729 1909.722)" fill="#3e3e3e"/><path d="M3.713,7.426A3.713,3.713,0,1,1,7.426,3.713,3.717,3.717,0,0,1,3.713,7.426Zm0-5.446A1.733,1.733,0,1,0,5.446,3.713,1.735,1.735,0,0,0,3.713,1.98Z" transform="translate(639.607 1921.391)" fill="#3e3e3e"/><path d="M6.468,0A.958.958,0,0,0,5.51.958,4.557,4.557,0,0,1,.958,5.51a.958.958,0,1,0,0,1.916A6.475,6.475,0,0,0,7.426.958.958.958,0,0,0,6.468,0Z" transform="translate(642.79 1924.574)" fill="#3e3e3e"/><path d="M5.143,33.948H2.282A2.374,2.374,0,0,1,0,31.5V2.451A2.374,2.374,0,0,1,2.282,0H5.143A2.374,2.374,0,0,1,7.426,2.451V31.5A2.374,2.374,0,0,1,5.143,33.948ZM2.282,2.019a.424.424,0,0,0-.4.432V31.5a.424.424,0,0,0,.4.432H5.143a.424.424,0,0,0,.4-.432V2.451a.424.424,0,0,0-.4-.432Z" transform="translate(660.825 1837.583)" fill="#3e3e3e"/><path d="M5.143,24.4H2.282A2.355,2.355,0,0,1,0,21.984V2.416A2.355,2.355,0,0,1,2.282,0H5.143A2.355,2.355,0,0,1,7.426,2.416V21.984A2.355,2.355,0,0,1,5.143,24.4ZM2.282,1.99a.42.42,0,0,0-.4.426V21.984a.42.42,0,0,0,.4.426H5.143a.42.42,0,0,0,.4-.426V2.416a.42.42,0,0,0-.4-.426Z" transform="translate(672.494 1847.13)" fill="#3e3e3e"/><path d="M5.143,39.253H2.282A2.37,2.37,0,0,1,0,36.809V2.444A2.37,2.37,0,0,1,2.282,0H5.143A2.37,2.37,0,0,1,7.426,2.444V36.809A2.37,2.37,0,0,1,5.143,39.253ZM2.282,2.013a.423.423,0,0,0-.4.43V36.809a.423.423,0,0,0,.4.43H5.143a.423.423,0,0,0,.4-.43V2.444a.423.423,0,0,0-.4-.43Z" transform="translate(684.164 1832.278)" fill="#3e3e3e"/><path d="M1.01,20.968H4.041v3.495a1.01,1.01,0,0,0,2.021,0V20.968h56.58a1,1,0,1,0,0-2H6.062V1A1.01,1.01,0,0,0,4.041,1V18.971H1.01a1,1,0,1,0,0,2Z" transform="translate(590.807 1875.774)" fill="#3e3e3e"/><path d="M1.018,2.122H24.442a1.04,1.04,0,0,0,1.018-1.061A1.04,1.04,0,0,0,24.442,0H1.018A1.04,1.04,0,0,0,0,1.061,1.04,1.04,0,0,0,1.018,2.122Z" transform="translate(658.703 1875.774)" fill="#ea9191"/><path d="M1,2.122H31.89a1.03,1.03,0,0,0,1-1.061A1.03,1.03,0,0,0,31.89,0H1A1.03,1.03,0,0,0,0,1.061,1.03,1.03,0,0,0,1,2.122Z" transform="translate(658.703 1881.078)" fill="#ea9191"/><path d="M1,2.122H31.89a1.03,1.03,0,0,0,1-1.061A1.03,1.03,0,0,0,31.89,0H1A1.03,1.03,0,0,0,0,1.061,1.03,1.03,0,0,0,1,2.122Z" transform="translate(658.703 1899.113)" fill="#ea9191"/><path d="M1,2.122H31.89a1.03,1.03,0,0,0,1-1.061A1.03,1.03,0,0,0,31.89,0H1A1.03,1.03,0,0,0,0,1.061,1.03,1.03,0,0,0,1,2.122Z" transform="translate(658.703 1885.322)" fill="#ea9191"/><path d="M1,2.122H31.89a1.03,1.03,0,0,0,1-1.061A1.03,1.03,0,0,0,31.89,0H1A1.03,1.03,0,0,0,0,1.061,1.03,1.03,0,0,0,1,2.122Z" transform="translate(658.703 1894.87)" fill="#ea9191"/><path d="M1,2.122H31.89a1.03,1.03,0,0,0,1-1.061A1.03,1.03,0,0,0,31.89,0H1A1.03,1.03,0,0,0,0,1.061,1.03,1.03,0,0,0,1,2.122Z" transform="translate(658.703 1889.565)" fill="#ea9191"/><path d="M51.335.293,48.494,3.127,45.2.247A1,1,0,0,0,43.99.163l-11.368,7.4-5.292,1.32-5.1-5.092a.991.991,0,0,0-.79-.289,1,1,0,0,0-.732.415l-6.93,9.679L9.581,10.664a1,1,0,0,0-1.065-.052L.51,15.105a1,1,0,0,0,.981,1.74l7.458-4.185L13.438,15.8a1,1,0,0,0,1.388-.238l6.82-9.524,4.669,4.658a1,1,0,0,0,.95.263l6-1.5a.991.991,0,0,0,.3-.133L44.448,2.248l3.432,3A1,1,0,0,0,49.247,5.2L52.75,1.7A1,1,0,0,0,51.335.293Z" transform="translate(600.355 1875.774)" fill="#ea9191"/></g></svg>