<svg xmlns="http://www.w3.org/2000/svg" width="29.866" height="40.914" viewBox="0 0 29.866 40.914"><defs><style>.a{fill:#fff;}</style></defs><g transform="translate(0)"><path class="a" d="M14.935,40.914a2.155,2.155,0,0,1-2.152-2.153V33.854a15.562,15.562,0,0,1-8.39-4.135A15.035,15.035,0,0,1,1.547,26,14.007,14.007,0,0,1,.026,21.52a1.834,1.834,0,0,1,1.8-2.139,1.839,1.839,0,0,1,1.8,1.583,10.707,10.707,0,0,0,3.916,6.8,11.809,11.809,0,0,0,14.777,0,10.709,10.709,0,0,0,3.916-6.8,1.822,1.822,0,1,1,3.6.556A13.991,13.991,0,0,1,28.321,26a15.025,15.025,0,0,1-2.845,3.72,15.559,15.559,0,0,1-8.39,4.135v4.907A2.155,2.155,0,0,1,14.935,40.914Zm0-15.073a6.479,6.479,0,0,1-6.46-6.46V6.46a6.46,6.46,0,1,1,12.92,0l-.021,12.92a6.447,6.447,0,0,1-6.44,6.46Z"/></g></svg>