<?xml version="1.0" encoding="UTF-8"?>
<svg width="15px" height="24px" viewBox="0 0 15 24" version="1.1" xmlns="http://www.w3.org/2000/svg" xmlns:xlink="http://www.w3.org/1999/xlink">
    <!-- Generator: Sketch 57.1 (83088) - https://sketch.com -->
    <title>microphone-icon</title>
    <desc>Created with Sketch.</desc>
    <g id="Page-1" stroke="none" stroke-width="1" fill="none" fill-rule="evenodd">
        <g id="Desktop-HD-Copy-47" transform="translate(-493.000000, -914.000000)" fill="#2B2C33" fill-rule="nonzero">
            <g id="Group-23" transform="translate(470.000000, 896.000000)">
                <g id="Group-22-Copy">
                    <g id="microphone-icon" transform="translate(23.000000, 18.000000)">
                        <g id="Group">
                            <g id="microphone" transform="translate(0.000000, -0.000000)">
                                <path d="M1.53117017,7.47665047 L1.53117017,10.4673107 C1.53117017,13.7653629 4.21443834,16.448631 7.51249054,16.448631 C10.8105427,16.448631 13.4938109,13.7653629 13.4938109,10.4673107 L13.4938109,10.4673107 L13.4938109,7.47665047 L14.9891889,7.47665047 L14.9891889,10.4673107 C14.9891889,14.3336361 12.0277175,17.4869404 8.26020344,17.8683572 L8.26020344,17.8683572 L8.26020344,23.9252336 L6.76487334,23.9252336 L6.76487334,17.8683572 C2.99735927,17.4869882 0.0358879222,14.333684 0.0358879222,10.4673107 L0.0358879222,10.4673107 L0.0358879222,7.47665047 L1.53117017,7.47665047 Z M7.51253839,5.32907052e-14 C9.98622109,5.32907052e-14 11.9985287,2.01225973 11.9985287,4.48594243 L11.9985287,4.48594243 L11.9985287,10.4672628 C11.9985287,12.9409934 9.98626894,14.9532531 7.51253839,14.9532531 C5.03880783,14.9532531 3.02654811,12.9409934 3.02654811,10.4673107 L3.02654811,10.4673107 L3.02654811,4.48599028 C3.02654811,2.01225973 5.03885569,5.32907052e-14 7.51253839,5.32907052e-14 Z M7.51253839,1.49533009 C5.86312948,1.49533009 4.5218782,2.83658137 4.5218782,4.48599028 L4.5218782,4.48599028 L4.5218782,10.4673107 C4.5218782,12.1167196 5.86312948,13.4579708 7.51253839,13.4579708 C9.1619473,13.4579708 10.5031986,12.1167196 10.5031986,10.4673107 L10.5031986,10.4673107 L10.5031986,4.48599028 C10.5031986,2.83658137 9.1619473,1.49533009 7.51253839,1.49533009 Z" id="Combined-Shape"></path>
                            </g>
                        </g>
                    </g>
                </g>
            </g>
        </g>
    </g>
</svg>