<svg xmlns="http://www.w3.org/2000/svg" width="39.13" height="39.934" viewBox="0 0 39.13 39.934"><g transform="translate(-0.736 -0.033)"><g transform="translate(4.214)"><path d="M13.788,4.183H5.279A2.717,2.717,0,0,1,2.64,1.394V0H0V1.394A5.434,5.434,0,0,0,5.28,6.971h8.579Z" transform="translate(0.683 32.101)" fill="#515151"/><path d="M2.64,18.125C2.64,9.669,8.857,2.788,16.5,2.788s13.859,6.88,13.859,15.337H33C33,8.115,25.61,0,16.5,0S0,8.115,0,18.125Z" transform="translate(0.023 0.033)" fill="#515151"/></g><g transform="translate(0.736 17.273)"><path d="M2.7,0H8.771a.692.692,0,0,1,.675.709V14.888a.692.692,0,0,1-.675.709H2.7A2.77,2.77,0,0,1,0,12.761V2.836A2.77,2.77,0,0,1,2.7,0Z" transform="translate(0 0.008)" fill="#c5edff"/><path d="M6.747,15.6H.675A.692.692,0,0,1,0,14.887V.709A.692.692,0,0,1,.675,0H6.747a2.77,2.77,0,0,1,2.7,2.836v9.925A2.77,2.77,0,0,1,6.747,15.6Z" transform="translate(29.685 0.008)" fill="#c5edff"/><path d="M.675,0H6.747a.692.692,0,0,1,.675.709V3.545a.692.692,0,0,1-.675.709H.675A.692.692,0,0,1,0,3.545V.709A.692.692,0,0,1,.675,0Z" transform="translate(15.517 18.44)" fill="#c5edff"/></g><g transform="translate(12.91 18.182)"><path d="M7.57,7.347H6.194V5.51a.689.689,0,1,0-1.376,0V7.347H1.9l3.5-6.234A.778.778,0,0,0,5.417.378.667.667,0,0,0,4.226.357L.1,7.7a.778.778,0,0,0-.009.74.682.682,0,0,0,.6.373h4.13v2.2a.689.689,0,1,0,1.376,0v-2.2H7.57a.736.736,0,0,0,0-1.469Z" transform="translate(8.258 0.063)" fill="#6f6f6f"/><path d="M6.879,10.286H3.051c1.7-1.363,3.828-3.659,3.828-6.612A3.674,3.674,0,0,0,4.656.237,3.3,3.3,0,0,0,.86,1.244.77.77,0,0,0,.921,2.281a.658.658,0,0,0,.971-.065,1.977,1.977,0,0,1,2.278-.6A2.2,2.2,0,0,1,5.5,3.674c0,3.9-5.073,6.662-5.124,6.69a.752.752,0,0,0-.361.826.7.7,0,0,0,.669.566H6.879a.736.736,0,0,0,0-1.469Z" transform="translate(0.006 0.063)" fill="#6f6f6f"/></g></g></svg>