<svg xmlns="http://www.w3.org/2000/svg" width="82.821" height="73.958" viewBox="0 0 82.821 73.958"><g transform="translate(-0.214 -0.021)"><path d="M0,38.993V0H37.76V30.423H18.211L0,38.992ZM3.7,3.7V33.163l13.683-6.44H34.061V3.7Z" transform="translate(22.775 23.778)" fill="#ff8b8b"/><rect width="22.702" height="3.7" transform="translate(30.304 30.803)" fill="#ff8b8b"/><rect width="17.019" height="3.7" transform="translate(30.304 36.901)" fill="#ff8b8b"/><rect width="20.405" height="3.7" transform="translate(30.304 42.999)" fill="#ff8b8b"/><path d="M46.961,73.958H42.286a6.243,6.243,0,1,1,0-12.486h4.675a6.248,6.248,0,0,1,6.022,4.621l1.133-.042c4.829-.177,8.073-3.394,8.073-8V51.9a1.119,1.119,0,0,1,.012-.14v-.007l0-.025c0-.017,0-.029,0-.042V25.324a2.058,2.058,0,0,1,.036-.357V23.837C62.246,12.357,53.3,3.7,41.44,3.7s-20.8,8.657-20.8,20.138v4.235a1.353,1.353,0,0,1-.019.2l-.005.041V52.45a1.853,1.853,0,0,1-1.85,1.85h-.013l-.013,0a16.861,16.861,0,1,1-1.87-33.618c.052,0,.106,0,.151.007s.088.006.131.007A23.445,23.445,0,0,1,25.129,5.912a24.127,24.127,0,0,1,7.4-4.342,26.081,26.081,0,0,1,17.857.011A24.142,24.142,0,0,1,57.8,5.951a23.441,23.441,0,0,1,7.953,14.87h.007c.031,0,.062,0,.091,0h.007c.034,0,.066,0,.1,0a16.864,16.864,0,0,1,0,33.728h-.068v3.512c0,6.638-4.785,11.45-11.635,11.7l-1.414.052A6.26,6.26,0,0,1,46.961,73.958Zm-4.674-8.786a2.543,2.543,0,0,0,0,5.086h4.676a2.543,2.543,0,1,0,0-5.086ZM65.947,24.51v3.563a1.81,1.81,0,0,1-.036.359v22.4h.048a13.164,13.164,0,1,0,0-26.328Zm-49.082-.129a13.164,13.164,0,1,0,0,26.328h.023l.024,0V25.324a1.367,1.367,0,0,1,.022-.22l0-.022v-.7l-.037,0Z" transform="translate(0.214 0.021)" fill="#464646"/></g></svg>