<svg xmlns="http://www.w3.org/2000/svg" width="40" height="40" viewBox="0 0 40 40"><g transform="translate(0 0.625)"><path d="M38.667,1.333v28H0v-28A1.337,1.337,0,0,1,1.333,0h36A1.337,1.337,0,0,1,38.667,1.333Z" transform="translate(0 0.042)" fill="#708a97"/><path d="M36.667,1.333v28H0v-28A1.337,1.337,0,0,1,1.333,0h34A1.337,1.337,0,0,1,36.667,1.333Z" transform="translate(0 0.042)" fill="#fff"/><rect width="6.667" height="8.667" transform="translate(16.667 30.042)" fill="#37474f"/><rect width="4.667" height="8.667" transform="translate(16.667 30.042)" fill="#607d8b"/><path d="M38.667,0V4a1.337,1.337,0,0,1-1.333,1.333h-36A1.337,1.337,0,0,1,0,4V0H38.667Z" transform="translate(0 27.375)" fill="#37474f"/><path d="M36.667,0V4a1.337,1.337,0,0,1-1.333,1.333h-34A1.337,1.337,0,0,1,0,4V0H36.667Z" transform="translate(0 27.375)" fill="#b6e8ff"/><path d="M.667,0h28a.667.667,0,0,1,.667.667v14a.667.667,0,0,1-.667.667h-28A.667.667,0,0,1,0,14.667v-14A.667.667,0,0,1,.667,0Z" transform="translate(5.333 6.042)" fill="#9e9e9e"/><path d="M.667,0h26a.667.667,0,0,1,.667.667v14a.667.667,0,0,1-.667.667h-26A.667.667,0,0,1,0,14.667v-14A.667.667,0,0,1,.667,0Z" transform="translate(5.333 6.042)" fill="#f5f5f5"/></g><path d="M30,40H10a.666.666,0,1,1,0-1.333h6V34H2a2,2,0,0,1-2-2V2A2,2,0,0,1,2,0H38a2,2,0,0,1,2,2V32a2,2,0,0,1-2,2H24v2a.667.667,0,1,1-1.334,0V34H17.333v4.667H30A.666.666,0,1,1,30,40ZM1.334,28.667V32A.667.667,0,0,0,2,32.666H38A.667.667,0,0,0,38.667,32V28.667ZM2,1.334A.667.667,0,0,0,1.334,2V27.333H38.667V2A.667.667,0,0,0,38,1.334Z" fill="#3e3e3e"/><path d="M1.333,16.667h24a.667.667,0,1,0,0-1.333h-24v-14h28V16a.667.667,0,0,0,1.333,0V1.333A1.333,1.333,0,0,0,29.333,0h-28A1.333,1.333,0,0,0,0,1.333v14A1.333,1.333,0,0,0,1.333,16.667Z" transform="translate(4.667 6)" fill="#3e3e3e"/><path d="M3.333,5.981A3,3,0,1,0,0,3,.667.667,0,0,0,1.333,3,1.667,1.667,0,1,1,3,4.667H2.667A.667.667,0,0,0,2,5.333V6.667a.667.667,0,1,0,1.333,0V5.981Z" transform="translate(8.667 9.333)" fill="#3e3e3e"/><path d="M.193.193a.676.676,0,0,0,0,.947.667.667,0,1,0,0-.947Z" transform="translate(10.667 18)" fill="#3e3e3e"/><path d="M10,.667A.667.667,0,0,0,9.333,0H.667a.667.667,0,1,0,0,1.333H9.333A.667.667,0,0,0,10,.667Z" transform="translate(16.667 11.333)" fill="#3e3e3e"/><path d="M2.667,0h-2a.667.667,0,1,0,0,1.333h2A.667.667,0,1,0,2.667,0Z" transform="translate(28 11.333)" fill="#3e3e3e"/><path d="M5.333,0H.667a.667.667,0,1,0,0,1.333H5.333A.667.667,0,1,0,5.333,0Z" transform="translate(16.667 14)" fill="#3e3e3e"/><path d="M6.667,0h-6a.667.667,0,1,0,0,1.333h6A.667.667,0,0,0,6.667,0Z" transform="translate(24 14)" fill="#3e3e3e"/><path d="M5.333,0H.667a.667.667,0,1,0,0,1.333H5.333A.667.667,0,1,0,5.333,0Z" transform="translate(16.667 16.667)" fill="#3e3e3e"/><path d="M.667,0a.667.667,0,1,0,0,1.333H3.333A.667.667,0,0,0,3.333,0Z" transform="translate(24 16.667)" fill="#3e3e3e"/><path d="M1.333,0H.667a.667.667,0,1,0,0,1.333h.667A.667.667,0,0,0,1.333,0Z" transform="translate(29.333 16.667)" fill="#3e3e3e"/></svg>