<svg xmlns="http://www.w3.org/2000/svg" width="18.816" height="18.02" viewBox="0 0 18.816 18.02"><defs><style>.a{fill:#cbd3d9;}</style></defs><g transform="translate(-0.168)"><path class="a" d="M7.732,6.317l3.179-3.1L7.751,0V2.16H0v2H7.732Z" transform="translate(6.989 8.108) rotate(-48)"/><path class="a" d="M17.656,13.682v-.006L13.8,10.923l-.005,0a.655.655,0,0,0-.854.064.7.7,0,0,0-.06.075h0a.317.317,0,0,0-.034.048c-.258.37-.256.416-.465.738a13.993,13.993,0,0,0-.978,2,9.411,9.411,0,0,1-4.455-2.869C5.19,9.22,4.25,7.61,4.085,6.529a14.359,14.359,0,0,0,2-.977c.319-.21.366-.208.738-.465.015-.012.031-.022.047-.033,0,0,0,0,0,0a.516.516,0,0,0,.074-.06.658.658,0,0,0,.064-.854v0L4.259.281H4.252a.841.841,0,0,0-.073-.09A.66.66,0,0,0,3.314.136C1.469,1.4-.2,2.789.019,4.433.254,6.2,2.356,10.082,5.1,12.83s6.637,4.851,8.4,5.083c1.644.221,3.033-1.447,4.3-3.292a.643.643,0,0,0-.147-.938Z" transform="translate(0.168 0.087)"/></g></svg>