<svg xmlns="http://www.w3.org/2000/svg" width="31" height="31.002" viewBox="0 0 31 31.002"><defs><style>.a{fill:none;stroke:#7c7c7c;stroke-miterlimit:10;}</style></defs><path class="a" d="M29.936,23.246q-.127-.384-1.619-1.129-.4-.235-1.15-.639t-1.353-.746q-.608-.341-1.14-.66-.085-.064-.533-.373a5.988,5.988,0,0,0-.757-.458,1.4,1.4,0,0,0-.607-.149,1.768,1.768,0,0,0-1.065.607A10.375,10.375,0,0,0,20.54,21.02a12.846,12.846,0,0,1-1.129,1.321,1.624,1.624,0,0,1-.98.607,1.449,1.449,0,0,1-.48-.106c-.192-.071-.337-.132-.437-.181s-.269-.149-.511-.3-.377-.231-.405-.245a22.392,22.392,0,0,1-5.007-3.707A22.38,22.38,0,0,1,7.884,13.4q-.021-.043-.245-.4t-.3-.512a4.618,4.618,0,0,1-.181-.437,1.442,1.442,0,0,1-.107-.479,1.624,1.624,0,0,1,.607-.98A12.833,12.833,0,0,1,8.981,9.46,10.37,10.37,0,0,0,10.3,8.288a1.769,1.769,0,0,0,.607-1.065,1.391,1.391,0,0,0-.149-.607,5.923,5.923,0,0,0-.458-.757q-.309-.447-.373-.533-.319-.532-.66-1.14T8.523,2.834q-.4-.745-.639-1.15Q7.138.192,6.755.064A1.193,1.193,0,0,0,6.307,0,7.02,7.02,0,0,0,4.8.213a8.438,8.438,0,0,0-1.46.447,5.712,5.712,0,0,0-2.259,2.6A8.261,8.261,0,0,0,0,7.223,8.229,8.229,0,0,0,.075,8.342,9.193,9.193,0,0,0,.341,9.567q.192.682.309,1.012t.437,1.183q.319.852.383,1.044a19.3,19.3,0,0,0,1.768,3.729A31.594,31.594,0,0,0,7.83,22.17a31.608,31.608,0,0,0,5.636,4.592,19.33,19.33,0,0,0,3.729,1.769q.192.064,1.044.384t1.183.437q.33.117,1.012.309a9.275,9.275,0,0,0,1.225.267,7.9,7.9,0,0,0,5.082-1.012,5.708,5.708,0,0,0,2.6-2.259,8.393,8.393,0,0,0,.447-1.459,7,7,0,0,0,.213-1.5A1.188,1.188,0,0,0,29.936,23.246Z" transform="translate(0.5 0.5)"/></svg>