<svg xmlns="http://www.w3.org/2000/svg" width="38.978" height="43.158" viewBox="0 0 38.978 43.158"><g transform="translate(0 -6.842)"><path d="M16.692,49.714,12.681,45.7H6.836A6.843,6.843,0,0,1,0,38.867V23.828a6.844,6.844,0,0,1,6.836-6.836H16.7a.976.976,0,1,1,0,1.953H6.836a4.889,4.889,0,0,0-4.883,4.883V38.867A4.888,4.888,0,0,0,6.836,43.75h6.346a.976.976,0,0,1,.9.587l2.331,2.331,0-1.942a.976.976,0,0,1,.976-.976H27.93a4.888,4.888,0,0,0,4.883-4.882V32.129a.976.976,0,1,1,1.953,0v6.738A6.843,6.843,0,0,1,27.93,45.7H18.362l0,3.321a.976.976,0,0,1-1.667.69Zm9.472-12.3a.976.976,0,1,1,.69.286A.984.984,0,0,1,26.165,37.409ZM6.25,37.7a.977.977,0,0,1,0-1.953H23.015a.977.977,0,0,1,0,1.953Zm0-5.469a.976.976,0,1,1,0-1.953H26.855a.976.976,0,1,1,0,1.953Zm0-5.468a.976.976,0,1,1,0-1.953H20.507a.976.976,0,1,1,0,1.953Zm27.9-4.94a.98.98,0,1,1,.69.284A.985.985,0,0,1,34.153,21.818Zm-.286-4.555V14.917a1.847,1.847,0,0,1,1.456-1.811,2.182,2.182,0,1,0-2.661-2.129.976.976,0,1,1-1.953,0,4.148,4.148,0,0,1,1.314-3.022,4.1,4.1,0,0,1,3.111-1.1,4.135,4.135,0,0,1,.686,8.142v2.268a.976.976,0,1,1-1.953,0Z" fill="#fff"/></g></svg>