<svg xmlns="http://www.w3.org/2000/svg" width="83.535" height="57.526" viewBox="0 0 83.535 57.526"><g transform="translate(1 0.204)"><path d="M46.507,55.526a127.448,127.448,0,0,1-15.463-1.01.92.92,0,1,1,.247-1.822c.139.018,14.111,1.881,24.475.43a.911.911,0,1,1,.252,1.8,69.707,69.707,0,0,1-9.117.6ZM9.259,19.32a.911.911,0,1,1,0-1.823H21.781a.911.911,0,0,1,0,1.823ZM5.085,10.852a.911.911,0,0,1,0-1.823h16.7a.911.911,0,0,1,0,1.823ZM.912,1.822A.911.911,0,1,1,.912,0H21.781a.911.911,0,0,1,0,1.822Z" transform="translate(0 0.796)" fill="#464646" stroke="#464646" stroke-miterlimit="10" stroke-width="2"/><path d="M5.833,11.665a5.832,5.832,0,1,1,5.832-5.832A5.839,5.839,0,0,1,5.833,11.665Zm0-9.842a4.01,4.01,0,1,0,4.009,4.01A4.015,4.015,0,0,0,5.833,1.822Z" transform="translate(48.389 10.885)" fill="#ff8b8b"/><path d="M55.351,32.228H.912A.912.912,0,0,1,0,31.317V.912A.907.907,0,0,1,.908,0H55.351A.918.918,0,0,1,56,.266a.906.906,0,0,1,.265.646V31.317A.912.912,0,0,1,55.351,32.228ZM1.822,1.823V30.406H54.439V1.823Z" transform="translate(26.273 0.313)" fill="#ff8b8b"/><path d="M42.165,22.236H4.313a.912.912,0,0,1-.912-.911,2.5,2.5,0,0,0-2.489-2.49A.912.912,0,0,1,0,17.924V4.316A.913.913,0,0,1,.912,3.4,2.5,2.5,0,0,0,3.4.912.913.913,0,0,1,4.313,0H42.165a.913.913,0,0,1,.912.912A2.5,2.5,0,0,0,45.566,3.4a.913.913,0,0,1,.912.912V17.924a.912.912,0,0,1-.912.911,2.5,2.5,0,0,0-2.489,2.49A.912.912,0,0,1,42.165,22.236ZM5.129,1.823h0A4.345,4.345,0,0,1,1.823,5.129V17.111a4.339,4.339,0,0,1,3.307,3.3h36.22a4.339,4.339,0,0,1,3.307-3.3V5.129a4.346,4.346,0,0,1-3.307-3.307H5.129Z" transform="translate(31.256 5.417)" fill="#ff8b8b"/></g></svg>