<svg xmlns="http://www.w3.org/2000/svg" width="40" height="40" viewBox="0 0 40 40"><g opacity="0.9"><path d="M4.28,0H3.546C1.587,0,0,1.168,0,2.609H7.826C7.826,1.168,6.239,0,4.28,0Z" transform="translate(18.261 36.522)" fill="#72d8ff"/><path d="M0,0H2.609V5.217H0Z" transform="translate(19.13 31.304)" fill="#72d8ff"/><path d="M3.913,0A6.492,6.492,0,0,0,0,5.939v13.34a6.492,6.492,0,0,0,3.913,5.939,6.492,6.492,0,0,0,3.913-5.939V5.939A6.492,6.492,0,0,0,3.913,0Z" transform="translate(19.13 1.739)" fill="#ade5ff"/><path d="M3.913,12.174A6.493,6.493,0,0,0,7.826,6.235V0H0V6.235A6.493,6.493,0,0,0,3.913,12.174Z" transform="translate(19.13 13.913)" fill="#ff5d5d"/><path d="M7.392,27.826A7.333,7.333,0,0,1,0,20.571V7.255A7.333,7.333,0,0,1,7.392,0a7.332,7.332,0,0,1,7.391,7.255V20.571A7.332,7.332,0,0,1,7.392,27.826ZM1.572,15.178v5.394a5.773,5.773,0,0,0,5.819,5.711,5.772,5.772,0,0,0,5.819-5.711V15.178ZM7.392,1.544A5.773,5.773,0,0,0,1.572,7.255v6.378H13.21V7.255A5.772,5.772,0,0,0,7.392,1.544Z" transform="translate(13.043)" fill="#3e3e3e"/><path d="M.76,1.739h3.7a.82.82,0,0,0,.76-.87A.82.82,0,0,0,4.458,0H.76A.82.82,0,0,0,0,.87a.82.82,0,0,0,.76.87Z" transform="translate(17.391 8.696)" fill="#3e3e3e"/><path d="M.76,1.739h3.7a.82.82,0,0,0,.76-.87A.82.82,0,0,0,4.458,0H.76A.82.82,0,0,0,0,.87a.82.82,0,0,0,.76.87Z" transform="translate(17.391 6.087)" fill="#3e3e3e"/><path d="M16.408,20H5.331a.786.786,0,0,1-.787-.783A3.935,3.935,0,0,1,8.486,15.3h.062V11.34A10.936,10.936,0,0,1,2.444,7.6,10.779,10.779,0,0,1,0,.783a.788.788,0,0,1,1.575,0,9.295,9.295,0,0,0,18.589,0,.788.788,0,0,1,1.575,0A10.779,10.779,0,0,1,19.3,7.6a10.932,10.932,0,0,1-6.1,3.739V15.3h.062A3.935,3.935,0,0,1,17.2,19.217.786.786,0,0,1,16.408,20ZM8.486,16.863a2.372,2.372,0,0,0-2.233,1.571h9.233a2.374,2.374,0,0,0-2.233-1.571Zm1.636-5.3V15.3h1.494V11.563c-.273.018-.517.026-.747.026S10.391,11.581,10.122,11.563Z" transform="translate(9.565 20)" fill="#3e3e3e"/><path d="M.87,0A.812.812,0,0,0,0,.739V7.956A.813.813,0,0,0,.87,8.7a.813.813,0,0,0,.87-.739V.739A.812.812,0,0,0,.87,0Z" transform="translate(3.478 7.826)" fill="#3e3e3e"/><path d="M.87,5.217a.825.825,0,0,0,.87-.771V.771A.825.825,0,0,0,.87,0,.825.825,0,0,0,0,.771V4.446A.825.825,0,0,0,.87,5.217Z" transform="translate(9.565 9.565)" fill="#3e3e3e"/><path d="M.87,0A.834.834,0,0,0,0,.793v13.2a.834.834,0,0,0,.87.793.834.834,0,0,0,.87-.793V.793A.834.834,0,0,0,.87,0Z" transform="translate(0 4.348)" fill="#3e3e3e"/><path d="M.87,0A.83.83,0,0,0,0,.785v10.6a.83.83,0,0,0,.87.785.83.83,0,0,0,.87-.785V.785A.83.83,0,0,0,.87,0Z" transform="translate(6.087 6.087)" fill="#3e3e3e"/><path d="M.87,0A.812.812,0,0,0,0,.739V7.956A.813.813,0,0,0,.87,8.7a.813.813,0,0,0,.87-.739V.739A.812.812,0,0,0,.87,0Z" transform="translate(34.783 7.826)" fill="#3e3e3e"/><path d="M.87,5.217a.825.825,0,0,0,.87-.771V.771A.825.825,0,0,0,.87,0,.825.825,0,0,0,0,.771V4.446A.825.825,0,0,0,.87,5.217Z" transform="translate(29.565 9.565)" fill="#3e3e3e"/><path d="M.87,0A.834.834,0,0,0,0,.793v13.2a.834.834,0,0,0,.87.793.834.834,0,0,0,.87-.793V.793A.834.834,0,0,0,.87,0Z" transform="translate(38.261 4.348)" fill="#3e3e3e"/><path d="M.87,0A.869.869,0,0,0,0,.87a.869.869,0,0,0,1.484.615.87.87,0,0,0,0-1.23A.876.876,0,0,0,.87,0Z" transform="translate(32.174 16.522)" fill="#3e3e3e"/><path d="M.87,0A.825.825,0,0,0,0,.772V7.924A.825.825,0,0,0,.87,8.7a.825.825,0,0,0,.87-.772V.772A.825.825,0,0,0,.87,0Z" transform="translate(32.174 6.957)" fill="#3e3e3e"/><path d="M.842,5.217A4.38,4.38,0,0,0,5.217.842a.842.842,0,1,0-1.684,0A2.7,2.7,0,0,1,.842,3.534a.842.842,0,0,0,0,1.684Z" transform="translate(19.13 20)" fill="#3e3e3e"/><path d="M.87,1.739a.87.87,0,0,0,.87-.87A.869.869,0,0,0,.255.255a.868.868,0,0,0,0,1.23A.876.876,0,0,0,.87,1.739Z" transform="translate(22.609 16.522)" fill="#3e3e3e"/></g></svg>