<?xml version="1.0" encoding="UTF-8"?>
<svg width="31px" height="31px" viewBox="0 0 31 31" version="1.1" xmlns="http://www.w3.org/2000/svg" xmlns:xlink="http://www.w3.org/1999/xlink">
    <!-- Generator: Sketch 57.1 (83088) - https://sketch.com -->
    <title>resize-icon</title>
    <desc>Created with Sketch.</desc>
    <g id="Page-1" stroke="none" stroke-width="1" fill="none" fill-rule="evenodd">
        <g id="Desktop-HD-Copy-47" transform="translate(-115.000000, -20.000000)" fill="#FFFFFF" fill-rule="nonzero">
            <g id="noun_enlarge_2149068" transform="translate(115.000000, 20.000000)">
                <g id="resize-icon">
                    <path d="M21.716562,21.0771265 L26.9491223,21.1454946 C27.4438916,21.1530911 27.8412064,21.5632998 27.8337099,22.064666 C27.82679,22.5274656 27.4877173,22.9125926 27.0464438,22.9691044 L26.9341293,22.976241 L26.9191363,22.976241 L23.8980449,22.9230658 L30.3450389,29.4408268 C30.6973746,29.7978604 30.6973746,30.3751912 30.3450389,30.7322247 C30.0220645,31.0595054 29.5164149,31.0867788 29.1629946,30.8140449 L29.0706331,30.7322247 L22.6236391,24.1992708 L22.6611216,27.2606434 C22.6686181,27.7696061 22.2713034,28.1798148 21.7765341,28.1874112 C21.3171054,28.1944651 20.9287788,27.8478186 20.8756476,27.3968398 L20.869457,27.2910292 L20.8019885,21.9887015 C20.794492,21.7380183 20.8919465,21.5101246 21.0643661,21.3354061 C21.2080491,21.1898073 21.3881735,21.1075123 21.5830479,21.0841251 L21.701569,21.0771265 L21.716562,21.0771265 Z M9.193248,21.0751964 C9.43313615,21.0751964 9.65803129,21.1587574 9.8304509,21.333476 C10.0028705,21.5081945 10.0928286,21.7360883 10.0928286,21.9791749 L10.0928286,21.9791749 L10.02536,27.2815027 C10.0178635,27.7828689 9.60555576,28.1854812 9.11078645,28.1778847 C8.61601714,28.1702883 8.21870239,27.7524831 8.2261989,27.2511168 L8.2261989,27.2511168 L8.26368142,24.1897442 L1.8166874,30.7226982 C1.46435168,31.0797317 0.894617321,31.0797317 0.549778106,30.7378911 C0.197442386,30.3808576 0.197442386,29.8111232 0.549778106,29.4540897 L0.549778106,29.4540897 L6.99677213,22.9287322 L3.97568074,22.9819074 L3.97568074,22.9819074 L3.96068773,22.9819074 C3.46591843,22.9819074 3.06860368,22.5716986 3.06110717,22.0703324 C3.05361067,21.5613697 3.45092542,21.1435645 3.94569473,21.1359681 L3.94569473,21.1359681 L9.17825499,21.0751964 L9.17825499,21.0751964 Z M29.7224261,0.294707963 C29.9548177,0.294707963 30.1872094,0.38586546 30.359629,0.560583996 C30.6826034,0.887864731 30.7095179,1.39387324 30.4403726,1.75094194 L30.359629,1.84438541 L23.9126349,8.3697429 L26.9337263,8.31656769 L26.9487193,8.31656769 C27.4434886,8.31656769 27.8408034,8.72677643 27.8482999,9.22814266 C27.8552609,9.69369702 27.5131755,10.0937513 27.0681307,10.1546088 L26.9637123,10.162507 L21.7311521,10.2308751 C21.4912639,10.2384716 21.2588723,10.1397176 21.0714597,9.96499909 C20.9277767,9.81940031 20.8413586,9.62632367 20.8165438,9.42533405 L20.809082,9.30410724 L20.8765505,3.99418305 C20.8834704,3.53138345 21.2225431,3.13978378 21.6638166,3.08227614 L21.7761311,3.07501162 L21.7911241,3.07501162 C22.2478342,3.14513277 22.6215062,3.46121735 22.6703955,3.90376894 L22.6757117,4.01697242 L22.6382291,7.09353794 L29.0852232,0.560583996 C29.2651393,0.38586546 29.4900344,0.294707963 29.7224261,0.294707963 Z M1.20157104,0.287111505 C1.39523074,0.287111505 1.58889045,0.350415323 1.74784411,0.472626859 L1.83877394,0.552987538 L8.28576796,7.07834502 L8.24828544,4.00937596 C8.24136559,3.53956425 8.57937367,3.19920697 9.02056532,3.08987606 L9.13287299,3.06741516 L9.147866,3.06741516 C9.60457613,3.06741516 9.97824805,3.42341485 10.0389298,3.87252216 L10.0474466,3.98658659 L10.1149151,9.30410724 C10.1224116,9.5471939 10.024957,9.7826841 9.85253744,9.95740263 C9.71510152,10.1030014 9.52560654,10.195847 9.32743505,10.218355 L9.20783803,10.2232787 L3.97527777,10.1549105 C3.48050846,10.1473141 3.08319371,9.72950889 3.09069022,9.22814266 C3.09765126,8.7625883 3.45365873,8.38218403 3.90062143,8.336298 L4.00526379,8.33176061 L7.02635517,8.3697429 L0.56436814,1.84438541 C0.21203242,1.48735188 0.21203242,0.910021067 0.56436814,0.552987538 C0.744284252,0.378269002 0.969179393,0.287111505 1.20157104,0.287111505 Z" id="Combined-Shape"></path>
                </g>
            </g>
        </g>
    </g>
</svg>