<svg xmlns="http://www.w3.org/2000/svg" width="14.212" height="13.68" viewBox="0 0 14.212 13.68"><g transform="translate(0)"><path d="M13.245,13.514l-.554-.554L9.214,9.482a5.3,5.3,0,0,1-2.654,1.377A5.544,5.544,0,0,1,.773,8.316a5.544,5.544,0,0,1,.476-6.323A5.5,5.5,0,0,1,7.33.322a5.556,5.556,0,0,1,3.628,5.13c0,.009,0,.018,0,.028v.005c0,.01,0,.019,0,.028A5.58,5.58,0,0,1,9.951,8.622l.215.215,3.878,3.878a.572.572,0,0,1-.42.965A.528.528,0,0,1,13.245,13.514ZM1.747,3.227a4.387,4.387,0,0,0,.346,5.01A4.356,4.356,0,0,0,9.826,5.486a4.4,4.4,0,0,0-3.5-4.269,4.153,4.153,0,0,0-.846-.086A4.4,4.4,0,0,0,1.747,3.227Z" fill="#575757"/></g></svg>