<svg xmlns="http://www.w3.org/2000/svg" width="24.953" height="24.962" viewBox="0 0 24.953 24.962"><defs><style>.a{opacity:0.6;}</style></defs><path class="a" d="M12.491,24.962h-.023a13.052,13.052,0,0,1-1.438-.082.7.7,0,0,1-.615-.732A2.768,2.768,0,0,0,8.73,21.44a2.879,2.879,0,0,0-3.116.707.7.7,0,0,1-.951.073,12.4,12.4,0,0,1-1.975-2,.7.7,0,0,1,.077-.943,2.793,2.793,0,0,0,.7-3.086A2.732,2.732,0,0,0,.921,14.48H.9a.8.8,0,0,1-.814-.615,12.368,12.368,0,0,1,0-2.836.677.677,0,0,1,.675-.615H.8l.094,0A2.894,2.894,0,0,0,3.517,8.738a2.769,2.769,0,0,0-.707-3.121.7.7,0,0,1-.072-.951,12.4,12.4,0,0,1,2.017-2,.687.687,0,0,1,.429-.148.7.7,0,0,1,.513.226,2.911,2.911,0,0,0,2.083.883,2.885,2.885,0,0,0,1.008-.181A2.787,2.787,0,0,0,10.5.787a.693.693,0,0,1,.619-.712,12.611,12.611,0,0,1,2.806.007.7.7,0,0,1,.614.732A2.792,2.792,0,0,0,16.22,3.525a2.854,2.854,0,0,0,1.029.191,2.882,2.882,0,0,0,2.081-.893.7.7,0,0,1,.951-.077,12.608,12.608,0,0,1,1.98,2,.7.7,0,0,1-.077.947,2.746,2.746,0,0,0,1.827,4.8h.061a.809.809,0,0,1,.8.615,12.824,12.824,0,0,1,0,2.828.7.7,0,0,1-.694.616h-.234a2.746,2.746,0,0,0-1.816,4.806.7.7,0,0,1,.073.95,12.621,12.621,0,0,1-2.017,2,.695.695,0,0,1-.941-.077,2.88,2.88,0,0,0-3.083-.712,2.782,2.782,0,0,0-1.706,2.661.7.7,0,0,1-.618.716A11.883,11.883,0,0,1,12.491,24.962Zm0-16.617a4.162,4.162,0,1,0,4.162,4.162A4.166,4.166,0,0,0,12.495,8.346Z" transform="translate(0 0)"/></svg>