<svg xmlns="http://www.w3.org/2000/svg" width="36.127" height="30.078" viewBox="0 0 36.127 30.078"><defs><style>.a{fill:#fff;}</style></defs><g transform="translate(-0.297 -0.361)"><path class="a" d="M.8,6.035h0a.8.8,0,0,0-.8.8v9.2a.8.8,0,0,0,.8.8H7.124l7.253,5.859a.8.8,0,0,0,1.3-.62V.8a.8.8,0,0,0-1.315-.6L7.542,6.044Z" transform="translate(0.297 3.971)"/><path class="a" d="M.009,13.907a1.375,1.375,0,0,0,.518.928,1.388,1.388,0,0,0,1.951-.228C7.959,7.675,2.536.6,2.478.527A1.391,1.391,0,0,0,.527.3h0A1.39,1.39,0,0,0,.3,2.247c.17.219,4.122,5.427,0,10.637A1.382,1.382,0,0,0,.009,13.907Z" transform="translate(18.212 7.833)"/><path class="a" d="M.018,19.71a1.388,1.388,0,0,0,2.494.6c7.115-9.787.071-19.64,0-19.736A1.39,1.39,0,0,0,.575.263h0A1.392,1.392,0,0,0,.264,2.2c.244.336,5.911,8.343,0,16.473A1.376,1.376,0,0,0,.018,19.71Z" transform="translate(24.083 4.96)"/><path class="a" d="M.584,29.821a1.388,1.388,0,0,0,1.936-.327C12.671,15.209,2.623.73,2.52.585A1.39,1.39,0,0,0,.583.257,1.392,1.392,0,0,0,.256,2.194c.091.129,8.992,13.038,0,25.692A1.394,1.394,0,0,0,.584,29.821Z" transform="translate(29.37 0.361)"/></g></svg>