<svg xmlns="http://www.w3.org/2000/svg" width="122" height="122" viewBox="0 0 122 122"><g transform="translate(-943 -1810)"><g transform="translate(943 1810)" opacity="0.9"><g transform="translate(2 2)"><path d="M117.983,4.068V99.675a6.1,6.1,0,0,1-6.1,6.1H6.1a6.1,6.1,0,0,1-6.1-6.1V4.068L2.034,0H115.949Z" transform="translate(0.127 12.332)" fill="#ebebeb"/><path d="M111.881,4.068V99.675a6.1,6.1,0,0,1-6.1,6.1H6.1a6.1,6.1,0,0,1-6.1-6.1V4.068L2.034,0H109.846Z" transform="translate(0 12)" fill="#fff"/><path d="M117.983,6.1V16.274H0V6.1A6.1,6.1,0,0,1,6.1,0H111.88A6.1,6.1,0,0,1,117.983,6.1Z" transform="translate(0.127 0.127)" fill="#fff"/><path d="M111.881,6.1V16.274H0V6.1A6.1,6.1,0,0,1,6.1,0h99.675A6.1,6.1,0,0,1,111.881,6.1Z" transform="translate(0.127 0.127)" fill="#e78585" opacity="0.3"/></g><path d="M113.867,0H8.133A8.133,8.133,0,0,0,0,8.133V18.3a2.033,2.033,0,0,0,2.033,2.033h91.5a2.033,2.033,0,0,0,0-4.067H4.067V8.133A4.067,4.067,0,0,1,8.133,4.067H113.867a4.067,4.067,0,0,1,4.067,4.067v8.133h-12.2a2.033,2.033,0,0,0,0,4.067h14.233A2.033,2.033,0,0,0,122,18.3V8.133A8.133,8.133,0,0,0,113.867,0Z" fill="#3e3e3e"/><path d="M119.967,0a2.033,2.033,0,0,0-2.033,2.033V89.467a4.067,4.067,0,0,1-4.067,4.067H8.133a4.067,4.067,0,0,1-4.067-4.067V2.033A2.033,2.033,0,0,0,0,2.033V89.467A8.133,8.133,0,0,0,8.133,97.6H113.867A8.133,8.133,0,0,0,122,89.467V2.033A2.033,2.033,0,0,0,119.967,0Z" transform="translate(0 24.4)" fill="#3e3e3e"/><path d="M2.033,0a2.033,2.033,0,0,0,0,4.067H4.067A2.033,2.033,0,0,0,4.067,0Z" transform="translate(8.133 8.133)" fill="#3e3e3e"/><path d="M2.033,0a2.033,2.033,0,0,0,0,4.067H4.067A2.033,2.033,0,0,0,4.067,0Z" transform="translate(18.3 8.133)" fill="#3e3e3e"/><path d="M2.033,0a2.033,2.033,0,0,0,0,4.067H4.067A2.033,2.033,0,0,0,4.067,0H2.033Z" transform="translate(28.467 8.133)" fill="#3e3e3e"/></g><g transform="translate(967 1840)"><g transform="translate(41.951 1)"><rect width="4" height="31.972" transform="translate(25.714 0.028)" fill="#ea9191"/><rect width="4" height="20.594" transform="translate(12.914 11.406)" fill="#ea9191"/><rect width="4" height="9.216" transform="translate(0.114 22.784)" fill="#ea9191"/></g><g transform="translate(32.951 3)"><rect width="2.306" height="2.824" transform="translate(0.029 0.035)" fill="#193651"/><rect width="2.306" height="2.824" transform="translate(6.832 0.035)" fill="#193651"/><rect width="2.306" height="2.824" transform="translate(13.636 0.035)" fill="#193651"/></g><path d="M32,12v-.343A12.474,12.474,0,0,0,23.775,0a10.2,10.2,0,0,1-7.662,3.771A10.427,10.427,0,0,1,8.338,0,12.31,12.31,0,0,0,0,11.657V12Z" transform="translate(2.951 22)" fill="#f5f5f6"/><g transform="translate(9.951 1)"><path d="M13.288,8.465c0,4.582-2.945,8.341-6.57,8.341S.148,13.047.148,8.465c0-1.645-.453-4.934.227-6.344C1.507-.228,4.339.007,6.718.007c2.492,0,5.777-.117,6.91,2.467C14.081,3.766,13.288,7.055,13.288,8.465Z" transform="translate(1.325 4.164)" fill="#fff"/><path d="M15.745,4.735a2.722,2.722,0,0,0-2.039-2.35c.34-1.645-.793-2-.793-2A32.279,32.279,0,0,0,4.871.153C.68.271.113,4.148,0,4.5v.822H0V9.67L1.359,11.9s.566-7.636,8.156-7.754c0,0,.906,3.994,4.644,4.464l.34.235V11.9a4.039,4.039,0,0,1,1.246-2.35C15.858,8.377,15.745,4.735,15.745,4.735Z" transform="translate(0.113 0.14)" fill="#fff"/></g><path d="M32,12v-.343A12.474,12.474,0,0,0,23.775,0a10.2,10.2,0,0,1-7.662,3.771A10.427,10.427,0,0,1,8.338,0,12.31,12.31,0,0,0,0,11.657V12Z" transform="translate(41.951 60)" fill="#f5f5f6"/><g transform="translate(2.951 38)"><path d="M13.467,8.065c0,4.365-2.985,7.947-6.659,7.947S.15,12.431.15,8.065c0-1.567-.459-4.7.23-6.044C1.528-.218,4.4.006,6.809.006c2.526,0,5.855-.112,7,2.351C14.271,3.588,13.467,6.722,13.467,8.065Z" transform="translate(48.097 5.479)" fill="#fff"/><path d="M15.958,4.423a2.678,2.678,0,0,0-2.067-2.239c.344-1.567-.8-1.9-.8-1.9A39.312,39.312,0,0,0,4.937.17,4.951,4.951,0,0,0,0,4.311v.784H0V9.236l1.492,2.015s.574-7.276,8.266-7.388c0,0,.918,3.806,4.707,4.253l.344.224v2.91a3.8,3.8,0,0,1,1.263-2.239C16.073,7.893,15.958,4.423,15.958,4.423Z" transform="translate(46.87 1.733)" fill="#fff"/><path d="M32.949,25.521l1.837-4.477-3.215-1.9a14.138,14.138,0,0,0-.115-4.925L34.672,12.2,32.72,7.835l-3.674.9a13.016,13.016,0,0,0-3.674-3.358l.8-3.582L21.584,0,19.632,3.134a15.242,15.242,0,0,0-5.051.112L12.514.112l-4.477,1.9L8.955,5.6A12.954,12.954,0,0,0,5.511,9.179L1.837,8.4,0,12.872l3.215,1.9A14.138,14.138,0,0,0,3.329,19.7L.115,21.715l1.952,4.365L5.74,25.073a13.016,13.016,0,0,0,3.674,3.358l-.8,3.582L13.2,33.8l1.952-3.134a15.242,15.242,0,0,0,5.051-.112l2.067,3.134,4.477-1.9-.918-3.582a12.954,12.954,0,0,0,3.444-3.582Z" transform="translate(0.029 0.112)" fill="rgba(234,145,145,0.1)"/><ellipse cx="6.429" cy="6.268" rx="6.429" ry="6.268" transform="translate(10.935 10.746)" fill="#fff"/></g><g transform="translate(0.951)"><path d="M34.878,14.627H0v-1.5A13.576,13.576,0,0,1,2.538,5.169,13.376,13.376,0,0,1,9.293.23L9.981,0l.459.576a9.23,9.23,0,0,0,7,3.455,9.034,9.034,0,0,0,7-3.34L24.9.115l.689.23A14.069,14.069,0,0,1,34.878,13.13v1.5ZM9.064,2.764a11.093,11.093,0,0,0-4.876,3.8,11.572,11.572,0,0,0-2.122,5.874v.115H32.353a11.744,11.744,0,0,0-2.108-5.831A11.009,11.009,0,0,0,25.47,2.879a11.144,11.144,0,0,1-8.146,3.57,10.634,10.634,0,0,1-4.431-.979A13.059,13.059,0,0,1,9.064,2.764Z" transform="translate(39.122 58.998)" fill="#3e3e3e"/><path d="M9.293,22.69a7.171,7.171,0,0,1-5.536-2.721,10.289,10.289,0,0,1-2.266-6.609v-.115L0,11.172V6.449A2.963,2.963,0,0,1,.114,5.183C1.255.481,4.969.115,6.08.115h.009C6.412.1,8.125,0,10.1,0A23.589,23.589,0,0,1,14.57.346h.115a2.737,2.737,0,0,1,1.721,2.3,3.3,3.3,0,0,1,1.95,3c0,.059,0,.215.011.5v.018c.024,1.016.081,3.393-.011,4.315v.461l-.344.346a4.17,4.17,0,0,0-.8,1.152,2.887,2.887,0,0,0-.114.922,10.229,10.229,0,0,1-2.309,6.566A7.172,7.172,0,0,1,9.293,22.69Zm.8-16.356a7.021,7.021,0,0,0-6.31,6.22v.806c0,3.808,2.522,7.025,5.507,7.025,3.088,0,5.506-3.086,5.506-7.025V10.6a6.254,6.254,0,0,1-3.212-1.914A8.857,8.857,0,0,1,10.1,6.334ZM9.981,2.418c-1.925,0-3.767.114-3.785.115a4.152,4.152,0,0,0-2.553.878A4.526,4.526,0,0,0,2.3,5.759v.69a18.959,18.959,0,0,1-.123,2.407c-.078.155-.152.314-.221.473a.07.07,0,0,0,.022,0c.081,0,.148-.16.2-.477.9-1.792,3.192-4.816,8.384-4.94h.918l.229.922a1.044,1.044,0,0,1,.084.2,6.42,6.42,0,0,0,.984,1.841,3.96,3.96,0,0,0,2.718,1.529l.345.115V5.874c0-.928-1.058-1.267-1.148-1.267l-1.032-.346.229-1.037c.089-.359.105-.5.065-.55a.075.075,0,0,0-.065-.026A33.805,33.805,0,0,0,9.981,2.418Z" transform="translate(47.153 38.152)" fill="#3e3e3e"/><path d="M9.523,34.668H0V0H9.523ZM2.3,2.3V32.364H7.228V2.3Z" transform="translate(64.248 0.029)" fill="#3e3e3e"/><path d="M9.523,23.15H0V0H9.523V23.149ZM2.3,2.3V20.847H7.228V2.3Z" transform="translate(51.398 11.546)" fill="#3e3e3e"/><path d="M9.523,11.632H0V0H9.523V11.632ZM2.3,2.3V9.329H7.228V2.3Z" transform="translate(38.549 23.064)" fill="#3e3e3e"/><path d="M9.408,22.69a7.17,7.17,0,0,1-5.535-2.721,10.289,10.289,0,0,1-2.266-6.609c0-.115,0-.115-.115-.23L0,11.057V6.334c.036-.216.061-.388.076-.5l0-.012A2.035,2.035,0,0,1,.23,5.183C1.369.481,5.084.115,6.2.115H6.2C6.527.1,8.24,0,10.21,0a23.608,23.608,0,0,1,4.475.346H14.8a2.74,2.74,0,0,1,1.722,2.3,3.3,3.3,0,0,1,1.95,3c0,.051,0,.173.006.326l0,.171v.006c.024,1.02.081,3.4-.011,4.333v.461l-.345.346a4.154,4.154,0,0,0-.8,1.152,2.866,2.866,0,0,0-.115.922C17.209,18.5,13.709,22.69,9.408,22.69ZM10.1,6.449c-5.517.481-6.245,5.634-6.31,6.22v.691c0,3.874,2.47,7.025,5.507,7.025,3.088,0,5.506-3.086,5.506-7.025v-2.65A6.254,6.254,0,0,1,11.587,8.8,8.857,8.857,0,0,1,10.1,6.449ZM9.981,2.3c-1.925,0-3.767.114-3.785.115A3.927,3.927,0,0,0,2.3,5.759v.69a1.252,1.252,0,0,1-.23.922V9.214A8.778,8.778,0,0,1,4.991,5.557,9.955,9.955,0,0,1,10.67,3.8h.918l.229.922a1.046,1.046,0,0,1,.085.2,6.426,6.426,0,0,0,.985,1.841A3.96,3.96,0,0,0,15.6,8.293l.344.115V5.759c0-.911-1.136-1.264-1.148-1.267l-1.147-.23.229-1.152c.089-.359.105-.5.065-.55a.075.075,0,0,0-.065-.026A33.805,33.805,0,0,0,9.981,2.3Z" transform="translate(8.605 0.029)" fill="#3e3e3e"/><path d="M34.878,14.627H0v-1.5A13.576,13.576,0,0,1,2.538,5.169,13.376,13.376,0,0,1,9.293.23L9.981,0l.574.461a9.227,9.227,0,0,0,7,3.455,9.036,9.036,0,0,0,7-3.34L25.011,0,25.7.346A13.484,13.484,0,0,1,34.878,13.13v1.5ZM9.178,2.649A11.093,11.093,0,0,0,4.3,6.45,11.572,11.572,0,0,0,2.18,12.324v.115H32.468A11.748,11.748,0,0,0,30.36,6.608a11.01,11.01,0,0,0-4.776-3.844,11.144,11.144,0,0,1-8.146,3.57,10.632,10.632,0,0,1-4.431-.979A13.068,13.068,0,0,1,9.178,2.649Z" transform="translate(0.459 20.875)" fill="#3e3e3e"/><path d="M15.259,37.662h0L8.834,35.129l.8-3.916a11.982,11.982,0,0,1-2.753-2.65L2.983,29.6.23,23.265l3.327-1.957a14.955,14.955,0,0,1-.115-3.916L0,15.318,2.524,8.869l3.9.806A11.983,11.983,0,0,1,9.064,6.91L8.031,2.994,14.342.23l2.18,3.34a12.835,12.835,0,0,1,2.29-.191c.519,0,1.061.025,1.611.076L22.487,0l6.425,2.533-.8,3.916A11.982,11.982,0,0,1,30.862,9.1l3.9-1.037L37.517,14.4l-3.327,2.188a13.3,13.3,0,0,1,.114,3.686l3.443,2.074-2.525,6.449-3.9-.806a12,12,0,0,1-2.639,2.765l1.032,3.916L23.4,37.432l-2.18-3.34a12.836,12.836,0,0,1-2.29.191c-.519,0-1.061-.025-1.611-.076l-2.065,3.454ZM7.8,25.915h0l.459.691a14.789,14.789,0,0,0,3.327,3.225l.688.461-.8,3.57L14.226,34.9l1.836-3.11.8.115a13.537,13.537,0,0,0,2.06.161,11.23,11.23,0,0,0,2.529-.276l.688-.23,1.95,3L26.846,33.4l-.917-3.455.688-.461a14.8,14.8,0,0,0,3.212-3.34l.459-.691,3.557.806L34.878,23.5l-3.1-1.612.114-.806a12.431,12.431,0,0,0-.114-4.607l-.115-.806,2.983-1.957L33.5,10.941l-3.442.922-.459-.691a14.789,14.789,0,0,0-3.327-3.225l-.688-.461.8-3.57L23.634,2.879,21.8,5.99,21,5.874a13.537,13.537,0,0,0-2.06-.161,11.23,11.23,0,0,0-2.529.276l-.8.115-1.95-3L10.9,4.262l.918,3.455-.689.461a14.8,14.8,0,0,0-3.212,3.34l-.459.691L3.9,11.4,2.868,14.167l3.1,1.842-.115.806a12.412,12.412,0,0,0,.115,4.607l.229.691L3.212,24.071,4.36,26.836,7.8,25.915Z" transform="translate(0 36.309)" fill="#3e3e3e"/><path d="M7.572,15.2a7.494,7.494,0,0,1-5.377-2.246A7.633,7.633,0,0,1,2.237,2.2,7.524,7.524,0,0,1,7.572,0a7.653,7.653,0,0,1,7.573,7.6A7.506,7.506,0,0,1,7.572,15.2Zm0-13.015A5.22,5.22,0,0,0,3.815,3.757a5.3,5.3,0,0,0,3.757,9.027,5.121,5.121,0,0,0,3.672-1.569,5.63,5.63,0,0,0,1.606-3.729,5.274,5.274,0,0,0-5.278-5.3Z" transform="translate(11.358 47.596)" fill="#3e3e3e"/></g></g></g></svg>