<svg xmlns="http://www.w3.org/2000/svg" width="38.433" height="38.96" viewBox="0 0 38.433 38.96"><g transform="translate(-0.454 -0.032)"><path d="M9.165,18.9a8.979,8.979,0,0,1-1.342-.1L7.1,16.564a7.069,7.069,0,0,1-1.354-.576L3.7,17.042a9.385,9.385,0,0,1-1.9-1.958l1.021-2.107a7.6,7.6,0,0,1-.558-1.4L.1,10.835a9.822,9.822,0,0,1,0-2.767l2.17-.746a7.519,7.519,0,0,1,.559-1.4L1.8,3.819A9.385,9.385,0,0,1,3.7,1.861L5.746,2.915A7.068,7.068,0,0,1,7.1,2.339L7.823.1a9,9,0,0,1,2.684,0l.724,2.238a7.068,7.068,0,0,1,1.354.576l2.043-1.054a9.359,9.359,0,0,1,1.9,1.957L15.5,5.926a7.579,7.579,0,0,1,.558,1.4l2.17.746a9.756,9.756,0,0,1,0,2.767l-2.17.746a7.6,7.6,0,0,1-.558,1.4l1.022,2.107a9.359,9.359,0,0,1-1.9,1.957l-2.043-1.054a7.069,7.069,0,0,1-1.354.576L10.507,18.8A8.976,8.976,0,0,1,9.165,18.9Zm0-13.5a4,4,0,0,0-3.928,4.05A4,4,0,0,0,9.165,13.5a4,4,0,0,0,3.928-4.051A4,4,0,0,0,9.165,5.4Z" transform="translate(10.506 9.756)" fill="#fb6c6c"/><g transform="translate(3.41)"><path d="M13.816,4.11H5.29A2.694,2.694,0,0,1,2.645,1.37V0H0V1.37A5.388,5.388,0,0,0,5.29,6.851h8.6Z" transform="translate(0.685 31.545)" fill="#515151"/><path d="M2.645,17.812C2.645,9.5,8.875,2.74,16.533,2.74S30.42,9.5,30.42,17.812h2.645C33.065,7.975,25.663,0,16.533,0S0,7.975,0,17.812Z" transform="translate(0.023 0.032)" fill="#515151"/></g><g transform="translate(0.454 17.073)"><path d="M2.651,0H6.626a.674.674,0,0,1,.663.685V14.379a.674.674,0,0,1-.663.685H2.651A2.7,2.7,0,0,1,0,12.325V2.739A2.7,2.7,0,0,1,2.651,0Z" transform="translate(0 0.008)" fill="#c5edff"/><path d="M4.639,15.064H.663A.674.674,0,0,1,0,14.379V.685A.674.674,0,0,1,.663,0H4.639A2.7,2.7,0,0,1,7.289,2.739v9.586A2.7,2.7,0,0,1,4.639,15.064Z" transform="translate(31.144 0.008)" fill="#c5edff"/><path d="M.663,0H6.626a.674.674,0,0,1,.663.685V3.424a.674.674,0,0,1-.663.685H.663A.674.674,0,0,1,0,3.424V.685A.674.674,0,0,1,.663,0Z" transform="translate(15.241 17.811)" fill="#c5edff"/></g></g></svg>