<?xml version="1.0" encoding="UTF-8"?>
<svg width="25px" height="24px" viewBox="0 0 25 24" version="1.1" xmlns="http://www.w3.org/2000/svg" xmlns:xlink="http://www.w3.org/1999/xlink">
    <!-- Generator: Sketch 57.1 (83088) - https://sketch.com -->
    <title>sync-icon</title>
    <desc>Created with Sketch.</desc>
    <g id="Page-1" stroke="none" stroke-width="1" fill="none" fill-rule="evenodd">
        <g id="Desktop-HD-Copy-44" transform="translate(-339.000000, -237.000000)" fill="#616264" fill-rule="nonzero">
            <g id="sync-icon" transform="translate(339.000000, 237.000000)">
                <path d="M1.71647536,10.6904888 C2.33964058,7.15581054 4.83491014,4.26193228 8.13762319,3.06954967 L7.98256232,3.33824532 C7.76635362,3.71254097 7.89449275,4.19118445 8.26878841,4.40739315 C8.39212754,4.47855836 8.52663188,4.51247141 8.65946667,4.51247141 C8.92983188,4.51247141 9.19289275,4.37212358 9.33783188,4.12116706 L10.4167884,2.25323662 C10.5206145,2.07344532 10.5488928,1.85984532 10.4951536,1.65939315 C10.4414145,1.45883662 10.3103536,1.28791488 10.1305623,1.1840888 L8.26211014,0.105027928 C7.88750145,-0.111180768 7.40906667,0.0171670582 7.19296232,0.391358363 C6.97685797,0.765654015 7.1049971,1.24429749 7.47929275,1.46040184 L7.67421449,1.57299315 C3.81804058,2.9382801 0.90057971,6.30360184 0.175153623,10.4186627 C-0.175872464,12.4075323 0.00287536232,14.4572366 0.691988406,16.3463497 C0.807814493,16.6638801 1.10771014,16.8608888 1.42732754,16.8608888 C1.51633623,16.8608888 1.60701449,16.8455497 1.6953971,16.8133062 C2.10151884,16.6651323 2.31063188,16.2159149 2.16245797,15.8098975 C1.56746667,14.1790453 1.41324058,12.4088888 1.71647536,10.6904888 Z" id="Path"></path>
                <path d="M20.2064928,18.7022105 C19.8755014,18.4240192 19.3819362,18.4668018 19.1038493,18.7976888 C16.8271884,21.5060366 13.2516058,22.8076714 9.77129275,22.1933758 C8.0820058,21.8954627 6.50572754,21.1628366 5.19397101,20.0863844 L5.44576232,20.0863844 C5.87807536,20.0863844 6.22837101,19.7359844 6.22837101,19.3037758 C6.22837101,18.8715671 5.87807536,18.5211671 5.44576232,18.5211671 L3.36224928,18.5211671 C3.16117101,18.5021758 2.95289275,18.5604018 2.78593623,18.7004366 C2.62315362,18.8369236 2.53038841,19.0255844 2.51056232,19.2214453 C2.51045797,19.2221758 2.51035362,19.2228018 2.51024928,19.2235323 C2.51024928,19.223741 2.51024928,19.2239497 2.51024928,19.2241584 C2.50805797,19.2465931 2.50701449,19.2691323 2.5068058,19.2916714 C2.50670145,19.2956366 2.50617971,19.2993931 2.50617971,19.3033584 L2.50534483,21.4602279 C2.50513623,21.8924366 2.85543188,22.242941 3.28764058,22.2431497 L3.28795362,22.2431497 C3.72005797,22.2431497 4.07035362,21.8929584 4.07056232,21.460854 L4.07066667,21.1882975 C5.61449275,22.4935844 7.48805797,23.3800192 9.49946667,23.7346975 C10.159571,23.8511497 10.8224928,23.9081236 11.4814493,23.9081236 C14.8436406,23.9081236 18.0986667,22.4258627 20.301971,19.804854 C20.5801623,19.4740714 20.5373797,18.9802975 20.2064928,18.7022105 Z" id="Path"></path>
                <path d="M24.1097275,14.7140366 C23.8937275,14.339741 23.4148754,14.2114975 23.0406841,14.4276018 L22.783258,14.5761931 C22.7939014,14.5208888 22.8064232,14.4658975 22.8161275,14.4104888 C23.3492406,11.3862801 22.6729623,8.33577575 20.9117797,5.82057575 C19.1505971,3.30537575 16.5153971,1.62673228 13.4917101,1.09403662 C13.065971,1.01911488 12.660058,1.30335836 12.5852406,1.72899315 C12.5102145,2.15462793 12.794458,2.56054097 13.2200928,2.63556706 C15.8320232,3.09574097 18.1084754,4.54575836 19.6297623,6.7184888 C21.1480232,8.88673228 21.7326841,11.5156714 21.2775188,14.1228018 L21.1628406,13.9242279 C20.9467362,13.5499323 20.4680928,13.4214801 20.0937971,13.6375844 C19.7193971,13.8535844 19.5911536,14.3322279 19.8071536,14.7066279 L20.8856928,16.5753931 C20.9895188,16.7551844 21.1604406,16.8863497 21.3609971,16.9400888 C21.4276754,16.9579323 21.4957101,16.9668018 21.5635362,16.9668018 C21.6997101,16.9668018 21.8348406,16.9312192 21.9548406,16.8619323 L23.8232928,15.7831844 C24.1975884,15.5669758 24.3258319,15.0883323 24.1097275,14.7140366 Z" id="Path"></path>
            </g>
        </g>
    </g>
</svg>