<?xml version="1.0" encoding="UTF-8"?>
<svg width="24px" height="24px" viewBox="0 0 24 24" version="1.1" xmlns="http://www.w3.org/2000/svg" xmlns:xlink="http://www.w3.org/1999/xlink">
    <!-- Generator: Sketch 57.1 (83088) - https://sketch.com -->
    <title>talk-info-icon</title>
    <desc>Created with Sketch.</desc>
    <g id="Page-1" stroke="none" stroke-width="1" fill="none" fill-rule="evenodd">
        <g id="Pricing-Copy-4" transform="translate(-937.000000, -1133.000000)" fill-rule="nonzero">
            <g id="Group-38" transform="translate(0.000000, 836.000000)">
                <g id="Group-18" transform="translate(250.000000, 70.000000)">
                    <g id="Group-14" transform="translate(663.000000, 211.000000)">
                        <g id="talk-info-icon" transform="translate(24.000000, 16.000000)">
                            <path d="M22.3370115,23.485059 C21.7380302,23.485059 20.9144309,23.3103561 20.4901524,22.8860777 C20.0409165,22.4368417 19.8162985,21.7629877 19.9161287,21.1140913 C19.9660438,20.8645158 20.0409165,20.6149402 20.1157891,20.4152798 C20.2156193,20.1407467 20.3154496,19.8911711 20.2405769,19.7663834 C20.2156193,19.6915107 20.0908316,19.5916805 19.9910013,19.5168078 C19.9410862,19.4668927 19.8662136,19.4169776 19.8162985,19.3670625 C19.39202,18.9677416 19.2173171,18.4935481 19.3421049,18.0692696 C19.39202,17.8696092 19.5417654,17.5701185 19.9660438,17.3704581 C19.39202,16.9960948 19.1174869,16.3471984 19.2672323,15.748217 C19.3670625,15.3988113 19.5916805,15.1492357 19.7663834,14.9495753 C19.841256,14.8747026 19.9410862,14.7499148 19.9660438,14.6750422 C19.9410862,14.6500846 19.841256,14.5502544 19.5168078,14.4504242 C18.5684207,14.0760609 18.3438027,13.5269947 18.3438027,13.1526313 C18.3438027,12.3789471 19.0426143,12.0295414 19.4668927,11.8298809 L19.4668927,11.8298809 C19.8662136,11.6302205 20.2156193,11.3556874 20.4651949,11.0062816 C20.9893035,10.3074701 21.0392186,9.68353124 21.0891338,8.98471971 C21.1390489,8.23599306 21.2139215,7.36247865 21.9876057,6.66366711 C22.2870964,6.38913401 22.811205,6.48896423 22.9609504,6.93820022 C23.035823,7.16281821 22.9359928,7.41239376 22.7612899,7.56213909 C22.361969,7.91154485 22.3120539,8.33582328 22.2621388,9.05959237 C22.2122237,9.88319168 22.1373511,10.9064514 21.2139215,11.9546687 C20.8894733,12.329032 20.4651949,12.6285227 20.0159589,12.8531407 L19.9910013,12.8780982 C19.8662136,12.9280134 19.616638,13.0528011 19.5417654,13.1526313 C19.5916805,13.2025465 19.6915107,13.2774191 19.9161287,13.3522918 C20.2156193,13.4770796 21.0392186,13.7765702 21.1140913,14.575212 C21.1640064,15.1242782 20.8146007,15.5485566 20.5400675,15.7731746 C20.1407467,16.0477077 20.3653647,16.3471984 20.5400675,16.422071 C21.6631575,16.8962646 21.7629877,17.4453308 21.5134122,17.9444819 C21.3137517,18.3188452 20.5400675,18.4186754 20.4901524,18.4186754 C20.51511,18.443633 20.5400675,18.4685905 20.5650251,18.5185056 C20.6149402,18.5684207 20.6398978,18.5933783 20.6898129,18.6183358 C20.8894733,18.7680812 21.1140913,18.9677416 21.2638366,19.2672323 C21.5383697,19.841256 21.3387093,20.3903222 21.1640064,20.8395582 C21.0891338,21.0142611 21.0392186,21.188964 21.0142611,21.3137517 C20.964346,21.5633273 21.0641762,21.8628179 21.2388791,22.0375208 C21.3886244,22.1623086 22.0624784,22.3370115 22.4118842,22.2621388 C22.7363324,22.2122237 23.035823,22.4368417 23.0857381,22.7363324 C23.1356532,23.0607806 22.9359928,23.3602712 22.6115446,23.4101863 C22.6115446,23.485059 22.4867568,23.485059 22.3370115,23.485059 Z" id="Path" fill="#2C3E51"></path>
                            <path d="M1.69711372,23.3602712 C1.22292018,23.3602712 0.748726642,23.2354835 0.324448212,23.0108655 C0.0249575547,22.8611201 -0.0748726642,22.5117144 0.0748726642,22.2122237 C0.224617993,21.9376906 0.598981314,21.8129028 0.873514416,21.9626482 C1.34770796,22.2122237 1.94668927,22.2371813 2.39592525,21.9876057 C2.79524613,21.7879453 3.04482168,21.413582 3.06977923,20.9893035 C3.11969434,20.5650251 2.94499146,20.1407467 2.77028858,19.7414258 C2.62054325,19.3670625 2.44584036,18.9926992 2.47079792,18.5933783 C2.49575547,18.2439725 2.67045836,17.8696092 2.9200339,17.5701185 C2.96994901,17.5202034 3.01986412,17.4702883 3.06977923,17.4203732 C3.36926989,17.095925 3.36926989,17.0460099 3.29439723,16.9212221 C3.29439723,16.8962646 3.26943967,16.8962646 3.26943967,16.8962646 C3.24448212,16.871307 3.06977923,16.871307 2.99490657,16.871307 C2.87011879,16.871307 2.77028858,16.871307 2.6455008,16.8463494 C1.99660438,16.7714768 1.49745328,16.3721559 1.29779285,15.748217 C1.07317485,15.0743631 1.24787774,14.3006789 1.72207128,13.8514429 C2.12139215,13.4770796 2.67045836,13.3772493 3.21952456,13.5769098 C3.419185,13.6517824 3.6937181,13.67674 3.79354832,13.5769098 C3.76859077,13.5020371 3.6937181,13.3772493 3.64380299,13.2774191 C3.44414255,12.9529709 3.16960945,12.4787774 3.21952456,11.8797961 C3.31935478,10.9813241 4.11799653,10.8066212 4.56723252,10.706791 C5.06638361,10.6069608 5.06638361,10.5570457 5.09134117,10.4073003 C5.11629872,10.1327672 4.51731741,9.55874346 4.01816631,9.08454992 C2.9200339,8.06129018 1.34770796,6.61375201 2.12139215,4.49235985 C2.57062814,3.24448212 2.69541591,2.27113748 1.37266551,1.22292018 C1.12308996,0.998302189 1.07317485,0.623938868 1.27283529,0.374363321 C1.47249573,0.124787774 1.84685905,0.0748726642 2.12139215,0.274533102 C2.74533102,0.773684197 4.1928692,2.32105259 3.24448212,4.86672317 C2.77028858,6.16451602 3.61884544,7.08794555 4.86672317,8.26095062 C5.64040737,8.98471971 6.38913401,9.68353124 6.31426135,10.5320881 C6.21443113,11.5803054 5.34091671,11.7550083 4.86672317,11.8548385 C4.7419354,11.8797961 4.51731741,11.9297112 4.4674023,11.9796263 C4.4674023,11.9796263 4.4674023,12.0045838 4.4674023,12.0045838 C4.44244474,12.2042443 4.54227496,12.3789471 4.71697785,12.6784378 C4.94159584,13.0278436 5.26604405,13.5519522 4.91663828,14.1509335 C4.49235985,14.8747026 3.56893033,14.9495753 2.87011879,14.6750422 C2.69541591,14.6251271 2.6455008,14.6750422 2.62054325,14.6999997 C2.49575547,14.8247875 2.42088281,15.1242782 2.49575547,15.3988113 C2.57062814,15.6234293 2.74533102,15.6733444 2.87011879,15.6983019 C2.94499146,15.6983019 3.01986412,15.6983019 3.06977923,15.6983019 C3.419185,15.6983019 4.11799653,15.7232595 4.44244474,16.4719861 C4.81680806,17.320543 4.29269941,17.8945667 3.99320876,18.219015 C3.94329365,18.2689301 3.91833609,18.3188452 3.86842098,18.3438027 C3.76859077,18.4685905 3.71867566,18.6183358 3.6937181,18.6932085 C3.6937181,18.7930387 3.81850587,19.0925294 3.89337854,19.2921898 C4.09303898,19.7663834 4.34261452,20.3903222 4.26774186,21.1140913 C4.16791164,21.9376906 3.6937181,22.6365021 2.94499146,23.035823 C2.59558569,23.2354835 2.14634971,23.3602712 1.69711372,23.3602712 Z" id="Path" fill="#2C3E51"></path>
                            <g id="Group" transform="translate(5.490662, 10.232597)" fill="#13537C">
                                <path d="M2.34601015,7.18777576 C2.82020369,6.83837 3.1446519,6.31426135 3.21952456,5.74023759 C3.39422744,4.51731741 2.57062814,3.39422744 1.34770796,3.19456701 C0.998302189,3.1446519 0.673853978,3.39422744 0.673853978,3.76859077 C0.673853978,4.06808142 0.898471971,4.31765697 1.17300507,4.36757208 C1.74702883,4.4674023 2.12139215,4.99151095 2.04651949,5.54057715 C1.99660438,5.81511025 1.84685905,6.0646858 1.62224106,6.21443113 C1.39762307,6.38913401 1.12308996,6.43904912 0.848556861,6.41409157 C0.449235985,6.3392189 0.0748726642,6.68862467 0.174702883,7.13786065 C0.224617993,7.36247865 0.424278431,7.53718153 0.673853978,7.58709664 C0.748726642,7.58709664 0.823599306,7.61205419 0.898471971,7.61205419 C1.42258062,7.63701175 1.92173171,7.48726642 2.34601015,7.18777576 Z" id="Path"></path>
                                <path d="M5.21612894,6.03972825 C5.54057715,3.91833609 4.09303898,1.94668927 1.97164682,1.62224106 C1.5972835,1.57232595 1.24787774,1.87181661 1.29779285,2.27113748 C1.3227504,2.54567058 1.54736839,2.74533102 1.8219015,2.79524613 C3.26943967,3.04482168 4.26774186,4.39252963 4.04312387,5.86502536 C3.81850587,7.33752109 2.44584036,8.33582328 0.973344635,8.11120529 C0.598981314,8.06129018 0.249575547,8.36078084 0.299490657,8.76010171 C0.324448212,9.03463481 0.549066204,9.25925281 0.848556861,9.30916792 C0.973344635,9.33412547 1.09813241,9.33412547 1.19796263,9.33412547 C3.1446519,9.40899814 4.89168073,8.01137507 5.21612894,6.03972825 Z" id="Path"></path>
                                <path d="M7.18777576,5.36587427 C7.18777576,4.56723252 6.98811533,3.74363321 6.61375201,3.01986412 C5.7901527,1.42258062 4.31765697,0.349405766 2.59558569,0.0748726642 C2.32105259,0.0249575547 2.02156193,0.174702883 1.92173171,0.424278431 C1.77198639,0.798641752 2.02156193,1.17300507 2.3709677,1.24787774 C5.06638361,1.67215617 6.81341244,4.54227496 5.64040737,7.23769087 C5.49066204,7.61205419 5.26604405,7.93650241 5.0164685,8.23599306 C3.99320876,9.40899814 2.54567058,9.93310679 1.07317485,9.70848879 C0.698811533,9.65857368 0.349405766,9.95806434 0.399320876,10.3573852 C0.424278431,10.6319183 0.673853978,10.8565363 0.94838708,10.9064514 C1.12308996,10.931409 1.29779285,10.9563665 1.47249573,10.9563665 C4.51731741,11.1061119 7.23769087,8.66027149 7.18777576,5.36587427 Z" id="Path"></path>
                            </g>
                        </g>
                    </g>
                </g>
            </g>
        </g>
    </g>
</svg>