<?xml version="1.0" encoding="UTF-8"?>
<svg width="22px" height="17px" viewBox="0 0 22 17" version="1.1" xmlns="http://www.w3.org/2000/svg" xmlns:xlink="http://www.w3.org/1999/xlink">
    <!-- Generator: Sketch 57.1 (83088) - https://sketch.com -->
    <title>transfer-icon</title>
    <desc>Created with Sketch.</desc>
    <g id="Page-1" stroke="none" stroke-width="1" fill="none" fill-rule="evenodd">
        <g id="Desktop-HD-Copy-46" transform="translate(-1189.000000, -104.000000)" fill="#7C7C7C" fill-rule="nonzero">
            <g id="Group-9-Copy" transform="translate(1177.000000, 90.000000)">
                <g id="Group-14">
                    <path d="M28.0006605,14.2262661 C27.7796654,14.0053378 27.4473608,13.939259 27.1586567,14.0588335 C26.8699526,14.1784081 26.6816849,14.460096 26.6816182,14.772583 L26.6816182,17.0907593 L21.2725401,17.0907593 C20.8457757,17.0907593 20.4998147,17.4367202 20.4998147,17.8634847 C20.4998147,18.2902492 20.8457757,18.6362101 21.2725401,18.6362101 L27.4543436,18.6362101 C27.8811081,18.6362101 28.227069,18.2902492 28.227069,17.8634847 L28.227069,16.6379422 L31.7707878,20.181661 L28.227069,23.7253798 L28.227069,22.4998373 C28.227069,22.0730728 27.8811081,21.7271119 27.4543436,21.7271119 L18.9543639,21.7271119 L18.9543639,19.4089356 C18.9542971,19.0964486 18.7660294,18.8147607 18.4773253,18.6951861 C18.1886212,18.5756115 17.8563166,18.6416904 17.6353215,18.8626187 L12.2262435,24.2716967 C11.9245855,24.5734459 11.9245855,25.0625813 12.2262435,25.3643305 L17.6353215,30.7734085 C17.7802019,30.9183326 17.9767156,30.999821 18.1816384,30.999821 C18.2832162,31.0001451 18.3838361,30.9801787 18.4775923,30.9410899 C18.7662753,30.8213975 18.9544425,30.5396042 18.9543639,30.2270916 L18.9543639,27.9089153 L24.3634419,27.9089153 C24.7902063,27.9089153 25.1361673,27.5629543 25.1361673,27.1361899 C25.1361673,26.7094254 24.7902063,26.3634644 24.3634419,26.3634644 L18.1816384,26.3634644 C17.754874,26.3634644 17.408913,26.7094254 17.408913,27.1361899 L17.408913,28.3617324 L13.8651942,24.8180136 L17.408913,21.2742948 L17.408913,22.4998373 C17.408913,22.9266018 17.754874,23.2725627 18.1816384,23.2725627 L26.6816182,23.2725627 L26.6816182,25.590739 C26.6816849,25.903226 26.8699526,26.1849139 27.1586567,26.3044885 C27.4473608,26.424063 27.7796654,26.3579842 28.0006605,26.1370559 L33.4097385,20.7279779 C33.7113965,20.4262287 33.7113965,19.9370933 33.4097385,19.6353441 L28.0006605,14.2262661 Z" id="transfer-icon"></path>
                </g>
            </g>
        </g>
    </g>
</svg>