<?xml version="1.0" encoding="UTF-8"?>
<svg width="12px" height="16px" viewBox="0 0 12 16" version="1.1" xmlns="http://www.w3.org/2000/svg" xmlns:xlink="http://www.w3.org/1999/xlink">
    <!-- Generator: Sketch 57.1 (83088) - https://sketch.com -->
    <title>trash-icon</title>
    <desc>Created with Sketch.</desc>
    <g id="Page-1" stroke="none" stroke-width="1" fill="none" fill-rule="evenodd">
        <g id="Desktop-HD-Copy-46" transform="translate(-1389.000000, -653.000000)" fill="#666767" fill-rule="nonzero">
            <path d="M1393.45404,666.478017 C1393.4565,666.478017 1393.45895,666.478017 1393.46141,666.478017 C1393.68747,666.474089 1393.8672,666.287644 1393.86343,666.06175 L1393.69974,656.767029 C1393.69581,656.541135 1393.50888,656.364184 1393.28331,656.365 C1393.05725,656.368931 1392.87752,656.555376 1392.88129,656.78127 L1393.04498,666.075991 C1393.04907,666.29943 1393.23142,666.478017 1393.45404,666.478017 Z M1395.84803,666.478017 C1396.07065,666.478017 1396.25316,666.299594 1396.25709,666.075991 L1396.42078,656.78127 C1396.42455,656.555376 1396.24481,656.368931 1396.01876,656.365003 C1396.0163,656.365003 1396.01385,656.365003 1396.01139,656.365003 C1395.78877,656.365003 1395.60626,656.543426 1395.60233,656.767029 L1395.43864,666.06175 C1395.43487,666.287644 1395.6146,666.474089 1395.84066,666.478017 C1395.84312,666.478017 1395.84574,666.478017 1395.84803,666.478017 Z M1399.06653,656.365003 C1398.84063,656.357146 1398.6519,656.534914 1398.64437,656.760808 L1398.31682,666.945684 C1398.31682,667.22314 1398.09158,667.448707 1397.81478,667.448707 L1391.48811,667.448707 C1391.21082,667.448707 1390.98508,667.22314 1390.98492,666.932425 L1390.65754,656.760645 C1390.65017,656.534751 1390.46144,656.356 1390.23538,656.364839 C1390.00948,656.372042 1389.83221,656.561105 1389.83941,656.786999 L1390.16663,666.94552 C1390.16663,667.674274 1390.75952,668.267 1391.48811,668.267 L1397.81461,668.267 C1398.54271,668.267 1399.13511,667.67411 1399.13495,666.958615 L1399.46233,656.786835 C1399.46953,656.561269 1399.29226,656.372205 1399.06653,656.365003 Z M1399.89202,654.727926 L1397.67368,654.727926 C1397.34171,653.625465 1396.26364,653 1394.65062,653 C1393.03761,653 1391.95954,653.625465 1391.62757,654.727926 L1389.40923,654.727926 C1389.18317,654.727926 1389,654.911096 1389,655.137154 C1389,655.363212 1389.18317,655.546382 1389.40923,655.546382 L1399.89202,655.546382 C1400.11808,655.546382 1400.30125,655.363212 1400.30125,655.137154 C1400.30125,654.911096 1400.11792,654.727926 1399.89202,654.727926 Z M1392.50725,654.727926 C1392.88914,653.990987 1393.84657,653.818457 1394.65062,653.818457 C1395.45468,653.818457 1396.41211,653.990987 1396.794,654.728089 L1392.50725,654.728089 L1392.50725,654.727926 Z" id="trash-icon"></path>
        </g>
    </g>
</svg>