<?xml version="1.0" encoding="UTF-8"?>
<svg width="38px" height="30px" viewBox="0 0 38 30" version="1.1" xmlns="http://www.w3.org/2000/svg" xmlns:xlink="http://www.w3.org/1999/xlink">
    <!-- Generator: Sketch 57.1 (83088) - https://sketch.com -->
    <title>user-add-icon</title>
    <desc>Created with Sketch.</desc>
    <g id="Page-1" stroke="none" stroke-width="1" fill="none" fill-rule="evenodd">
        <g id="Desktop-HD-Copy-47" transform="translate(-1151.000000, -78.000000)" fill="#FFFFFF" fill-rule="nonzero">
            <g id="Group-33" transform="translate(1130.000000, 53.000000)">
                <path d="M33.1891452,40.7894737 L37.2319074,40.7894737 C39.6619117,41.8796882 41.6050458,42.6218726 43.1612919,43.2172974 C48.9601488,45.4389868 49.2490622,45.5502506 49.414404,54.6270813 L49.4210526,55 L21,55 C21.0391235,53.2137255 21.0478176,51.4064854 21.2043116,49.624404 C21.5825055,45.3935333 22.7692518,44.9364818 27.2641078,43.2172974 C28.8568692,42.6000683 30.4468484,41.9747884 32.01624,41.3028137 L33.1891452,40.7894737 L37.2319074,40.7894737 Z M52.6666665,26 L52.666,31.666 L58.333333,31.6666665 L58.333333,33.6666665 L52.666,33.666 L52.6666665,39.3333333 L50.6666665,39.3333333 L50.666,33.666 L45,33.6666665 L45,31.6666665 L50.666,31.666 L50.6666665,26 L52.6666665,26 Z M35.2105263,25 C39.0629331,25 41.5263158,28.6138838 41.5263158,32.1052632 C41.5263158,35.5922673 39.0629331,39.2105263 35.2105263,39.2105263 C31.3581195,39.2105263 28.8947368,35.5922673 28.8947368,32.1052632 C28.8947368,28.6138838 31.3581195,25 35.2105263,25 Z" id="user-add-icon"></path>
            </g>
        </g>
    </g>
</svg>