<?xml version="1.0" encoding="UTF-8"?>
<svg width="16px" height="14px" viewBox="0 0 16 14" version="1.1" xmlns="http://www.w3.org/2000/svg" xmlns:xlink="http://www.w3.org/1999/xlink">
    <!-- Generator: Sketch 57.1 (83088) - https://sketch.com -->
    <title>user-tab-icon</title>
    <desc>Created with Sketch.</desc>
    <g id="Page-1" stroke="none" stroke-width="1" fill="none" fill-rule="evenodd">
        <g id="Desktop-HD-Copy-44" transform="translate(-292.000000, -105.000000)" fill="#3A3E41" fill-rule="nonzero" stroke="#3A3E41" stroke-width="0.3">
            <g id="user-tab-icon" transform="translate(293.000000, 106.000000)">
                <g id="Group">
                    <path d="M5.69124587,0.948540978 C7.3749061,0.948540978 8.72657699,2.3239254 8.72657699,3.98387211 C8.72657699,5.05098071 8.15745241,5.97580816 7.32747905,6.52121922 C9.6988315,7.23262495 11.3824917,9.4142692 11.3824917,11.9753298 C11.3824917,12.165038 11.2164971,12.3310327 11.0267889,12.3310327 C10.8370807,12.3310327 10.671086,12.165038 10.671086,11.9753298 C10.671086,9.29570158 8.58429585,7.11405733 5.90466759,6.99548971 L5.90466759,6.99548971 L5.47782415,6.99548971 C2.79819588,7.11405733 0.711405733,9.29570158 0.711405733,11.9753298 C0.711405733,12.165038 0.545411062,12.3310327 0.355702867,12.3310327 C0.165994671,12.3310327 0,12.165038 0,11.9753298 C0,9.39055568 1.70737376,7.23262495 4.05501268,6.52121922 C3.2013258,5.97580816 2.65591474,5.05098071 2.65591474,3.98387211 C2.65591474,2.30021187 4.03129915,0.948540978 5.69124587,0.948540978 Z M8.82143109,3.55271368e-14 C10.5050913,3.55271368e-14 11.8567622,1.37538442 11.8567622,3.03533113 C11.8567622,4.0787262 11.2876376,5.02726718 10.4576643,5.57267824 C12.8290167,6.28408398 14.512677,8.4420147 14.3941093,11.0030753 C14.3941093,11.1927835 14.2281147,11.3587782 14.0384065,11.3587782 C13.8486983,11.3587782 13.6827036,11.1927835 13.6827036,11.0030753 C13.6827036,8.32344708 11.5959135,6.14180283 8.91628519,6.02323521 L8.91628519,6.02323521 L8.86885814,6.02323521 L8.86885814,6.02323521 L8.85129257,6.01708726 C8.84250978,6.01006103 8.83724011,5.99952168 8.82143109,5.99952168 L8.82143109,5.99952168 L8.80386552,5.99337373 C8.79508273,5.9863475 8.78981306,5.97580816 8.77400404,5.97580816 L8.77400404,5.97580816 L8.75643847,5.97492988 C8.74765568,5.97317332 8.74238601,5.96790365 8.72657699,5.95209463 L8.72657699,5.95209463 L8.72657699,5.92838111 C8.72657699,5.90466759 8.70286347,5.90466759 8.70286347,5.88095406 L8.70286347,5.88095406 L8.70286347,5.85724054 C8.70286347,5.83352701 8.67914995,5.83352701 8.67914995,5.80981349 L8.67914995,5.80981349 L8.67914995,5.62010529 C8.70286347,5.59639177 8.70286347,5.59639177 8.70286347,5.57267824 L8.70286347,5.57267824 L8.70286347,5.54896472 C8.70286347,5.52525119 8.72657699,5.52525119 8.72657699,5.50153767 L8.72657699,5.50153767 L8.72657699,5.47782415 C8.72657699,5.45411062 8.75029052,5.45411062 8.75029052,5.4303971 L8.75029052,5.4303971 L8.75029052,5.40668357 C8.77400404,5.40668357 8.77400404,5.38297005 8.79771757,5.38297005 L8.79771757,5.38297005 L8.82143109,5.38297005 C8.84514462,5.38297005 8.84514462,5.35925652 8.86885814,5.35925652 L8.86885814,5.35925652 L8.89257166,5.35925652 C8.91628519,5.335543 8.91628519,5.335543 8.93999871,5.335543 L8.93999871,5.335543 L9.03485281,5.335543 C10.220529,5.2406889 11.1453565,4.22100735 11.1453565,3.03533113 C11.1453565,1.75480081 10.1019614,0.711405733 8.82143109,0.711405733 C8.48944175,0.711405733 8.18116593,0.782546307 7.89660364,0.924827453 C7.70689544,0.995968026 7.49347372,0.924827453 7.42233315,0.735119258 C7.35119258,0.545411062 7.42233315,0.331989342 7.61204135,0.260848769 C7.99145774,0.0948540978 8.39458765,3.55271368e-14 8.82143109,3.55271368e-14 Z M5.69124587,1.65994671 C4.41071555,1.65994671 3.36732047,2.70334179 3.36732047,3.98387211 C3.36732047,5.19326185 4.29214792,6.18922988 5.47782415,6.28408398 L5.47782415,6.28408398 L5.92838111,6.28408398 C7.09034381,6.18922988 8.01517126,5.19326185 8.01517126,3.98387211 C8.01517126,2.70334179 6.97177619,1.65994671 5.69124587,1.65994671 Z" id="Combined-Shape"></path>
                </g>
            </g>
        </g>
    </g>
</svg>