<svg xmlns="http://www.w3.org/2000/svg" width="49.992" height="50" viewBox="0 0 49.992 50"><path d="M42.671,7.322A25,25,0,0,0,7.321,42.678a25,25,0,0,0,32.691,2.31.732.732,0,0,0-.881-1.17A23.533,23.533,0,0,1,1.465,25,23.53,23.53,0,0,1,41.635,8.358a23.538,23.538,0,0,1,.272,33.007.732.732,0,0,0,1.053,1.019,25,25,0,0,0-.289-35.061Z" transform="translate(0)" fill="#fff"/><path d="M9.812,0H3.078A3.082,3.082,0,0,0,0,3.079V16.205a3.082,3.082,0,0,0,3.078,3.078H8.155a.571.571,0,0,1,.407.169l3.584,3.585a2.057,2.057,0,0,0,2.909,0l3.585-3.585a.57.57,0,0,1,.406-.168h4.516a3.082,3.082,0,0,0,3.078-3.078V3.079A3.082,3.082,0,0,0,23.561,0H13.32a.732.732,0,0,0,0,1.465H23.561a1.616,1.616,0,0,1,1.614,1.614V16.205a1.616,1.616,0,0,1-1.614,1.614H19.046a2.028,2.028,0,0,0-1.442.6L14.019,22a.591.591,0,0,1-.837,0L9.6,18.416a2.027,2.027,0,0,0-1.443-.6H3.078a1.616,1.616,0,0,1-1.614-1.614V3.079A1.616,1.616,0,0,1,3.078,1.465H9.812A.732.732,0,0,0,9.812,0Z" transform="translate(11.676 14.465)" fill="#fff"/><path d="M9.8,10.086H2.34A2.343,2.343,0,0,1,0,7.746V2.34A2.343,2.343,0,0,1,2.34,0H9.8a2.35,2.35,0,0,1,2.29,1.856L14.531.694A1.159,1.159,0,0,1,16.187,1.74V8.347a1.159,1.159,0,0,1-1.657,1.047L12.089,8.231A2.351,2.351,0,0,1,9.8,10.086ZM2.34,1.464a.876.876,0,0,0-.875.876V7.746a.876.876,0,0,0,.875.876H9.8a.877.877,0,0,0,.877-.876V2.34A.877.877,0,0,0,9.8,1.464Zm12.383.76L12.14,3.454V6.632l2.583,1.229Z" transform="translate(16.902 19.172)" fill="#fff"/></svg>