<svg xmlns="http://www.w3.org/2000/svg" xmlns:xlink="http://www.w3.org/1999/xlink" width="30" height="26.817" viewBox="0 0 30 26.817"><defs><style>.a{fill:#f66d6e;}.b{clip-path:url(#a);}.c,.f{fill:none;}.c{stroke:#fff;stroke-miterlimit:10;stroke-width:2px;opacity:0.1;}.d{fill:#fff;}.e{stroke:none;}</style><clipPath id="a"><rect class="a" width="30" height="26.817" rx="2"/></clipPath></defs><rect class="a" width="30" height="26.817" rx="2"/><g class="b"><ellipse class="c" cx="6.779" cy="6.679" rx="6.779" ry="6.679" transform="translate(-5.192 20.463)"/><g class="c" transform="translate(23.077 -11.084)"><path class="e" d="M0,0H23.462a0,0,0,0,1,0,0V17.337a0,0,0,0,1,0,0H5a5,5,0,0,1-5-5V0A0,0,0,0,1,0,0Z"/><path class="f" d="M2,1H21.462a1,1,0,0,1,1,1V15.337a1,1,0,0,1-1,1H5a4,4,0,0,1-4-4V2A1,1,0,0,1,2,1Z"/></g></g><g transform="translate(8 6)"><path class="d" d="M12.8,2.2A7.5,7.5,0,0,0,2.2,12.8,7.5,7.5,0,0,0,12,13.5a.22.22,0,0,0-.264-.351A7.06,7.06,0,0,1,.439,7.5,7.059,7.059,0,0,1,12.491,2.507a7.061,7.061,0,0,1,.082,9.9.22.22,0,0,0,.316.306A7.5,7.5,0,0,0,12.8,2.2Z" transform="translate(0)"/><path class="d" d="M2.944,0H.924A.925.925,0,0,0,0,.924V4.862a.925.925,0,0,0,.924.924H2.447a.171.171,0,0,1,.122.051L3.644,6.911a.617.617,0,0,0,.873,0L5.592,5.836a.171.171,0,0,1,.122-.05H7.068a.925.925,0,0,0,.924-.924V.924A.925.925,0,0,0,7.068,0H4A.22.22,0,1,0,4,.439H7.068a.485.485,0,0,1,.484.484V4.862a.485.485,0,0,1-.484.484H5.714a.608.608,0,0,0-.433.179L4.206,6.6a.177.177,0,0,1-.251,0L2.879,5.525a.608.608,0,0,0-.433-.179H.924a.485.485,0,0,1-.484-.484V.924A.485.485,0,0,1,.924.439h2.02a.22.22,0,0,0,0-.439Z" transform="translate(3.503 4.339)"/><path class="d" d="M2.94,3.026H.7a.7.7,0,0,1-.7-.7V.7A.7.7,0,0,1,.7,0H2.94a.706.706,0,0,1,.687.557L4.36.208a.347.347,0,0,1,.5.314V2.5a.347.347,0,0,1-.5.314L3.627,2.47A.706.706,0,0,1,2.94,3.026ZM.7.439A.263.263,0,0,0,.439.7V2.324A.263.263,0,0,0,.7,2.587H2.94A.263.263,0,0,0,3.2,2.324V.7A.263.263,0,0,0,2.94.439ZM4.417.667l-.775.369V1.99l.775.369Z" transform="translate(5.071 5.751)"/></g></svg>