<?xml version="1.0" encoding="UTF-8"?>
<svg width="27px" height="27px" viewBox="0 0 27 27" version="1.1" xmlns="http://www.w3.org/2000/svg" xmlns:xlink="http://www.w3.org/1999/xlink">
    <!-- Generator: Sketch 57.1 (83088) - https://sketch.com -->
    <title>video-info-icon</title>
    <desc>Created with Sketch.</desc>
    <g id="Page-1" stroke="none" stroke-width="1" fill="none" fill-rule="evenodd">
        <g id="Pricing-Copy-4" transform="translate(-934.000000, -1465.000000)" fill="#E78585" fill-rule="nonzero">
            <g id="Group-38" transform="translate(0.000000, 836.000000)">
                <g id="Group-18" transform="translate(250.000000, 70.000000)">
                    <g id="Group-16" transform="translate(663.000000, 542.000000)">
                        <path d="M45.3,17 C46.785,17 48,18.215 48,19.7 L48,19.7 L48,35.9 C48,37.385 46.785,38.6 45.3,38.6 L45.3,38.6 L26.4,38.6 L21,44 L21,19.7 C21,18.215 22.215,17 23.7,17 L23.7,17 Z M33.4784707,21.0029764 L27.4614828,21.0029764 C26.7834854,21.0029764 26.203679,21.2689387 25.7221236,21.8008302 C25.2407478,22.3327878 25,22.9731874 25,23.7223597 L25,30.3696308 C25,31.1187369 25.2407478,31.7591034 25.7221535,32.291028 C26.2037089,32.8229525 26.7835153,33.0889148 27.4615127,33.0889148 L33.4785306,33.0889148 C34.1567076,33.0889148 34.7363643,32.8229525 35.2178898,32.291028 C35.6993854,31.7591034 35.9401331,31.11877 35.9401331,30.3696308 L35.9401331,28.8021334 L39.3846045,32.6073915 C39.4872561,32.7268794 39.6153236,32.7867721 39.7691962,32.7867721 C39.8376306,32.7867721 39.908849,32.77103 39.9829115,32.7396781 C40.2052484,32.6326251 40.3162822,32.4469939 40.3162822,32.1826191 L40.3162822,21.9094375 C40.3162822,21.6449304 40.2051586,21.4592661 39.9828516,21.3522132 C39.9087892,21.3207951 39.8375707,21.3050199 39.7691363,21.3050199 C39.6152637,21.3050199 39.4871962,21.3649458 39.3845446,21.4844667 L35.9400732,25.2802994 L35.9400732,23.7223597 C35.9400732,22.9731874 35.6993255,22.3327878 35.2178299,21.8008302 C34.7363045,21.2689387 34.1566777,21.0029764 33.4784707,21.0029764 Z" id="video-info-icon"></path>
                    </g>
                </g>
            </g>
        </g>
    </g>
</svg>