<svg xmlns="http://www.w3.org/2000/svg" width="40" height="40" viewBox="0 0 40 40"><g opacity="0.9"><g transform="translate(0.625 0.625)"><path d="M38.667,1.333V32.667a2,2,0,0,1-2,2H2a2,2,0,0,1-2-2V1.333L.667,0H38Z" transform="translate(0.042 4.042)" fill="#607d8b"/><path d="M36.667,1.333V32.667a2,2,0,0,1-2,2H2a2,2,0,0,1-2-2V1.333L.667,0H36Z" transform="translate(0.042 4.042)" fill="#fff"/><path d="M38.667,2V5.333H0V2A2,2,0,0,1,2,0H36.667A2,2,0,0,1,38.667,2Z" transform="translate(0.042 0.042)" fill="#aeb3f1"/><path d="M36.667,2V5.333H0V2A2,2,0,0,1,2,0H34.667A2,2,0,0,1,36.667,2Z" transform="translate(0.042 0.042)" fill="#ff7e7e"/><path d="M1.333,0H4A1.333,1.333,0,0,1,5.333,1.333h0A1.333,1.333,0,0,1,4,2.667H1.333A1.333,1.333,0,0,1,0,1.333H0A1.333,1.333,0,0,1,1.333,0Z" transform="translate(18.042 32.042)" fill="#80dcff"/><path d="M5.333,2.667V8a.667.667,0,0,1-.667.667H2.133A2.15,2.15,0,0,1,0,6.5V2.167A2.15,2.15,0,0,1,2.133,0H4.667a.667.667,0,0,1,.667.667Z" transform="translate(7.375 20.708)" fill="#beebff"/><path d="M5.333,2.167V6.5A2.151,2.151,0,0,1,3.2,8.667H.667A.667.667,0,0,1,0,8V.667A.667.667,0,0,1,.667,0H3.2A2.151,2.151,0,0,1,5.333,2.167Z" transform="translate(26.042 20.708)" fill="#1566c0"/><path d="M3.333,2.167V6.5A2.151,2.151,0,0,1,1.2,8.667H.667A.667.667,0,0,1,0,8V.667A.667.667,0,0,1,.667,0H1.2A2.151,2.151,0,0,1,3.333,2.167Z" transform="translate(26.042 20.708)" fill="#c5edff"/></g><path d="M37.333,0H2.667A2.667,2.667,0,0,0,0,2.667V6a.667.667,0,0,0,.667.667h30a.667.667,0,0,0,0-1.333H1.333V2.667A1.333,1.333,0,0,1,2.667,1.333H37.333a1.333,1.333,0,0,1,1.333,1.333V5.333h-4a.667.667,0,1,0,0,1.333h4.667A.667.667,0,0,0,40,6V2.667A2.667,2.667,0,0,0,37.333,0Z" fill="#3e3e3e"/><path d="M39.333,0a.667.667,0,0,0-.667.667V29.333a1.333,1.333,0,0,1-1.333,1.333H2.667a1.333,1.333,0,0,1-1.333-1.333V.667A.667.667,0,1,0,0,.667V29.333A2.667,2.667,0,0,0,2.667,32H37.333A2.667,2.667,0,0,0,40,29.333V.667A.667.667,0,0,0,39.333,0Z" transform="translate(0 8)" fill="#3e3e3e"/><path d="M.667,0a.667.667,0,1,0,0,1.333h.667A.667.667,0,0,0,1.333,0Z" transform="translate(2.667 2.667)" fill="#3e3e3e"/><path d="M.667,0a.667.667,0,1,0,0,1.333h.667A.667.667,0,0,0,1.333,0Z" transform="translate(6 2.667)" fill="#3e3e3e"/><path d="M.667,0a.667.667,0,0,0,0,1.333h.667A.667.667,0,1,0,1.333,0H.667Z" transform="translate(9.333 2.667)" fill="#3e3e3e"/><path d="M15.333,26.667H12.667a2,2,0,0,1,0-4h2.667A2.005,2.005,0,0,1,17.211,24h2.123a2,2,0,0,0,2-2v-.666H20A1.335,1.335,0,0,1,18.667,20V14.666a.666.666,0,0,1,1.333,0V20h2.534A1.487,1.487,0,0,0,24,18.5V14.167a1.488,1.488,0,0,0-1.467-1.5h-3.2a.666.666,0,0,1,0-1.333h2V10A8.667,8.667,0,0,0,4,10v1.334H6a.666.666,0,1,1,0,1.333H2.8a1.487,1.487,0,0,0-1.466,1.5V18.5A1.487,1.487,0,0,0,2.8,20H5.333V14.666a.667.667,0,0,1,1.334,0V20a1.335,1.335,0,0,1-1.334,1.334H2.8A2.826,2.826,0,0,1,0,18.5V14.167a2.813,2.813,0,0,1,2.667-2.82V10a10,10,0,0,1,20,0v1.347a2.814,2.814,0,0,1,2.667,2.82V18.5a2.813,2.813,0,0,1-2.667,2.82V22a3.342,3.342,0,0,1-3.334,3.334H17.211A2.006,2.006,0,0,1,15.333,26.667ZM12.667,24a.666.666,0,1,0,0,1.333h2.667a.666.666,0,1,0,0-1.333Z" transform="translate(7.333 9.333)" fill="#3e3e3e"/></g></svg>