<svg xmlns="http://www.w3.org/2000/svg" xmlns:xlink="http://www.w3.org/1999/xlink" width="30" height="28" viewBox="0 0 30 28"><defs><style>.a{fill:#194158;}.b{clip-path:url(#a);}.c,.e,.g{fill:none;}.c,.e{stroke:#fff;stroke-miterlimit:10;}.c{stroke-width:2px;opacity:0.1;}.d{fill:#fff;}.f{stroke:none;}</style><clipPath id="a"><rect class="a" width="30" height="28" rx="2"/></clipPath></defs><rect class="a" width="30" height="28" rx="2"/><g class="b"><circle class="c" cx="6.5" cy="6.5" r="6.5" transform="translate(24 -6)"/><g class="c" transform="translate(-16 21)"><path class="f" d="M0,0H21a2,2,0,0,1,2,2V18a0,0,0,0,1,0,0H0a0,0,0,0,1,0,0V0A0,0,0,0,1,0,0Z"/><rect class="g" x="1" y="1" width="21" height="16" rx="1"/></g><g transform="translate(8 7)"><g transform="translate(0 0)"><path class="d" d="M2.767,2.039a3.736,3.736,0,0,0-.8-1.192A3.736,3.736,0,0,0,.771.044.555.555,0,1,0,.339,1.067a2.633,2.633,0,0,1,.839.566,2.631,2.631,0,0,1,.566.839A2.623,2.623,0,0,1,1.951,3.5a2.623,2.623,0,0,1-.207,1.027,2.633,2.633,0,0,1-.566.839,2.633,2.633,0,0,1-.839.566A.555.555,0,1,0,.771,6.954,3.739,3.739,0,0,0,1.564,6.5a.185.185,0,0,0-.223-.3,3.37,3.37,0,0,1-.714.411.185.185,0,1,1-.144-.341,3,3,0,0,0,.957-.645,3,3,0,0,0,.645-.957A2.99,2.99,0,0,0,2.321,3.5a2.991,2.991,0,0,0-.236-1.171,3,3,0,0,0-.645-.957A3,3,0,0,0,.483.726.185.185,0,1,1,.627.385,3.368,3.368,0,0,1,1.7,1.109a3.368,3.368,0,0,1,.724,1.074A3.359,3.359,0,0,1,2.692,3.5a3.359,3.359,0,0,1-.266,1.316,3.416,3.416,0,0,1-.152.313.185.185,0,0,0,.324.178,3.772,3.772,0,0,0,.169-.348A3.727,3.727,0,0,0,3.062,3.5a3.728,3.728,0,0,0-.295-1.46Z" transform="translate(8.927 3.922)"/><path class="d" d="M.555,4.508A.555.555,0,0,1,.339,3.442a1.273,1.273,0,0,0,.41-.276,1.286,1.286,0,0,0,.276-.41,1.271,1.271,0,0,0,.1-.5,1.271,1.271,0,0,0-.1-.5,1.281,1.281,0,0,0-.276-.41,1.286,1.286,0,0,0-.41-.276.546.546,0,0,1-.3-.3A.556.556,0,0,1,.556,0,.548.548,0,0,1,.771.044a2.384,2.384,0,0,1,.763.514,2.4,2.4,0,0,1,.513.762,2.372,2.372,0,0,1,.189.934,2.37,2.37,0,0,1-.189.933,2.38,2.38,0,0,1-.513.762,2.388,2.388,0,0,1-.762.514A.547.547,0,0,1,.555,4.508ZM.555.37A.187.187,0,0,0,.486.384a.185.185,0,0,0,0,.342,1.631,1.631,0,0,1,.527.356,1.658,1.658,0,0,1,.355.526,1.657,1.657,0,0,1,.13.646,1.648,1.648,0,0,1-.13.645,1.66,1.66,0,0,1-.355.527,1.66,1.66,0,0,1-.527.355.185.185,0,0,0,.072.356.178.178,0,0,0,.072-.014,2.027,2.027,0,0,0,.645-.435,2.027,2.027,0,0,0,.435-.645,2.024,2.024,0,0,0,.159-.789,2.026,2.026,0,0,0-.159-.79A2.031,2.031,0,0,0,1.273.82,2.01,2.01,0,0,0,.627.385.184.184,0,0,0,.555.37Z" transform="translate(7.919 5.03)"/><path class="d" d="M.555,2.361A.555.555,0,0,1,.339,1.294a.129.129,0,0,0,.04-.027.127.127,0,0,0,.026-.039.122.122,0,0,0,.01-.048.124.124,0,0,0-.01-.049.127.127,0,0,0-.026-.039.129.129,0,0,0-.04-.027A.555.555,0,0,1,.555,0,.549.549,0,0,1,.771.044a1.236,1.236,0,0,1,.392.264A1.241,1.241,0,0,1,1.428.7a1.235,1.235,0,0,1,0,.96,1.241,1.241,0,0,1-.265.392,1.223,1.223,0,0,1-.392.264A.539.539,0,0,1,.555,2.361ZM.556.37A.185.185,0,0,0,.483.725.488.488,0,0,1,.64.832.488.488,0,0,1,.746.988a.481.481,0,0,1,.039.193.5.5,0,0,1-.039.192.488.488,0,0,1-.106.157.488.488,0,0,1-.157.106.183.183,0,0,0-.1.1.179.179,0,0,0,0,.141.184.184,0,0,0,.17.113.193.193,0,0,0,.072-.014A.867.867,0,0,0,.9,1.791a.874.874,0,0,0,.185-.274.871.871,0,0,0,0-.672A.874.874,0,0,0,.9.57.849.849,0,0,0,.627.385.185.185,0,0,0,.556.37Z" transform="translate(6.755 6.24)"/><path class="d" d="M2.863,9.443c-.045,0-.091,0-.136-.005A1.673,1.673,0,0,1,1.67,8.943l-.032-.034-.023-.025A5.784,5.784,0,0,1,.071,5.729,6.712,6.712,0,0,1,.479,2.287a4.142,4.142,0,0,1,.4-.734.185.185,0,0,1,.155-.082.181.181,0,0,1,.1.031.182.182,0,0,1,.079.119.18.18,0,0,1-.027.138,3.691,3.691,0,0,0-.368.663A6.334,6.334,0,0,0,.437,5.674,5.409,5.409,0,0,0,1.884,8.629l.016.018.035.037a1.3,1.3,0,0,0,.822.384c.039,0,.074,0,.105,0a1.309,1.309,0,0,0,.6-.144L3.452,8.92l0-.006-.021-.028,0-.006,0-.006,0-.006,0-.006L3.4,8.844l-.013-.017-.005-.008,0-.006L3.365,8.8,3.341,8.77l-.019-.025-.013-.017L3.3,8.71,3.289,8.7,3.28,8.687l-.024-.033-.019-.025-.011-.014L3.218,8.6l0-.007L3.2,8.585l0-.007,0-.007-.012-.016-.013-.017-.008-.012-.008-.011-.025-.034-.016-.022L3.1,8.44l-.01-.014A.213.213,0,0,1,3.073,8.4l-.017-.024L3.049,8.37a.063.063,0,0,1-.009-.013l-.006-.008-.025-.034L3,8.305,3,8.3l0,0L2.98,8.276l-.01-.014-.013-.019-.013-.018-.013-.018L2.925,8.2l0-.005-.029-.041-.005-.008c-.047-.065-.092-.129-.136-.192l0,0-.012-.018-.014-.02L2.713,7.9,2.7,7.881a.132.132,0,0,0-.013-.018.065.065,0,0,0-.009-.013l-.014-.022-.008-.012A.115.115,0,0,1,2.643,7.8l-.011-.015-.011-.015,0-.006,0-.006,0,0L2.6,7.737l0,0-.007-.011L2.576,7.7l-.01-.014-.009-.014-.013-.019-.009-.014-.01-.014a.115.115,0,0,1-.012-.017A.128.128,0,0,1,2.5,7.594l-.008-.011-.011-.016,0-.006-.015-.023-.01-.014L2.432,7.5l-.005-.008L2.421,7.48,2.4,7.454l-.011-.016L2.373,7.41,2.367,7.4l-.013-.018-.009-.014a.069.069,0,0,1-.009-.013L2.318,7.33l0-.006,0-.006L2.291,7.29l-.008-.012-.011-.016-.007-.01-.008-.012-.008-.013L2.24,7.215a.016.016,0,0,0,0-.006l-.011-.016-.01-.014,0-.006-.02-.029-.013-.019-.01-.015L2.122,7.04l-.034-.051L2.05,6.933a.309.309,0,0,0-.018-.026l0-.007,0-.008-.007-.011L2.008,6.87l0,0,0-.007a.009.009,0,0,0,0,0l-.011-.016a.036.036,0,0,0,0-.008l-.011-.016-.013-.021-.013-.019-.006-.009a.03.03,0,0,1-.005-.008l0-.005L1.922,6.74a.022.022,0,0,0,0-.006l0-.005,0-.005,0-.007,0-.007L1.9,6.7l0-.005-.007-.009,0,0,0-.007-.011-.017-.005-.008,0,0-.007-.01L1.85,6.625a4.508,4.508,0,0,1,.027-3.817l0-.005,0-.01,0-.007,0-.006,0-.006,0-.006h0l0,0,0-.007,0-.006,0-.006,0-.006,0-.005a.02.02,0,0,1,0-.009.029.029,0,0,1,0-.007l0-.01a.015.015,0,0,0,0-.006l0-.008,0,0,0-.008a.059.059,0,0,1,.007-.013c0-.009.006-.014.009-.019l0-.008.006-.013,0-.005,0-.007,0-.009,0-.009a.1.1,0,0,0,.007-.014l.005-.009a.03.03,0,0,1,0-.007L2,2.553l0,0a.03.03,0,0,1,.005-.011l0-.005,0,0,0-.011.005-.011L2.03,2.5l0-.008,0-.009a.067.067,0,0,1,.006-.011l0-.005.006-.013.006-.01.005-.01.005-.01.005-.01L2.082,2.4a.067.067,0,0,0,.006-.011l.005-.009.014-.026,0-.006c.018-.032.038-.067.059-.1l0-.006.018-.029L2.2,2.2l.016-.028a.037.037,0,0,0,0-.008c.008-.012.013-.021.019-.03l.007-.013.017-.027L2.27,2.08l.016-.027.005-.009,0-.005,0-.007a.158.158,0,0,1,.013-.021l0-.007,0-.007.009-.014.009-.014,0-.007,0-.007.019-.03,0-.007,0-.007,0-.006.006-.009,0-.007L2.4,1.877,2.4,1.864l.005-.009.005-.009.009-.012,0,0,.006-.01.027-.042,0-.006L2.514,1.7l.051-.077,0,0,0,0L2.582,1.6l.007-.01L2.6,1.57l0-.006,0-.007.027-.039L2.647,1.5l.008-.011.008-.011.01-.014.012-.018.006-.009L2.7,1.429l.009-.013,0-.006.013-.019a.129.129,0,0,1,.013-.018l.006-.009.006-.009,0,0,0,0,.007-.01c.008-.013.017-.025.026-.037l0-.007L2.8,1.283l0-.005.027-.037,0-.007.006-.009,0-.005c.01-.013.019-.024.027-.037l.006-.009,0,0,.006-.008.029-.04.014-.02.032-.043,0,0,0,0,0-.006L3,1.019,3.014.994,3.021.983c.049-.065.1-.129.149-.194A.1.1,0,0,1,3.182.774L3.191.761,3.2.749,3.22.724,3.227.715l0,0,0,0L3.243.7l.03-.038L3.283.644,3.289.635,3.3.616,3.315.6,3.326.59l.02-.024L3.38.523,3.394.5,3.4.5l0-.006,0-.006,0,0L3.42.473A1.308,1.308,0,0,0,2.048.7a.182.182,0,0,1-.123.047A.185.185,0,0,1,1.8.42a1.679,1.679,0,0,1,2-.163A1.7,1.7,0,0,1,4.1.5a1.528,1.528,0,0,1,.185.224.608.608,0,0,1-.011.707L3.006,3.151a.421.421,0,0,1-.337.17.409.409,0,0,1-.079-.007,1.646,1.646,0,0,1-.461-.162A4.129,4.129,0,0,0,2.1,6.278a1.715,1.715,0,0,1,.273-.11.616.616,0,0,1,.682.232L4.2,8a.71.71,0,0,1,.085.6l-.034.1a.173.173,0,0,1-.023.045,1.749,1.749,0,0,1-.189.22,1.634,1.634,0,0,1-.2.168A1.682,1.682,0,0,1,2.863,9.443ZM2.556,6.512a.244.244,0,0,0-.071.01,1.305,1.305,0,0,0-.208.083l0,0,.031.047.009.013.005.007.021.034,0,.005.022.032.005.008L2.4,6.8l0,.005.025.038.005.008.011.016.017.026,0,0,0,0,.018.026L2.5,6.94l0,0,.018.027.013.019L2.543,7l.012.018.021.031c.013.017.024.034.036.052l0,.007.026.038.013.019.005.007.02.029.015.021,0,.005,0,.005.019.028.02.029L2.75,7.3l.035.052,0,.006.031.045.013.019,0,0,.006.008.041.059.024.036.022.032.009.013.023.033.023.033.047.067,0,.006.005.008.023.033.025.035,0,0,0,0,.044.062,0,.007,0,.007.011.015.039.055,0,.007,0,.007.047.065.006.009.025.035.027.037.005.007.005.007.025.035.026.036,0,.005.053.074,0,0,.01.013.027.037.028.038,0,.005.034.045.02.027.01.013,0,0,.021.029.034.047,0,.007,0,.007.04.054.011.015.006.007L3.7,8.63c.019.026.038.052.058.077a.016.016,0,0,0,0,.006l.008-.008L3.777,8.7a1.368,1.368,0,0,0,.131-.151l.026-.073A.35.35,0,0,0,3.9,8.212l-1.14-1.6A.248.248,0,0,0,2.556,6.512ZM3.74.666,3.668.755a15.792,15.792,0,0,0-1,1.392l-.044.069-.029.047-.033.055c-.151.251-.237.419-.275.5a1.28,1.28,0,0,0,.377.136h.01a.05.05,0,0,0,.04-.02L3.98,1.211a.239.239,0,0,0,0-.278A1.307,1.307,0,0,0,3.84.758,1.158,1.158,0,0,0,3.74.666Z" transform="translate(3 2.7)"/><path class="d" d="M.259.014a.185.185,0,0,0-.241.1l0,.011A.185.185,0,1,0,.357.266l0-.011A.185.185,0,0,0,.259.014Z" transform="translate(10.753 9.551)"/><path class="d" d="M.116.368a.185.185,0,0,0,.241-.1l0-.011A.185.185,0,0,0,.018.116l0,.011A.185.185,0,0,0,.116.368Z" transform="translate(4.281 3.604)"/><g class="e" transform="translate(0 0)"><circle class="f" cx="7.5" cy="7.5" r="7.5"/><circle class="g" cx="7.5" cy="7.5" r="8"/></g></g></g></g></svg>