<svg xmlns="http://www.w3.org/2000/svg" width="44" height="44" viewBox="0 0 44 44"><g transform="translate(2 2)"><g transform="translate(0 0)"><path d="M7.378,5.438A9.962,9.962,0,0,0,5.235,2.26,9.962,9.962,0,0,0,2.057.118,1.48,1.48,0,1,0,.9,2.845,7.02,7.02,0,0,1,3.142,4.354,7.016,7.016,0,0,1,4.651,6.592,6.994,6.994,0,0,1,5.2,9.331a7,7,0,0,1-.553,2.739,7.02,7.02,0,0,1-1.509,2.238A7.02,7.02,0,0,1,.9,15.817a1.48,1.48,0,1,0,1.153,2.727A9.971,9.971,0,0,0,4.17,17.328a.494.494,0,0,0-.594-.789,8.986,8.986,0,0,1-1.9,1.1.493.493,0,1,1-.384-.909,8,8,0,0,0,2.551-1.72,8,8,0,0,0,1.72-2.551A7.974,7.974,0,0,0,6.19,9.331,7.975,7.975,0,0,0,5.56,6.207,8,8,0,0,0,3.84,3.656a8,8,0,0,0-2.551-1.72.493.493,0,1,1,.384-.909A8.982,8.982,0,0,1,4.538,2.958,8.982,8.982,0,0,1,6.469,5.823a8.957,8.957,0,0,1,.709,3.508,8.958,8.958,0,0,1-.709,3.508,9.108,9.108,0,0,1-.405.836.493.493,0,0,0,.865.476,10.058,10.058,0,0,0,.45-.927,9.94,9.94,0,0,0,.786-3.893,9.941,9.941,0,0,0-.787-3.893Z" transform="translate(23.805 10.458)" fill="#fff"/><path d="M1.481,12.022A1.481,1.481,0,0,1,.9,9.178,3.426,3.426,0,0,0,2,8.441a3.426,3.426,0,0,0,.737-1.093A3.411,3.411,0,0,0,3,6.011a3.409,3.409,0,0,0-.269-1.337A3.419,3.419,0,0,0,2,3.582,3.426,3.426,0,0,0,.9,2.845,1.481,1.481,0,0,1,.925.109,1.472,1.472,0,0,1,2.058.118a6.375,6.375,0,0,1,2.032,1.37A6.378,6.378,0,0,1,5.461,3.521a6.363,6.363,0,0,1,.5,2.49,6.366,6.366,0,0,1-.5,2.491,6.374,6.374,0,0,1-1.37,2.032,6.378,6.378,0,0,1-2.033,1.371A1.484,1.484,0,0,1,1.481,12.022Zm0-11.035a.494.494,0,0,0-.193.949,4.4,4.4,0,0,1,1.406.948A4.413,4.413,0,0,1,3.643,4.29a4.392,4.392,0,0,1,.347,1.721,4.394,4.394,0,0,1-.347,1.722,4.406,4.406,0,0,1-.949,1.406,4.406,4.406,0,0,1-1.406.949.493.493,0,0,0,.193.948A.486.486,0,0,0,1.673,11a5.4,5.4,0,0,0,1.72-1.159,5.4,5.4,0,0,0,1.159-1.72,5.383,5.383,0,0,0,.425-2.106,5.389,5.389,0,0,0-.425-2.106A5.4,5.4,0,0,0,3.393,2.186a5.4,5.4,0,0,0-1.72-1.159A.493.493,0,0,0,1.481.987Z" transform="translate(21.118 13.412)" fill="#fff"/><path d="M1.481,6.3A1.481,1.481,0,0,1,.9,3.451a.319.319,0,0,0,.105-.07.345.345,0,0,0,.071-.105.337.337,0,0,0,0-.256A.336.336,0,0,0,.9,2.844,1.48,1.48,0,0,1,1.483,0a1.47,1.47,0,0,1,.575.117A3.277,3.277,0,0,1,3.1.822a3.287,3.287,0,0,1,0,4.652,3.272,3.272,0,0,1-1.046.7A1.475,1.475,0,0,1,1.481,6.3Zm0-5.308a.493.493,0,0,0-.194.948,1.307,1.307,0,0,1,.419.283,1.317,1.317,0,0,1-.419,2.143.493.493,0,0,0,.384.909A2.3,2.3,0,0,0,2.9,4.044a2.311,2.311,0,0,0,0-1.793,2.314,2.314,0,0,0-.493-.732,2.3,2.3,0,0,0-.733-.493A.49.49,0,0,0,1.482.987Z" transform="translate(18.015 16.641)" fill="#fff"/><path d="M7.634,25.181c-.113,0-.232-.005-.363-.015a4.459,4.459,0,0,1-2.815-1.317c-.058-.058-.11-.115-.149-.157A15.429,15.429,0,0,1,.19,15.278,17.885,17.885,0,0,1,1.276,6.1,10.971,10.971,0,0,1,2.355,4.144a.493.493,0,0,1,.822.546A9.941,9.941,0,0,0,2.2,6.459a16.908,16.908,0,0,0-1.03,8.671,14.441,14.441,0,0,0,3.856,7.881l0,0,0,0c.04.043.085.092.13.138a3.474,3.474,0,0,0,2.192,1.025c.091.008.186.012.284.012a3.485,3.485,0,0,0,1.588-.383l-.016-.022c-.023-.031-.046-.06-.068-.091l-.049-.066-.017-.022-.018-.024-.022-.029-.012-.016L9,23.506l-.024-.033-.066-.088L8.9,23.369l-.011-.016-.019-.025-.008-.011-.031-.042-.009-.012-.026-.035L8.77,23.2l-.023-.031-.066-.089-.049-.067c-.022-.029-.043-.057-.064-.086-.007-.011-.015-.022-.023-.031l-.023-.032-.065-.089-.022-.031-.023-.031-.066-.09L8.3,22.559l-.064-.088-.026-.036-.018-.025-.064-.088-.021-.028-.02-.028-.026-.036-.026-.036-.014-.02c-.013-.019-.025-.036-.039-.054l-.066-.091L7.9,22l-.017-.025-.034-.046-.034-.046-.025-.036-.03-.042-.029-.04-.019-.026-.008-.011L7.7,21.721l-.364-.511L7.328,21.2l-.055-.078L7.257,21.1l-.023-.033L7.192,21l-.026-.037-.014-.018-.012-.017-.061-.088-.007-.011-.012-.017L7.048,20.8l-.056-.081-.033-.048-.044-.062-.01-.015-.025-.035-.01-.014-.026-.039-.026-.037-.035-.05-.052-.075-.011-.015-.011-.015L6.7,20.3l-.054-.078L6.63,20.2l-.012-.017-.027-.041L6.565,20.1c-.01-.012-.019-.026-.028-.039l-.013-.019-.013-.019-.027-.039-.027-.04-.049-.072-.007-.01-.007-.01-.011-.016,0-.005-.013-.018-.038-.056-.008-.012-.005-.008-.009-.014-.051-.076-.023-.033c-.017-.024-.033-.048-.049-.072l0-.005L6.17,19.53l-.011-.017-.025-.037-.024-.036L6.1,19.425l-.011-.015-.018-.026-.03-.043-.005-.008,0-.006-.011-.016L6,19.286,6,19.276l-.013-.018-.013-.019-.015-.022-.019-.028-.016-.024-.015-.022L5.9,19.126l-.012-.018-.013-.019c-.01-.014-.019-.027-.027-.04l-.006-.01c-.019-.027-.037-.054-.054-.08l-.151-.225-.005-.008-.159-.239,0-.005-.019-.029-.01-.015-.014-.021,0-.006L5.409,18.4l-.031-.047,0-.007,0-.006-.016-.023-.019-.028L5.33,18.28l0,0L5.31,18.25,5.3,18.232l-.006-.008,0,0-.005-.008c-.009-.014-.018-.029-.028-.042l-.007-.012-.03-.044,0-.005,0-.005L5.2,18.089,5.2,18.078l-.011-.016,0,0-.028-.041-.005-.009,0-.005-.019-.029-.01-.016-.009-.012,0,0L5.1,17.929l0,0,0,0c-.006-.011-.013-.022-.02-.031s-.014-.023-.021-.032l0-.006,0-.006-.005-.008-.005-.009,0-.005,0-.006-.007-.012,0-.006-.022-.033-.007-.012-.015-.023,0,0,0-.007a.417.417,0,0,1-.03-.055l0-.006A12.017,12.017,0,0,1,5,7.487l0-.009,0-.008,0-.006,0-.007,0-.009,0-.007,0-.006,0-.005a.032.032,0,0,1,0-.01.091.091,0,0,1,.006-.013l0-.006,0-.005,0-.007,0-.007.005-.013.008-.017,0-.007a.015.015,0,0,0,0-.006l.008-.019L5.089,7.3l0-.009,0,0,0-.005,0-.01,0-.01,0-.007.005-.012,0-.006,0-.006,0-.009.01-.021.008-.016.009-.019,0-.006.013-.029.012-.024.005-.01.009-.019.011-.022.011-.021L5.233,7l.005-.011.006-.012.008-.018a.1.1,0,0,0,.009-.017l.006-.012.006-.012.019-.037,0-.006,0-.006,0-.006,0-.007a.292.292,0,0,1,.015-.029l.005-.011a.119.119,0,0,1,.008-.015l0-.01.022-.041.007-.013.007-.014.009-.017L5.4,6.684l.009-.015a.07.07,0,0,1,.006-.012c.007-.014.015-.03.024-.045L5.444,6.6l.007-.014.027-.049.007-.014.007-.014c.01-.017.02-.034.029-.052a.1.1,0,0,0,.007-.013l.008-.014,0-.009.015-.027.012-.022c0-.008.009-.016.014-.024s.024-.045.038-.068l.005-.01,0-.007.018-.031.038-.067c.033-.058.067-.117.1-.178l0,0,0-.005,0-.007.047-.079.016-.027.021-.036L5.9,5.791l.02-.032.043-.071.008-.013.012-.019L6,5.635l.032-.053.011-.018.011-.018.01-.016L6.08,5.5,6.1,5.474c.007-.013.015-.026.023-.038l.017-.026.006-.01.016-.026.007-.011.024-.039L6.207,5.3l.01-.016.008-.013.012-.019.007-.011.018-.028.014-.022.036-.058.012-.019.013-.02.054-.084L6.4,5l.017-.026c.019-.031.039-.061.059-.093l.007-.011a.148.148,0,0,0,.013-.02l.04-.061.031-.046,0,0,0,0,0-.007c.068-.1.154-.234.267-.4L6.857,4.3l.038-.056.038-.056.01-.014.008-.011.008-.011q.034-.051.07-.1L7.059,4l.023-.032c.015-.022.03-.044.046-.065l.011-.016.022-.032.051-.073.016-.023.024-.034.013-.018.028-.041.04-.057.019-.026L7.37,3.56,7.4,3.521,7.41,3.5l.03-.042.039-.053L7.5,3.384l.018-.025.021-.03.015-.02.011-.015.012-.016.017-.023.075-.1.022-.03L7.7,3.1l.078-.106L7.8,2.966l.019-.026L7.9,2.826,7.922,2.8l.018-.024.1-.13.016-.022.009-.012c.133-.178.272-.358.391-.511l.015-.02.008-.01.008-.01.1-.134.041-.051.1-.125.04-.052.005-.007.048-.059.047-.06c.009-.01.017-.021.025-.031l.028-.034L9.011,1.4l.057-.07.007-.009.03-.038.015-.019a3.484,3.484,0,0,0-3.66.6A.494.494,0,1,1,4.8,1.121a4.46,4.46,0,0,1,6.141.209,4.084,4.084,0,0,1,.491.6,1.622,1.622,0,0,1-.028,1.887L8.017,8.4a1.125,1.125,0,0,1-.9.454,1.068,1.068,0,0,1-.209-.02A4.41,4.41,0,0,1,5.676,8.4a11.022,11.022,0,0,0-.065,8.339,4.367,4.367,0,0,1,.728-.293,1.644,1.644,0,0,1,1.818.62L11.2,21.326a1.9,1.9,0,0,1,.225,1.6l-.092.26a.523.523,0,0,1-.063.122,4.48,4.48,0,0,1-.5.588,4.546,4.546,0,0,1-.533.448A4.432,4.432,0,0,1,7.634,25.181Zm-.818-7.816a.663.663,0,0,0-.191.028,3.485,3.485,0,0,0-.552.221l0,.005,0,.005.006.008.005.008.1.145.005.008.008.013.034.051.026.039.008.013.038.056.02.03,0,0,.011.018.022.032.047.07.01.014.022.032.045.067.014.022.038.056.038.056.006.009.011.016c.024.037.049.074.076.112l0,.006,0,.006.084.124.022.031.036.053.054.078.056.083.039.057.019.028.07.1.027.039.014.021c.029.043.059.087.09.131l.021.03.058.085.045.066.013.018.008.011.1.139.011.016.007.01.11.158.024.034.028.04.082.118A.04.04,0,0,0,7.7,20l.119.171.025.035c.041.059.081.117.123.176l.053.075,0,0,.069.1.027.038.046.065.007.01.073.1.013.018.007.01.058.082.058.082.013.018.013.018.128.18,0,0,.013.018.013.018.122.171a.3.3,0,0,1,.019.027l.136.188,0,.005.014.019.014.019.075.1.06.084.01.013.144.2.032.045.148.2,0,.006,0,.006.142.194.016.022.016.022.074.1.074.1.027.037.135.182.03.041,0,.005.15.2.006.008.006.008c.014-.014.03-.028.043-.042a3.519,3.519,0,0,0,.352-.4l.068-.193a.934.934,0,0,0-.1-.7L7.355,17.643A.664.664,0,0,0,6.816,17.365ZM9.972,1.776l-.192.238,0,0A41.867,41.867,0,0,0,7.1,5.727c-.12.19-.209.335-.282.455-.358.592-.6,1.046-.735,1.322a3.422,3.422,0,0,0,1.006.364l.024,0a.135.135,0,0,0,.106-.054l3.389-4.589a.635.635,0,0,0,.01-.741l0-.007a3.356,3.356,0,0,0-.377-.458A3.56,3.56,0,0,0,9.972,1.776Z" transform="translate(8 7.2)" fill="#fff"/><path d="M.691.036A.494.494,0,0,0,.048.308L.036.338a.493.493,0,1,0,.915.37L.963.679A.494.494,0,0,0,.691.036Z" transform="translate(28.675 25.469)" fill="#fff"/><path d="M.309.981A.493.493,0,0,0,.951.708L.963.679A.493.493,0,0,0,.048.309L.036.338A.494.494,0,0,0,.309.981Z" transform="translate(11.415 9.61)" fill="#fff"/><g transform="translate(0 0)" fill="none" stroke="#fff" stroke-miterlimit="10" stroke-width="2"><circle cx="20" cy="20" r="20" stroke="none"/><circle cx="20" cy="20" r="21" fill="none"/></g></g></g></svg>