<svg xmlns="http://www.w3.org/2000/svg" xmlns:xlink="http://www.w3.org/1999/xlink" width="40" height="35.885" viewBox="0 0 40 35.885"><defs><style>.a{fill:#fff;}.b{clip-path:url(#a);}.c,.d,.g{fill:none;}.c{stroke:#000;stroke-width:2px;opacity:0.08;}.c,.d,.e{stroke-miterlimit:10;}.d,.e{stroke:#192f48;}.d{stroke-linecap:round;}.e{fill:#192f48;stroke-width:0.2px;}.f{stroke:none;}</style><clipPath id="a"><rect class="a" width="40" height="35.885" rx="2"/></clipPath></defs><rect class="a" width="40" height="35.885" rx="2"/><g class="b"><ellipse class="c" cx="9.038" cy="8.937" rx="9.038" ry="8.937" transform="translate(-6.538 28.523)"/><g class="c" transform="translate(31.154 -15.212)"><path class="f" d="M0,0H31.282a0,0,0,0,1,0,0V23.2a0,0,0,0,1,0,0H2a2,2,0,0,1-2-2V0A0,0,0,0,1,0,0Z"/><rect class="g" x="1" y="1" width="29.282" height="21.199" rx="1"/></g></g><g transform="translate(10.323 7.742)"><path class="d" d="M9.24,15.5H1.476A1.476,1.476,0,0,1,0,14.021V5.33A2.109,2.109,0,0,1,2.109,3.221H9.923a.105.105,0,0,0,.095-.152L8.6.152A.105.105,0,0,1,8.742.011l5.707,2.777a1.582,1.582,0,0,1,.89,1.422V14.232h0A1.266,1.266,0,0,1,14.073,15.5H11.256" transform="translate(6.287 0.017)"/><path class="d" d="M6.535,0h7.429a1.687,1.687,0,0,1,1.687,1.687v8.8a1.793,1.793,0,0,1-1.793,1.793H5.566a.105.105,0,0,0-.089.162L7.223,15.2a.211.211,0,0,1-.267.3L1.468,12.963A2.531,2.531,0,0,1,0,10.666V1.793A1.793,1.793,0,0,1,1.793,0H3.915" transform="translate(0 6.27)"/><g transform="translate(8.387 7.742)"><path class="e" d="M2.873,5.7h-.34a.505.505,0,0,1,0-1.009h.339a.479.479,0,0,1,.454.348.935.935,0,0,0,.769-.962H3.9a.14.14,0,0,1-.136-.144V2.307A.14.14,0,0,1,3.9,2.163H4.1V1.947A1.544,1.544,0,0,0,2.616.287H2.445A1.544,1.544,0,0,0,.963,1.947v.216h.194a.14.14,0,0,1,.136.144V3.93a.14.14,0,0,1-.136.143H.741A.764.764,0,0,1,0,3.29V2.947a.77.77,0,0,1,.692-.782V1.947A2.07,2.07,0,0,1,1.185.574,1.656,1.656,0,0,1,2.447,0h.17A1.656,1.656,0,0,1,3.879.574a2.07,2.07,0,0,1,.493,1.373v.219a.764.764,0,0,1,.689.781v.342a.768.768,0,0,1-.695.783,1.285,1.285,0,0,1-.574,1.086,1.24,1.24,0,0,1-.461.166A.483.483,0,0,1,2.873,5.7Zm-.34-.721a.217.217,0,0,0,0,.434h.34a.217.217,0,0,0,0-.434ZM4.041,2.45V3.785h.282a.484.484,0,0,0,.469-.5V2.947a.484.484,0,0,0-.469-.5Zm-3.3,0a.484.484,0,0,0-.469.5v.342a.484.484,0,0,0,.469.5h.282V2.45Z" transform="translate(0.02)"/></g></g></svg>